<?xml version="1.0" standalone="no"?>
<!DOCTYPE svg PUBLIC "-//W3C//DTD SVG 1.1//EN" "http://www.w3.org/Graphics/SVG/1.1/DTD/svg11.dtd" >
<svg>
<metadata>
Created by FontForge 20090622 at Sat Jun 11 08:57:08 2016
 By deploy user
Copyright (c) 2013 by . All rights reserved.
</metadata>
<defs>
<font id="AttitudeVNCactusBoldItalic-Bold" horiz-adv-x="298" >
  <font-face 
    font-family="Attitude VN Cactus Bold Italic"
    font-weight="700"
    font-stretch="normal"
    units-per-em="1050"
    panose-1="2 0 5 6 0 0 0 2 0 4"
    ascent="840"
    descent="-210"
    x-height="558"
    cap-height="762"
    bbox="-138 -204 962 1060"
    underline-thickness="20"
    underline-position="-44"
    unicode-range="U+0020-U+FB02"
  />
<missing-glyph horiz-adv-x="476" 
d="M336 0h-356l160 762h357zM187 703l-137 -643h238l137 643h-238z" />
    <glyph glyph-name=".notdef" horiz-adv-x="476" 
d="M336 0h-356l160 762h357zM187 703l-137 -643h238l137 643h-238z" />
    <glyph glyph-name=".null" horiz-adv-x="0" 
 />
    <glyph glyph-name="nonmarkingreturn" horiz-adv-x="350" 
 />
    <glyph glyph-name="space" unicode=" " horiz-adv-x="141" 
 />
    <glyph glyph-name="exclam" unicode="!" horiz-adv-x="160" 
d="M103 762h114l-148 -558h-55zM77 168l-35 -168h-86l35 168h86z" />
    <glyph glyph-name="quotedbl" unicode="&#x22;" horiz-adv-x="307" 
d="M200 762h115l-94 -294h-55zM54 762h115l-93 -294h-56z" />
    <glyph glyph-name="numbersign" unicode="#" horiz-adv-x="467" 
d="M418 409h70l-50 -92h-70l-43 -77h70l-51 -91h-69l-81 -149h-93l81 149h-41l-80 -149h-92l78 149h-68l50 91h69l42 78h-69l51 91h70l79 149h94l-80 -149h40l81 149h93zM232 240l43 78h-41l-43 -78h41z" />
    <glyph glyph-name="dollar" unicode="$" 
d="M234 196q-19 -94 -106 -123l-15 -73h-93l15 74q-69 32 -50 120l15 71h92l-13 -62q-9 -39 24 -39q31 0 39 38q6 25 -10 68l-57 168q-24 71 -12 127q19 94 103 124l15 73h93l-15 -73q74 -32 53 -127l-13 -63h-93l13 64q9 39 -25 39q-31 0 -40 -39q-6 -26 11 -74l59 -169
q22 -66 10 -124z" />
    <glyph glyph-name="percent" unicode="%" horiz-adv-x="406" 
d="M328 637l-14 -68q-13 -60 -58 -99t-97 -39t-81 38q-27 39 -14 100l14 68q14 61 57 99q46 38 98 38t80 -38.5t15 -98.5zM375 478l14 -82l-360 -111l-12 82zM332 192l-14 -68q-13 -60 -57 -98.5t-97 -38.5q-54 0 -81.5 38.5t-14.5 98.5l14 68q14 62 57 99q47 39 99 39
t79.5 -39t14.5 -99zM220 566l15 73q9 36 -23 36t-41 -36l-15 -73q-8 -36 25 -36q31 0 39 36zM224 121l16 73q7 36 -23 36q-33 0 -41 -36l-16 -73q-8 -35 26 -35q30 0 38 35z" />
    <glyph glyph-name="ampersand" unicode="&#x26;" horiz-adv-x="330" 
d="M232 302l79 -32l-115 -172q3 -10 15 -10h51l-19 -88h-57q-40 0 -56 16q-40 -28 -82 -28q-45 0 -69 34t-12 87l1 8q11 50 64 143l54 95l-6 63q-15 163 -1 223q12 61 60 100q43 34 94 34t78 -34q30 -36 18 -100q-15 -69 -102 -212l-47 -77l5 -121zM234 635q9 39 -23 39
q-33 0 -42 -41q-8 -36 -2 -97l4 -34l8 14q48 80 55 119zM95 99l-3 97q-27 -56 -31 -77l-1 -4q-6 -29 14 -29q15 0 21 13z" />
    <glyph glyph-name="quotesingle" unicode="'" horiz-adv-x="169" 
d="M54 762h115l-93 -294h-56z" />
    <glyph glyph-name="parenleft" unicode="(" horiz-adv-x="179" 
d="M84 13l-21 -99q-59 0 -86 40t-13 104l120 571q14 64 58.5 103.5t103.5 39.5l-21 -99q-15 0 -29 -12t-18 -31l-123 -574q-4 -20 4.5 -31.5t24.5 -11.5z" />
    <glyph glyph-name="parenright" unicode=")" horiz-adv-x="179" 
d="M215 629l-121 -571q-14 -64 -58 -104t-103 -40l21 99q16 0 29.5 12t16.5 31l123 574q4 20 -4.5 31.5t-24.5 11.5l21 99q59 0 86.5 -39.5t13.5 -103.5z" />
    <glyph glyph-name="asterisk" unicode="*" horiz-adv-x="377" 
d="M363 688l10 -96l-142 -22l76 -99l-93 -59l-37 123l-90 -123l-68 59l118 99l-131 22l50 96l111 -62l9 136h99l-49 -136z" />
    <glyph glyph-name="plus" unicode="+" horiz-adv-x="357" 
d="M343 426l-21 -96h-106l-27 -128h-97l27 128h-106l21 96h106l27 128h97l-27 -128h106z" />
    <glyph glyph-name="comma" unicode="," horiz-adv-x="167" 
d="M67 168h114l-168 -295h-57z" />
    <glyph glyph-name="hyphen" unicode="-" horiz-adv-x="216" 
d="M202 428l-21 -96h-168l21 96h168z" />
    <glyph glyph-name="period" unicode="." horiz-adv-x="141" 
d="M134 168l-35 -168h-93l35 168h93z" />
    <glyph glyph-name="slash" unicode="/" horiz-adv-x="359" 
d="M342 762h94l-414 -762h-92z" />
    <glyph glyph-name="zero" unicode="0" 
d="M328 637l-109 -512q-13 -60 -57 -98.5t-97 -38.5t-80.5 38.5t-14.5 98.5l108 512q14 61 57 99q46 38 98 38t80 -38.5t15 -98.5zM125 122l110 517q7 36 -23 36q-34 0 -41 -36l-110 -517q-6 -35 26 -35t38 35z" />
    <glyph glyph-name="one" unicode="1" horiz-adv-x="192" 
d="M249 762l-161 -762h-93l124 590h-63l104 172h89z" />
    <glyph glyph-name="two" unicode="2" 
d="M211 94l-20 -94h-258l260 530q31 63 39 98q9 44 -22 44q-32 0 -41 -37l-22 -105h-93l23 107q14 65 62 103q40 34 93 34q48 0 77 -32q33 -37 19 -99q-11 -51 -52 -134l-203 -415h138z" />
    <glyph glyph-name="three" unicode="3" 
d="M106 762h258l-174 -272q48 -10 69 -47.5t9 -91.5l-48 -226q-13 -60 -57 -98.5t-97 -38.5t-80.5 38.5t-14.5 98.5l39 185h93l-40 -188q-7 -36 25 -36t39 36l49 232q9 40 -28 40q-16 0 -27 -12l-17 -24l-79 33l179 277h-118z" />
    <glyph glyph-name="four" unicode="4" horiz-adv-x="310" 
d="M274 259l-20 -94h-51l-35 -165h-85l35 165h-156l240 597h127l-106 -503h51zM80 259h58l71 334l-32 -83z" />
    <glyph glyph-name="five" unicode="5" 
d="M270 357l-50 -232q-13 -60 -57 -98.5t-97 -38.5t-80.5 38.5t-14.5 98.5l39 185h93l-40 -188q-8 -35 25 -35q31 0 39 35l51 240q6 32 -24 32q-22 0 -42 -26l-6 -8l-79 30l79 372h237l-20 -94h-144l-38 -178q16 4 34 4q52 0 80 -38.5t15 -98.5z" />
    <glyph glyph-name="six" unicode="6" 
d="M252 280l-33 -155q-13 -60 -57 -98.5t-97 -38.5t-80.5 38.5t-14.5 98.5l108 512q13 60 56.5 98.5t97.5 38.5q53 0 81 -38.5t15 -98.5l-40 -187h-93l41 190q6 35 -24 35q-34 0 -40 -35l-51 -236q16 10 36 10q52 0 79.5 -38.5t15.5 -95.5zM125 122l34 160q8 32 -24 32
t-40 -32l-34 -160q-6 -35 26 -35t38 35z" />
    <glyph glyph-name="seven" unicode="7" horiz-adv-x="255" 
d="M95 762h238l-306 -762h-91l269 668h-129z" />
    <glyph glyph-name="eight" unicode="8" 
d="M255 296l-36 -171q-13 -60 -57 -98.5t-97 -38.5t-80.5 38.5t-14.5 98.5l35 171q14 60 59 92q-32 29 -20 90l34 159q14 61 57 99q46 38 98 38t80 -38.5t15 -98.5l-34 -159q-12 -59 -58 -90q32 -34 19 -92zM200 471l35 168q7 36 -23 36q-34 0 -41 -36l-35 -168
q-8 -35 25 -35q31 0 39 35zM125 122l39 180q8 36 -24 36q-33 0 -40 -36l-39 -180q-6 -35 26 -35t38 35z" />
    <glyph glyph-name="nine" unicode="9" 
d="M328 637l-109 -512q-13 -60 -56.5 -98.5t-96.5 -38.5q-52 0 -81 38t-15 99l39 187h93l-41 -190q-6 -35 25 -35q33 0 39 35l51 236q-16 -10 -36 -10q-52 0 -79.5 38.5t-15.5 95.5l33 155q14 61 57 99q46 38 98 38t80 -38.5t15 -98.5zM202 480l34 160q6 35 -25 35
q-33 0 -39 -35l-34 -160q-8 -32 25 -32q31 0 39 32z" />
    <glyph glyph-name="colon" unicode=":" horiz-adv-x="141" 
d="M176 558l-36 -168h-93l36 168h93zM93 168l-36 -168h-92l35 168h93z" />
    <glyph glyph-name="semicolon" unicode=";" horiz-adv-x="135" 
d="M189 558l-35 -168h-93l35 168h93zM25 168h114l-166 -295h-58z" />
    <glyph glyph-name="less" unicode="&#x3c;" horiz-adv-x="299" 
d="M150 366l108 -137l-84 -69l-162 206l249 204l55 -68z" />
    <glyph glyph-name="equal" unicode="=" horiz-adv-x="357" 
d="M362 517l-20 -96h-309l20 96h309zM323 335l-20 -96h-308l19 96h309z" />
    <glyph glyph-name="greater" unicode="&#x3e;" horiz-adv-x="299" 
d="M124 570l163 -204l-250 -206l-53 69l166 137l-109 136z" />
    <glyph glyph-name="question" unicode="?" 
d="M328 643q-10 -46 -41 -114l-152 -325h-94l151 324q32 69 40 100q9 44 -22 44q-32 0 -41 -37l-22 -105h-93l23 107q14 65 62 103q40 34 93 34q48 0 77 -32q33 -37 19 -99zM123 168l-36 -168h-87l35 168h88z" />
    <glyph glyph-name="at" unicode="@" horiz-adv-x="455" 
d="M387 175l-1 -4q-16 -79 -87 -133q-69 -51 -155 -51q-87 0 -135 51q-46 51 -29 133l88 418q16 81 86 132q68 52 157 52q85 0 133 -52q48 -51 31 -132l-80 -376h-58l-5 19q-35 -31 -80 -31q-50 0 -72.5 34.5t-9.5 95.5l19 88q14 67 59 103q41 34 92 34q24 0 33 -10l9 43
q9 45 -18 70q-26 21 -73 21q-48 0 -81 -21q-40 -25 -49 -70l-89 -418q-9 -45 19 -69q25 -22 73 -22t84 24t45 67l1 4h93zM328 333l19 93q8 32 -25 32q-31 0 -39 -32l-19 -93q-8 -33 24 -33t40 33z" />
    <glyph glyph-name="A" unicode="A" horiz-adv-x="308" 
d="M293 762l-75 -762h-92l14 135h-81l-40 -135h-90l247 762h117zM88 230h65l41 348l-22 -78z" />
    <glyph glyph-name="B" unicode="B" 
d="M258 307l-43 -201q-10 -45 -46 -75.5t-79 -30.5h-146l160 762h145q43 0 67.5 -31t14.5 -79l-40 -190q-14 -60 -61 -79q38 -24 28 -76zM198 463l35 165q9 40 -26 40h-29l-53 -247h28q14 0 27.5 12.5t17.5 29.5zM128 136l33 152q9 44 -23 44h-32l-51 -238h28q36 0 45 42z
" />
    <glyph glyph-name="C" unicode="C" 
d="M259 312l-40 -187q-13 -60 -57 -98.5t-97 -38.5t-80.5 38.5t-14.5 98.5l108 512q14 61 57 99q46 38 98 38t80 -38.5t15 -98.5l-40 -187h-93l40 189q7 36 -23 36q-34 0 -41 -36l-110 -517q-6 -35 26 -35t38 35l41 190h93z" />
    <glyph glyph-name="D" unicode="D" 
d="M326 630l-105 -498q-13 -57 -56 -94.5t-94 -37.5h-127l160 762h128q52 0 79.5 -38t14.5 -94zM128 136l105 490q9 42 -26 42h-29l-123 -574h29q35 0 44 42z" />
    <glyph glyph-name="E" unicode="E" horiz-adv-x="261" 
d="M182 94l-19 -94h-219l160 762h220l-19 -94h-127l-50 -234h88l-20 -92h-88l-53 -248h127z" />
    <glyph glyph-name="F" unicode="F" horiz-adv-x="261" 
d="M324 762l-19 -94h-127l-50 -234h88l-20 -92h-88l-72 -342h-92l160 762h220z" />
    <glyph glyph-name="G" unicode="G" 
d="M275 390l-82 -390h-58l-5 19q-37 -31 -80 -31q-50 0 -72 34.5t-9 95.5l109 519q14 61 57 99q46 38 98 38t80 -38.5t15 -98.5l-40 -187h-93l40 189q7 36 -23 36q-34 0 -41 -36l-110 -517q-6 -35 26 -35t38 35l38 176h-36l19 92h129z" />
    <glyph glyph-name="H" unicode="H" 
d="M354 762l-161 -762h-93l70 332h-64l-70 -332h-92l160 762h93l-71 -334h64l71 334h93z" />
    <glyph glyph-name="I" unicode="I" horiz-adv-x="141" 
d="M197 762l-161 -762h-92l160 762h93z" />
    <glyph glyph-name="J" unicode="J" 
d="M356 762l-136 -637q-13 -60 -56.5 -98.5t-96.5 -38.5q-52 0 -81 38q-27 38 -15 99l39 187h93l-40 -190q-8 -35 24 -35t40 35l136 640h93z" />
    <glyph glyph-name="K" unicode="K" horiz-adv-x="290" 
d="M196 412l9 -412h-96l-2 336l-71 -336h-92l160 762h93l-63 -300l133 300h93z" />
    <glyph glyph-name="L" unicode="L" horiz-adv-x="249" 
d="M174 94l-19 -94h-211l160 762h93l-142 -668h119z" />
    <glyph glyph-name="M" unicode="M" horiz-adv-x="469" 
d="M525 762l-161 -762h-94l118 555l-31 -96l-167 -459h-73l35 555l-18 -94l-98 -461h-92l160 762h142l-18 -369l-10 -87l27 87l138 369h142z" />
    <glyph glyph-name="N" unicode="N" 
d="M354 762l-161 -762h-79l5 432l-13 -66l-77 -366h-85l160 762h88l-4 -387l12 67l68 320h86z" />
    <glyph glyph-name="O" unicode="O" 
d="M328 637l-109 -512q-13 -60 -57 -98.5t-97 -38.5t-80.5 38.5t-14.5 98.5l108 512q14 61 57 99q46 38 98 38t80 -38.5t15 -98.5zM125 122l110 517q7 36 -23 36q-34 0 -41 -36l-110 -517q-6 -35 26 -35t38 35z" />
    <glyph glyph-name="P" unicode="P" 
d="M327 634l-36 -172q-12 -59 -49.5 -93t-84.5 -34h-50l-71 -335h-92l160 762h143q47 0 69.5 -34.5t10.5 -93.5zM199 470l33 155q10 43 -26 43h-28l-52 -240h28q15 0 28 12t17 30z" />
    <glyph glyph-name="Q" unicode="Q" 
d="M336 637l-109 -512q-17 -77 -80 -115l30 -95h-107l4 73h-1q-54 0 -81 38.5t-14 98.5l108 512q12 61 57 99q46 38 98 38t80 -38.5t15 -98.5zM133 122l110 517q7 36 -23 36q-34 0 -41 -36l-110 -517q-8 -35 26 -35q30 0 38 35z" />
    <glyph glyph-name="R" unicode="R" 
d="M254 288l-61 -288h-93l60 285q9 43 -29 43h-26l-69 -328h-92l160 762h136q49 0 75 -32q26 -36 12 -95l-37 -176q-12 -59 -65 -83q20 -8 27.5 -33t1.5 -55zM199 470l33 155q10 43 -26 43h-28l-52 -241h28q15 0 28 12t17 31z" />
    <glyph glyph-name="S" unicode="S" 
d="M328 637l-23 -107h-93l22 105q9 38 -23 38q-33 0 -42 -42q-10 -44 2 -107l49 -247q15 -73 0 -141q-15 -70 -61 -112q-42 -36 -93 -36q-52 0 -79 34q-30 39 -17 103l23 107h92l-22 -105q-9 -38 24 -38q32 0 41 41q11 48 -3 110l-51 247q-13 68 2 139q15 70 61 112
q42 36 94 36t79 -34q31 -39 18 -103z" />
    <glyph glyph-name="T" unicode="T" horiz-adv-x="274" 
d="M336 762l-19 -94h-72l-142 -668h-94l142 668h-72l19 94h238z" />
    <glyph glyph-name="U" unicode="U" 
d="M346 762l-136 -637q-13 -60 -57 -98.5t-97 -38.5t-80.5 38.5t-14.5 98.5l135 637h93l-136 -640q-8 -35 25 -35q31 0 39 35l136 640h93z" />
    <glyph glyph-name="V" unicode="V" horiz-adv-x="287" 
d="M265 762h90l-250 -762h-85l71 762h91l-62 -490l22 78z" />
    <glyph glyph-name="W" unicode="W" horiz-adv-x="423" 
d="M399 762h92l-247 -762h-78l55 431l-21 -82l-105 -349h-78l74 762h93l-50 -425l23 82l101 343h67l-56 -425l24 82z" />
    <glyph glyph-name="X" unicode="X" horiz-adv-x="289" 
d="M198 381l1 -381h-93l8 194l9 87l-28 -87l-74 -194h-92l161 382l-1 380h93l-7 -192l-10 -93l29 93l73 192h93z" />
    <glyph glyph-name="Y" unicode="Y" horiz-adv-x="294" 
d="M275 762h88l-179 -402l-76 -360h-82l76 361l-11 401h89l-3 -189l-4 -72l25 72z" />
    <glyph glyph-name="Z" unicode="Z" horiz-adv-x="266" 
d="M98 762h236l-271 -668h126l-19 -94h-239l273 668h-125z" />
    <glyph glyph-name="bracketleft" unicode="[" horiz-adv-x="203" 
d="M110 19l-21 -95h-154l178 838h155l-21 -95h-62l-137 -648h62z" />
    <glyph glyph-name="backslash" unicode="\" horiz-adv-x="359" 
d="M184 762l91 -762h-93l-92 762h94z" />
    <glyph glyph-name="bracketright" unicode="]" horiz-adv-x="203" 
d="M268 762l-179 -838h-154l21 95h61l137 648h-62l21 95h155z" />
    <glyph glyph-name="asciicircum" unicode="^" horiz-adv-x="297" 
d="M162 774l97 -89l-46 -51l-67 62l-93 -62l-27 51z" />
    <glyph glyph-name="underscore" unicode="_" horiz-adv-x="270" 
d="M270 -45l-21 -95h-249l20 95h250z" />
    <glyph glyph-name="grave" unicode="`" horiz-adv-x="303" 
d="M177 762l16 -152h-53l-61 152h98z" />
    <glyph glyph-name="a" unicode="a" 
d="M306 433l-92 -433h-58l-4 19q-40 -32 -79 -32q-47 0 -73 34t-15 88q15 61 46 101q16 20 82 81l49 44q37 34 46 71l5 27q9 38 -24 38q-31 0 -40 -38l-18 -85h-93l18 85q13 63 61 103q43 34 94 34t78 -34q31 -38 17 -103zM147 123l33 154q-7 -16 -22 -32l-39 -45
q-26 -29 -32 -62l-5 -21q-6 -30 26 -30t39 36z" />
    <glyph glyph-name="b" unicode="b" 
d="M286 432l-67 -314q-13 -62 -50 -96t-88 -34q-42 0 -66 31l-13 -19h-57l161 762h93l-43 -203q14 11 37 11q49 0 78 -35q29 -38 15 -103zM126 120l68 319q8 32 -24 32t-40 -32l-68 -319q-6 -33 26 -33t38 33z" />
    <glyph glyph-name="c" unicode="c" 
d="M259 210l-18 -85q-13 -60 -57 -98.5t-97 -38.5q-54 0 -81 38.5t-14 98.5l64 308q14 61 57 99q47 38 98 38q52 0 80 -38.5t15 -98.5l-18 -85h-93l19 87q8 36 -24 36t-40 -36l-67 -313q-8 -35 26 -35q30 0 38 35l19 88h93z" />
    <glyph glyph-name="d" unicode="d" 
d="M356 762l-162 -762h-58l-5 19q-37 -31 -80 -31q-50 0 -72 34.5t-9 95.5l66 314q14 67 59 103q41 35 92 35q24 0 33 -11l43 203h93zM126 120l68 319q8 32 -25 32q-31 0 -39 -32l-68 -319q-6 -33 25 -33q33 0 39 33z" />
    <glyph glyph-name="e" unicode="e" 
d="M258 207l-17 -82q-13 -60 -57 -98.5t-97 -38.5q-54 0 -81 38.5t-14 98.5l64 308q13 60 56.5 98.5t97.5 38.5q53 0 81 -38.5t15 -98.5l-38 -178h-157l-28 -133q-8 -35 26 -35q30 0 38 35l18 85h93zM129 340h64l21 96q8 35 -24 35t-40 -35z" />
    <glyph glyph-name="f" unicode="f" horiz-adv-x="240" 
d="M265 558l-19 -91h-61l-99 -467h-93l98 467h-61l19 91h61l18 84q12 55 52 87.5t92 32.5h36l-19 -92h-27q-34 0 -41 -34l-17 -78h61z" />
    <glyph glyph-name="g" unicode="g" horiz-adv-x="338" 
d="M405 558l-19 -92h-10q-18 0 -32.5 -11.5t-18.5 -29.5l-41 -194q-13 -60 -57.5 -98.5t-97.5 -38.5h-5q-27 0 -33 -27q-6 -29 22 -29h32q58 0 84 -38q24 -33 13 -83q-11 -49 -48 -83q-43 -37 -103 -37h-28q-55 0 -80 36q-28 35 -17 85q10 47 50 82q-25 29 -16 70
q8 41 46 72q-24 36 -12 89l43 202q12 61 57 99q46 38 98 38q58 0 84 -45q30 33 73 33h16zM190 229l44 206q8 36 -23 36q-33 0 -41 -36l-44 -206q-7 -36 26 -36q30 0 38 36zM149 -82q8 32 -26 32h-25q-32 0 -40 -32q-6 -32 26 -32h25q34 0 40 32z" />
    <glyph glyph-name="h" unicode="h" 
d="M286 439l-93 -439h-93l93 438q6 33 -24 33q-34 0 -40 -33l-93 -438h-92l160 762h93l-44 -207q24 15 52 15q51 0 72.5 -34.5t8.5 -96.5z" />
    <glyph glyph-name="i" unicode="i" horiz-adv-x="141" 
d="M193 723l-26 -122h-93l26 122h93zM158 558l-118 -558h-92l117 558h93z" />
    <glyph glyph-name="j" unicode="j" horiz-adv-x="141" 
d="M180 558l-134 -631q-12 -57 -54.5 -94t-93.5 -37h-36l20 93h27q37 0 45 38l133 631h93zM215 723l-26 -122h-93l26 122h93z" />
    <glyph glyph-name="k" unicode="k" horiz-adv-x="290" 
d="M176 334l29 -334h-96l-21 247l-52 -247h-92l160 762h93l-82 -389l116 185h92z" />
    <glyph glyph-name="l" unicode="l" horiz-adv-x="141" 
d="M197 762l-161 -762h-92l160 762h93z" />
    <glyph glyph-name="m" unicode="m" horiz-adv-x="450" 
d="M459 441l-94 -441h-94l93 439q8 32 -23 32q-30 0 -38 -32l-93 -439h-93l93 439q8 32 -23 32q-30 0 -38 -32l-93 -439h-92l118 558h58l4 -19q35 31 79 31q53 0 72 -34q38 34 82 34q51 0 73 -33.5t9 -95.5z" />
    <glyph glyph-name="n" unicode="n" 
d="M306 440l-93 -440h-93l93 438q7 33 -24 33q-33 0 -40 -33l-93 -438h-92l118 558h58l4 -19q38 31 80 31q51 0 73 -34t9 -96z" />
    <glyph glyph-name="o" unicode="o" 
d="M306 433l-65 -308q-13 -60 -57 -98.5t-97 -38.5q-54 0 -81 38.5t-14 98.5l64 308q14 61 57 99q47 38 98 38q52 0 80 -38.5t15 -98.5zM147 122l67 313q8 36 -24 36t-40 -36l-67 -313q-8 -35 26 -35q30 0 38 35z" />
    <glyph glyph-name="p" unicode="p" 
d="M328 440l-67 -314q-14 -67 -59 -103q-40 -34 -92 -34q-23 0 -33 10l-43 -203h-92l161 762h58l5 -19q38 31 80 31q51 0 73 -34t9 -96zM167 119l68 319q6 33 -24 33q-34 0 -40 -33l-68 -319q-8 -32 26 -32q30 0 38 32z" />
    <glyph glyph-name="q" unicode="q" 
d="M353 558l-162 -762h-93l43 203q-11 -10 -37 -10q-50 0 -78 34q-29 38 -15 103l67 314q13 62 50 96t88 34q44 0 66 -31l13 19h58zM167 119l68 319q6 33 -25 33q-33 0 -39 -33l-68 -319q-8 -32 25 -32q31 0 39 32z" />
    <glyph glyph-name="r" unicode="r" 
d="M306 440l-18 -85h-93l18 83q7 33 -24 33q-33 0 -40 -33l-93 -438h-92l118 558h58l4 -19q38 31 80 31q51 0 73 -34t9 -96z" />
    <glyph glyph-name="s" unicode="s" 
d="M239 118q-14 -64 -60 -98q-41 -32 -91 -32q-52 0 -81 32q-30 38 -17 96l14 71h93l-13 -62q-9 -39 24 -39q31 0 40 38q3 21 -17 64l-56 128q-29 70 -18 122q13 64 61 100q41 32 91 32q52 0 80 -34q32 -38 18 -101l-14 -63h-93l14 64q8 39 -25 39t-40 -39q-4 -22 17 -69
l57 -130q28 -66 16 -119z" />
    <glyph glyph-name="t" unicode="t" horiz-adv-x="227" 
d="M152 91l-19 -91h-44q-101 0 -79 117l75 350h-55l19 91h55l43 204h93l-43 -204h54l-19 -91h-54l-73 -341q-8 -35 27 -35h20z" />
    <glyph glyph-name="u" unicode="u" 
d="M334 558l-119 -558h-58l-4 19q-37 -31 -80 -31q-51 0 -72.5 34t-8.5 96l92 440h93l-93 -438q-8 -33 25 -33q31 0 39 33l93 438h93z" />
    <glyph glyph-name="v" unicode="v" horiz-adv-x="273" 
d="M231 558h92l-204 -558h-85l35 558h91l-39 -350l25 81z" />
    <glyph glyph-name="w" unicode="w" horiz-adv-x="419" 
d="M378 558h91l-206 -558h-78l30 303l-22 -70l-79 -233h-78l33 558h90l-31 -342l24 79l81 263h71l-41 -342l26 79z" />
    <glyph glyph-name="x" unicode="x" horiz-adv-x="285" 
d="M191 292l28 -292h-93l-7 126l-1 53l-23 -53l-63 -126h-85l145 269l-24 289h93l6 -111l1 -51l22 51l57 111h86z" />
    <glyph glyph-name="y" unicode="y" horiz-adv-x="273" 
d="M252 558h92l-230 -635q-22 -55 -62.5 -91t-85.5 -36h-34l19 92h30q32 0 45 37l30 85l34 548h91l-38 -350l24 81z" />
    <glyph glyph-name="z" unicode="z" horiz-adv-x="267" 
d="M77 558h237l-228 -467h125l-20 -91h-239l230 467h-125z" />
    <glyph glyph-name="braceleft" unicode="{" horiz-adv-x="212" 
d="M119 13l-21 -99q-59 0 -86 40t-13 104l38 184q11 53 -31 53h-9l18 89h10q18 0 33 14.5t21 39.5l40 191q14 64 58.5 103.5t103.5 39.5l-21 -99q-15 0 -29 -12t-18 -31l-44 -207q-12 -56 -63 -77q18 -9 26.5 -31.5t3.5 -46.5l-46 -212q-4 -20 4.5 -31.5t24.5 -11.5z" />
    <glyph glyph-name="bar" unicode="|" horiz-adv-x="141" 
d="M218 762l-203 -952h-92l202 952h93z" />
    <glyph glyph-name="braceright" unicode="}" horiz-adv-x="212" 
d="M214 384l-19 -89h-11q-42 0 -53 -53l-39 -184q-14 -64 -58 -104t-103 -40l21 99q16 0 29.5 12t17.5 31l45 212q5 24 23.5 46.5t39.5 31.5q-42 21 -30 77l44 207q4 20 -4.5 31.5t-24.5 11.5l21 99q59 0 86.5 -39.5t13.5 -103.5l-40 -191q-6 -25 3 -39.5t27 -14.5h11z" />
    <glyph glyph-name="asciitilde" unicode="~" horiz-adv-x="292" 
d="M237 411l53 -59l-32 -30q-44 -39 -83 -39q-23 0 -46 18q-20 19 -26 19q-10 0 -20 -8l-27 -25l-55 59l33 31q42 39 83 39q23 0 45 -19q21 -18 28 -18q8 0 18 8z" />
    <glyph glyph-name="nbspace" unicode="&#xa0;" horiz-adv-x="141" 
 />
    <glyph glyph-name="exclamdown" unicode="&#xa1;" horiz-adv-x="160" 
d="M203 762l-35 -168h-87l35 168h87zM144 558l-88 -558h-113l146 558h55z" />
    <glyph glyph-name="cent" unicode="&#xa2;" 
d="M254 290l-18 -86q-10 -47 -39 -80.5t-69 -48.5l-15 -75h-93l16 76q-70 33 -49 128l74 354q21 94 104 127l16 77h93l-15 -75q32 -15 47 -47q15 -36 5 -82l-18 -86h-93l19 88q7 36 -24 36q-33 0 -40 -36l-77 -359q-8 -35 26 -35q30 0 38 35l19 89h93z" />
    <glyph glyph-name="sterling" unicode="&#xa3;" 
d="M211 94l-20 -94h-249l20 94h50l28 248h-26l19 92h17l12 104q8 70 16 105q14 62 61 99q41 32 92 32q50 0 78 -34q31 -39 18 -103l-23 -107h-93l22 105q9 37 -24 37q-32 0 -41 -44q-8 -35 -14 -98l-12 -96h73l-19 -92h-63l-28 -248h106z" />
    <glyph glyph-name="currency" unicode="&#xa4;" 
d="M241 227l-22 -102q-13 -60 -57 -98.5t-97 -38.5t-80.5 38.5t-14.5 98.5l25 118h-24l21 96h23l18 86h-24l20 96h24l25 116q14 61 57 99q46 38 98 38t80 -38.5t15 -98.5l-22 -102h-93l22 104q7 36 -23 36q-34 0 -41 -36l-25 -118h45l-20 -96h-45l-18 -86h45l-21 -96h-45
l-26 -121q-6 -35 26 -35t38 35l23 105h93z" />
    <glyph glyph-name="yen" unicode="&#xa5;" horiz-adv-x="294" 
d="M275 762h88l-150 -335h67l-20 -97h-82l-18 -85h82l-21 -96h-82l-31 -149h-82l31 149h-82l21 96h82l18 85h-83l20 97h67l-9 335h89l-3 -189l-4 -72l25 72z" />
    <glyph glyph-name="section" unicode="&#xa7;" 
d="M211 60q-12 -62 -59 -98q-43 -32 -92 -32q-52 0 -79 32q-31 36 -19 96l15 71h92l-13 -62q-9 -39 25 -39q30 0 39 38q3 19 -17 64l-55 128q-30 67 -19 122q18 81 85 115l-11 25q-29 70 -18 122q13 64 60 100q43 32 92 32q52 0 80 -34q30 -36 18 -101l-14 -63h-93l14 64
q7 39 -25 39q-33 0 -40 -39q-4 -21 17 -70l56 -129q29 -65 17 -119q-17 -80 -85 -114l13 -29q28 -62 16 -119zM175 328q4 18 -7 45l-19 42q-22 -6 -28 -37q-4 -19 5 -41l19 -47q24 8 30 38z" />
    <glyph glyph-name="dieresis" unicode="&#xa8;" horiz-adv-x="292" 
d="M264 762l-23 -112h-68l23 112h68zM120 762l-23 -112h-68l23 112h68z" />
    <glyph glyph-name="copyright" unicode="&#xa9;" horiz-adv-x="455" 
d="M475 589l-89 -418q-16 -79 -87 -133q-69 -51 -155 -51q-87 0 -135 51q-46 51 -29 133l88 418q16 81 86 132q68 52 157 52q85 0 133 -52q48 -51 31 -132zM293 171l89 418q9 45 -18 70q-26 21 -73 21q-48 0 -81 -21q-40 -25 -49 -70l-89 -418q-9 -45 19 -69q25 -22 73 -22
t84 24t45 67zM298 362l-21 -99q-7 -33 -34 -55.5t-57 -22.5q-31 0 -47.5 22.5t-9.5 55.5l50 237q7 33 34 55.5t58 22.5q30 0 46.5 -22.5t9.5 -55.5l-21 -99h-66l21 100q1 9 -5 9q-10 0 -11 -9l-51 -240q-2 -8 8 -8q6 0 8 8l22 101h66z" />
    <glyph glyph-name="guillemotleft" unicode="&#xab;" horiz-adv-x="478" 
d="M360 373l83 -104l-83 -69l-137 173l210 174l55 -69zM149 373l82 -104l-82 -69l-138 173l211 174l54 -69z" />
    <glyph glyph-name="registered" unicode="&#xae;" horiz-adv-x="455" 
d="M475 589l-89 -418q-16 -79 -87 -133q-69 -51 -155 -51q-87 0 -135 51q-46 51 -29 133l88 418q16 81 86 132q68 52 157 52q85 0 133 -52q48 -51 31 -132zM293 171l89 418q9 45 -18 70q-26 21 -73 21q-48 0 -81 -21q-40 -25 -49 -70l-89 -418q-9 -45 19 -69q25 -22 73 -22
t84 24t45 67zM291 334l-31 -144h-66l31 143q1 12 -7 12h-5l-33 -155h-68l81 381h81q30 0 44.5 -19.5t7.5 -52.5l-17 -79q-6 -26 -25 -41q13 -17 7 -45zM244 426l15 67q1 13 -6 13h-8l-19 -93h8q7 0 10 13z" />
    <glyph glyph-name="overscore" unicode="&#xaf;" horiz-adv-x="293" 
d="M261 762l-19 -85h-211l19 85h211z" />
    <glyph glyph-name="degree" unicode="&#xb0;" 
d="M274 650q-12 -54 -56 -90q-45 -36 -95 -36q-53 0 -82 36q-29 38 -17 90q10 51 54 87q46 37 98 37t79 -37q30 -36 19 -87zM182 650q6 32 -25 32q-35 0 -41 -32q-7 -34 26 -34t40 34z" />
    <glyph glyph-name="acute" unicode="&#xb4;" horiz-adv-x="247" 
d="M164 762h99l-129 -152h-52z" />
    <glyph glyph-name="paragraph" unicode="&#xb6;" horiz-adv-x="466" 
d="M543 762l-203 -952h-72l188 881h-97l-188 -881h-70l124 580q-89 0 -132 58q-42 52 -25 127q16 76 82 130q71 57 166 57h227z" />
    <glyph glyph-name="middot" unicode="&#xb7;" horiz-adv-x="141" 
d="M134 465l-35 -168h-93l35 168h93z" />
    <glyph glyph-name="cedilla" unicode="&#xb8;" horiz-adv-x="292" 
d="M136 -8h55l-78 -152h-97z" />
    <glyph glyph-name="guillemotright" unicode="&#xbb;" horiz-adv-x="478" 
d="M328 547l137 -174l-210 -173l-54 69l127 104l-82 105zM117 547l136 -174l-209 -173l-54 69l126 104l-82 105z" />
    <glyph glyph-name="questiondown" unicode="&#xbf;" 
d="M298 762l-36 -168h-87l36 168h87zM243 232l-23 -107q-14 -65 -62 -103q-40 -34 -92 -34q-50 0 -77 32q-33 37 -19 99q9 43 40 114l152 325h94l-151 -324q-32 -69 -40 -100q-9 -44 23 -44q31 0 40 37l22 105h93z" />
    <glyph glyph-name="Agrave" unicode="&#xc0;" horiz-adv-x="308" 
d="M255 944l20 -134h-53l-65 134h98zM274 762l-76 -762h-92l15 135h-81l-40 -135h-91l248 762h117zM69 230h65l41 348l-23 -78z" />
    <glyph glyph-name="Aacute" unicode="&#xc1;" horiz-adv-x="308" 
d="M242 944h99l-124 -134h-53zM274 762l-76 -762h-92l15 135h-81l-40 -135h-91l248 762h117zM69 230h65l41 348l-23 -78z" />
    <glyph glyph-name="Acircumflex" unicode="&#xc2;" horiz-adv-x="308" 
d="M251 909l88 -81l-42 -46l-61 56l-84 -56l-23 46zM278 762l-76 -762h-92l15 135h-81l-41 -135h-90l248 762h117zM73 230h65l41 348l-23 -78z" />
    <glyph glyph-name="Atilde" unicode="&#xc3;" horiz-adv-x="308" 
d="M328 878l29 -32l-22 -21q-30 -27 -56 -27q-20 0 -42 16q-19 16 -28 16q-10 0 -19 -10l-18 -15l-31 32l23 21q30 27 57 27q20 0 40 -16t30 -16q8 0 19 10zM280 762l-76 -762h-92l15 135h-81l-41 -135h-90l248 762h117zM75 230h65l41 348l-22 -78z" />
    <glyph glyph-name="Adieresis" unicode="&#xc4;" horiz-adv-x="308" 
d="M358 922l-23 -112h-68l23 112h68zM214 922l-23 -112h-68l23 112h68zM276 762l-75 -762h-92l14 135h-81l-40 -135h-90l247 762h117zM71 230h65l41 348l-22 -78z" />
    <glyph glyph-name="Aring" unicode="&#xc5;" horiz-adv-x="308" 
d="M331 908q-8 -37 -39.5 -63t-68.5 -26t-58 26t-13 63q8 36 39.5 62t68.5 26q36 0 57 -26t14 -62zM290 908q4 20 -7 34t-31 14t-37.5 -14t-21.5 -34q-4 -21 7 -35t31 -14t37.5 14t21.5 35zM269 762l-76 -762h-92l14 135h-81l-39 -135h-91l248 762h117zM64 230h65l41 348
l-23 -78z" />
    <glyph glyph-name="AE" unicode="&#xc6;" horiz-adv-x="417" 
d="M338 94l-19 -94h-220l28 135h-63l-45 -135h-90l266 762h285l-19 -94h-127l-50 -234h88l-20 -92h-88l-53 -248h127zM93 230h54l94 440l-46 -141z" />
    <glyph glyph-name="Ccedilla" unicode="&#xc7;" 
d="M53 -8h55l-78 -152h-96zM275 312l-40 -187q-13 -60 -57 -98.5t-97 -38.5q-54 0 -81 38.5t-14 98.5l108 512q12 61 57 99q46 38 98 38t80 -38.5t15 -98.5l-40 -187h-93l40 189q7 36 -23 36q-34 0 -41 -36l-110 -517q-8 -35 26 -35q30 0 38 35l41 190h93z" />
    <glyph glyph-name="Egrave" unicode="&#xc8;" horiz-adv-x="261" 
d="M236 934l22 -124h-53l-67 124h98zM164 94l-20 -94h-219l161 762h220l-20 -94h-127l-50 -234h88l-19 -92h-88l-53 -248h127z" />
    <glyph glyph-name="Eacute" unicode="&#xc9;" horiz-adv-x="261" 
d="M218 934h99l-122 -124h-53zM164 94l-20 -94h-219l161 762h220l-20 -94h-127l-50 -234h88l-19 -92h-88l-53 -248h127z" />
    <glyph glyph-name="Ecircumflex" unicode="&#xca;" horiz-adv-x="261" 
d="M230 919l88 -81l-42 -46l-61 57l-84 -57l-22 46zM166 94l-20 -94h-219l161 762h220l-20 -94h-127l-50 -234h88l-19 -92h-88l-53 -248h127z" />
    <glyph glyph-name="Edieresis" unicode="&#xcb;" horiz-adv-x="261" 
d="M165 94l-19 -94h-219l160 762h220l-20 -94h-127l-49 -234h88l-20 -92h-88l-53 -248h127zM337 922l-23 -112h-68l23 112h68zM193 922l-23 -112h-68l23 112h68z" />
    <glyph glyph-name="Igrave" unicode="&#xcc;" horiz-adv-x="141" 
d="M178 762l-162 -762h-92l161 762h93zM184 944l19 -134h-52l-65 134h98z" />
    <glyph glyph-name="Iacute" unicode="&#xcd;" horiz-adv-x="141" 
d="M178 762l-162 -762h-92l161 762h93zM170 944h100l-125 -134h-52z" />
    <glyph glyph-name="Icircumflex" unicode="&#xce;" horiz-adv-x="141" 
d="M181 762l-162 -762h-92l161 762h93zM167 919l88 -81l-42 -46l-61 57l-84 -57l-22 46z" />
    <glyph glyph-name="Idieresis" unicode="&#xcf;" horiz-adv-x="141" 
d="M180 762l-161 -762h-92l160 762h93zM274 922l-23 -112h-68l23 112h68zM129 922l-23 -112h-67l23 112h67z" />
    <glyph glyph-name="Eth" unicode="&#xd0;" horiz-adv-x="305" 
d="M333 630l-105 -498q-13 -57 -56 -94.5t-94 -37.5h-128l66 319l-27 -9l20 97l28 9l73 346h129q52 0 79.5 -38t14.5 -94zM135 136l105 490q9 42 -27 42h-28l-46 -216l29 10l-21 -97l-29 -10l-56 -261h28q36 0 45 42z" />
    <glyph glyph-name="Ntilde" unicode="&#xd1;" 
d="M312 888l29 -33l-22 -21q-32 -26 -56 -26q-19 0 -42 15q-19 16 -28 16t-20 -9l-17 -16l-30 33l22 21q31 26 57 26q20 0 40 -16q21 -15 30 -15t19 9zM340 762l-162 -762h-79l6 432l-13 -66l-78 -366h-85l161 762h88l-4 -387l12 67l68 320h86z" />
    <glyph glyph-name="Ograve" unicode="&#xd2;" 
d="M257 944l21 -134h-53l-66 134h98zM310 637l-109 -512q-13 -60 -57 -98.5t-97 -38.5t-80.5 38.5t-14.5 98.5l108 512q14 61 57 99q46 38 98 38t80 -38.5t15 -98.5zM107 122l110 517q8 36 -23 36q-34 0 -41 -36l-110 -517q-8 -35 26 -35q30 0 38 35z" />
    <glyph glyph-name="Oacute" unicode="&#xd3;" 
d="M249 944h99l-124 -134h-52zM310 637l-109 -512q-13 -60 -57 -98.5t-97 -38.5t-80.5 38.5t-14.5 98.5l108 512q14 61 57 99q46 38 98 38t80 -38.5t15 -98.5zM107 122l110 517q8 36 -23 36q-34 0 -41 -36l-110 -517q-8 -35 26 -35q30 0 38 35z" />
    <glyph glyph-name="Ocircumflex" unicode="&#xd4;" 
d="M247 909l87 -81l-42 -46l-60 56l-85 -56l-22 46zM314 637l-109 -512q-13 -60 -57 -98.5t-97 -38.5t-80.5 38.5t-14.5 98.5l108 512q12 61 57 99q46 38 98 38t80 -38.5t15 -98.5zM111 122l110 517q7 36 -23 36q-34 0 -41 -36l-110 -517q-8 -35 26 -35q30 0 38 35z" />
    <glyph glyph-name="Otilde" unicode="&#xd5;" 
d="M320 878l30 -32l-23 -21q-31 -27 -57 -27q-21 0 -40 16q-20 16 -30 16q-8 0 -19 -10l-17 -15l-30 32l22 21q29 27 56 27q21 0 40 -16q22 -16 30 -16q10 0 19 10zM316 637l-109 -512q-13 -60 -57 -98.5t-97 -38.5t-80.5 38.5t-14.5 98.5l108 512q14 61 57 99q46 38 98 38
t80 -38.5t15 -98.5zM114 122l110 517q8 36 -24 36t-40 -36l-110 -517q-8 -35 25 -35q31 0 39 35z" />
    <glyph glyph-name="Odieresis" unicode="&#xd6;" 
d="M355 922l-24 -112h-68l24 112h68zM211 922l-24 -112h-68l24 112h68zM312 637l-109 -512q-13 -60 -57 -98.5t-97 -38.5t-80.5 38.5t-14.5 98.5l108 512q14 61 57 99q47 38 98 38q52 0 80 -38.5t15 -98.5zM110 122l110 517q8 36 -24 36t-40 -36l-110 -517q-8 -35 25 -35
q31 0 39 35z" />
    <glyph glyph-name="multiply" unicode="&#xd7;" horiz-adv-x="371" 
d="M253 373l83 -104l-83 -69l-82 105l-127 -105l-54 69l126 104l-82 105l83 69l83 -105l126 105l55 -69z" />
    <glyph glyph-name="Oslash" unicode="&#xd8;" 
d="M324 762h44l-37 -71q3 -23 -3 -54l-109 -512q-13 -60 -57 -98.5t-97 -38.5q-54 0 -79 37l-12 -25h-44l37 71q-3 23 3 54l108 512q14 61 57 99q46 38 98 38q49 0 78 -36zM109 345l110 216l16 78q7 36 -23 36q-34 0 -41 -36zM125 122l64 299l-110 -215l-18 -84
q-6 -35 26 -35t38 35z" />
    <glyph glyph-name="Ugrave" unicode="&#xd9;" 
d="M336 762l-135 -637q-13 -60 -57 -98.5t-97 -38.5t-80.5 38.5t-14.5 98.5l134 637h93l-136 -640q-8 -35 26 -35q30 0 38 35l136 640h93zM248 944l20 -134h-52l-66 134h98z" />
    <glyph glyph-name="Uacute" unicode="&#xda;" 
d="M241 944h99l-123 -134h-53zM336 762l-135 -637q-13 -60 -57 -98.5t-97 -38.5t-80.5 38.5t-14.5 98.5l134 637h93l-136 -640q-8 -35 26 -35q30 0 38 35l136 640h93z" />
    <glyph glyph-name="Ucircumflex" unicode="&#xdb;" 
d="M248 918l87 -81l-42 -46l-60 57l-85 -57l-22 46zM339 762l-135 -637q-13 -60 -57 -98.5t-97 -38.5t-80.5 38.5t-14.5 98.5l134 637h93l-136 -640q-8 -35 26 -35q30 0 38 35l136 640h93z" />
    <glyph glyph-name="Udieresis" unicode="&#xdc;" 
d="M355 922l-24 -112h-68l24 112h68zM211 922l-24 -112h-68l24 112h68zM339 762l-136 -637q-13 -60 -57 -98.5t-97 -38.5t-80.5 38.5t-14.5 98.5l135 637h93l-136 -640q-8 -35 25 -35q31 0 39 35l136 640h93z" />
    <glyph glyph-name="Yacute" unicode="&#xdd;" horiz-adv-x="294" 
d="M256 762h88l-179 -402l-77 -360h-82l77 361l-11 401h89l-3 -189l-4 -72l25 72zM234 944h99l-124 -134h-52z" />
    <glyph glyph-name="Thorn" unicode="&#xde;" 
d="M285 435l-23 -110q-13 -59 -50 -93t-84 -34h-50l-42 -198h-92l160 762h93l-42 -199h50q47 0 69.5 -34.5t10.5 -93.5zM170 332l20 94q9 43 -27 43h-28l-38 -179h28q15 0 28 12t17 30z" />
    <glyph glyph-name="germandbls" unicode="&#xdf;" horiz-adv-x="505" 
d="M425 118q-14 -64 -60 -98q-43 -32 -93 -32q-52 0 -79 32q-32 35 -20 96l15 71h94l-13 -62q-7 -39 24 -39q32 0 40 38q3 19 -17 64l-56 128q-30 68 -18 122l43 202q6 35 -24 35q-33 0 -39 -35l-136 -640h-93l98 467h-61l19 91h61l17 79q13 60 57 98.5t97 38.5t81.5 -38.5
t15.5 -98.5l-43 -201q-5 -23 16 -69l57 -130q28 -63 17 -119z" />
    <glyph glyph-name="agrave" unicode="&#xe0;" 
d="M245 743l20 -133h-52l-66 133h98zM288 433l-92 -433h-58l-4 19q-41 -32 -80 -32q-46 0 -72 34.5t-15 87.5q12 59 46 101q16 20 82 81l48 44q38 34 46 71l6 27q8 38 -24 38t-40 -38l-18 -85h-93l18 85q13 64 61 103q43 34 94 34t78 -34q30 -39 17 -103zM129 123l33 154
q-7 -16 -22 -32l-40 -45q-24 -27 -32 -62l-4 -21q-6 -30 25 -30q33 0 40 36z" />
    <glyph glyph-name="aacute" unicode="&#xe1;" 
d="M231 743h99l-123 -133h-52zM288 433l-92 -433h-58l-4 19q-41 -32 -80 -32q-46 0 -72 34.5t-15 87.5q12 59 46 101q16 20 82 81l48 44q38 34 46 71l6 27q8 38 -24 38t-40 -38l-18 -85h-93l18 85q13 64 61 103q43 34 94 34t78 -34q30 -39 17 -103zM129 123l33 154
q-7 -16 -22 -32l-40 -45q-24 -27 -32 -62l-4 -21q-6 -30 25 -30q33 0 40 36z" />
    <glyph glyph-name="acircumflex" unicode="&#xe2;" 
d="M226 710l87 -80l-41 -46l-61 56l-84 -56l-23 46zM291 433l-92 -433h-58l-4 19q-40 -32 -79 -32q-46 0 -72.5 34.5t-14.5 87.5q12 58 45 101q16 20 82 81l49 44q38 34 46 71l5 27q9 38 -23 38t-41 -38l-18 -85h-93l18 85q15 64 61 103q43 34 95 34q50 0 77 -34
q32 -39 17 -103zM133 123l32 154q-6 -15 -21 -32l-40 -45q-26 -29 -32 -62l-5 -21q-6 -30 26 -30q31 0 40 36z" />
    <glyph glyph-name="atilde" unicode="&#xe3;" 
d="M303 677l30 -32l-22 -21q-31 -27 -57 -27q-20 0 -42 16q-19 16 -28 16q-10 0 -19 -10l-18 -15l-31 32l23 21q30 27 57 27q21 0 40 -16q20 -16 30 -16q9 0 19 10zM294 433l-92 -433h-58l-4 19q-40 -32 -80 -32q-46 0 -72 34.5t-15 87.5q12 56 46 101q16 20 82 81l48 44
q38 34 46 71l6 27q9 38 -24 38q-31 0 -40 -38l-18 -85h-93l18 85q13 63 61 103q43 34 94 34t78 -34q31 -38 17 -103zM135 123l33 154q-7 -16 -22 -32l-39 -45q-26 -29 -32 -62l-5 -21q-6 -30 26 -30t39 36z" />
    <glyph glyph-name="adieresis" unicode="&#xe4;" 
d="M337 762l-24 -112h-68l24 112h68zM193 762l-24 -112h-68l24 112h68zM286 433l-92 -433h-58l-4 19q-41 -32 -80 -32q-46 0 -72 34.5t-15 87.5q12 59 46 101q16 20 82 81l48 44q38 34 46 71l6 27q8 38 -24 38t-40 -38l-18 -85h-93l18 85q13 64 61 103q43 34 94 34t78 -34
q30 -39 17 -103zM127 123l33 154q-7 -16 -22 -32l-40 -45q-24 -27 -32 -62l-4 -21q-6 -30 25 -30q33 0 40 36z" />
    <glyph glyph-name="aring" unicode="&#xe5;" 
d="M308 726q-8 -37 -39.5 -63t-68.5 -26t-58 26t-13 63q8 36 39.5 62t68.5 26q36 0 57 -26t14 -62zM267 726q4 20 -7 34t-31 14t-37.5 -14t-21.5 -34q-4 -21 7 -35t31 -14t37.5 14t21.5 35zM280 433l-92 -433h-58l-4 19q-40 -32 -79 -32q-46 0 -72.5 34.5t-14.5 87.5
q12 58 45 101q16 20 82 81l49 44q39 36 46 71l5 27q9 38 -24 38q-31 0 -40 -38l-18 -85h-93l18 85q15 64 61 103q43 34 95 34q50 0 77 -34q32 -39 17 -103zM122 123l32 154q-7 -16 -22 -32l-39 -45q-26 -29 -32 -62l-5 -21q-6 -30 26 -30q31 0 40 36z" />
    <glyph glyph-name="ae" unicode="&#xe6;" horiz-adv-x="455" 
d="M415 207l-17 -82q-13 -60 -57 -98.5t-97 -38.5q-56 0 -82 42q-43 -43 -89 -43q-47 0 -73 34t-15 88q15 61 46 101q16 20 82 81l49 44q37 34 46 71l5 27q9 38 -24 38q-31 0 -40 -38l-18 -85h-93l18 85q13 63 61 103q43 34 94 34q45 0 72 -32q38 32 84 32q53 0 81 -38.5
t15 -98.5l-37 -178h-157l-29 -133q-8 -35 26 -35q30 0 38 35l18 85h93zM287 340h64l20 96q8 35 -24 35t-40 -35zM147 123l33 154q-7 -16 -22 -32l-39 -45q-26 -29 -32 -62l-5 -21q-6 -30 26 -30t39 36z" />
    <glyph glyph-name="ccedilla" unicode="&#xe7;" 
d="M74 -8h55l-77 -152h-96zM275 210l-19 -85q-13 -60 -57 -98.5t-97 -38.5q-54 0 -81 38.5t-15 98.5l66 308q14 61 57 99q46 38 98 38t80 -38.5t15 -98.5l-18 -85h-93l18 87q7 36 -23 36q-34 0 -41 -36l-66 -313q-8 -35 25 -35q31 0 39 35l19 88h93z" />
    <glyph glyph-name="egrave" unicode="&#xe8;" 
d="M241 743l20 -133h-53l-65 133h98zM240 207l-18 -82q-13 -60 -57 -98.5t-97 -38.5t-80.5 38.5t-14.5 98.5l65 308q13 60 56.5 98.5t97.5 38.5q53 0 81 -38.5t15 -98.5l-38 -178h-157l-28 -133q-8 -35 25 -35q31 0 39 35l18 85h93zM111 340h64l20 96q8 35 -23 35
q-33 0 -41 -35z" />
    <glyph glyph-name="eacute" unicode="&#xe9;" 
d="M228 743h99l-125 -133h-52zM240 207l-18 -82q-13 -60 -57 -98.5t-97 -38.5t-80.5 38.5t-14.5 98.5l65 308q13 60 56.5 98.5t97.5 38.5q53 0 81 -38.5t15 -98.5l-38 -178h-157l-28 -133q-8 -35 25 -35q31 0 39 35l18 85h93zM111 340h64l20 96q8 35 -23 35q-33 0 -41 -35z
" />
    <glyph glyph-name="ecircumflex" unicode="&#xea;" 
d="M224 710l87 -80l-42 -46l-60 56l-85 -56l-22 46zM243 207l-17 -82q-13 -60 -57 -98.5t-97 -38.5q-54 0 -81 38.5t-14 98.5l64 308q13 60 56.5 98.5t97.5 38.5q53 0 81 -38.5t15 -98.5l-37 -178h-157l-29 -133q-8 -35 26 -35q30 0 38 35l18 85h93zM115 340h64l20 96
q8 35 -24 35t-40 -35z" />
    <glyph glyph-name="edieresis" unicode="&#xeb;" 
d="M338 762l-24 -112h-68l24 112h68zM194 762l-24 -112h-68l24 112h68zM238 207l-18 -82q-13 -60 -57 -98.5t-97 -38.5t-80.5 38.5t-14.5 98.5l65 308q13 60 56.5 98.5t97.5 38.5q53 0 81 -38.5t15 -98.5l-38 -178h-157l-28 -133q-8 -35 25 -35q31 0 39 35l18 85h93z
M109 340h64l20 96q8 35 -23 35q-33 0 -41 -35z" />
    <glyph glyph-name="igrave" unicode="&#xec;" horiz-adv-x="141" 
d="M149 743l21 -133h-52l-67 133h98zM156 558l-118 -558h-92l117 558h93z" />
    <glyph glyph-name="iacute" unicode="&#xed;" horiz-adv-x="141" 
d="M149 743h99l-123 -133h-52zM156 558l-118 -558h-92l117 558h93z" />
    <glyph glyph-name="icircumflex" unicode="&#xee;" horiz-adv-x="141" 
d="M146 720l88 -81l-42 -46l-61 57l-84 -57l-22 46zM159 558l-119 -558h-92l118 558h93z" />
    <glyph glyph-name="idieresis" unicode="&#xef;" horiz-adv-x="141" 
d="M257 762l-23 -112h-68l23 112h68zM112 762l-23 -112h-67l23 112h67zM154 558l-118 -558h-92l117 558h93z" />
    <glyph glyph-name="eth" unicode="&#xf0;" horiz-adv-x="294" 
d="M271 362l-51 -237q-13 -60 -57 -98.5t-97 -38.5t-80.5 38.5t-14.5 98.5l51 243q12 55 55 95t99 40h3l-5 55l-60 -22l20 97l34 11l-9 118h91l5 -87l63 21l-21 -96l-35 -11l11 -140q4 -58 -2 -87zM127 122l52 248q8 35 -23 35q-33 0 -41 -35l-52 -248q-8 -35 25 -35
q31 0 39 35z" />
    <glyph glyph-name="ntilde" unicode="&#xf1;" 
d="M299 700l33 -36l-25 -23q-35 -30 -63 -30q-22 0 -45 18q-22 18 -32 18t-23 -11l-18 -17l-34 36l25 23q33 30 63 30q22 0 44 -18t33 -18q9 0 22 11zM292 440l-94 -440h-93l93 438q8 33 -24 33t-40 -33l-93 -438h-92l118 558h58l5 -19q37 31 79 31q51 0 73.5 -34t9.5 -96z
" />
    <glyph glyph-name="ograve" unicode="&#xf2;" 
d="M241 743l20 -133h-53l-65 133h98zM288 433l-66 -308q-13 -60 -57 -98.5t-97 -38.5t-80.5 38.5t-14.5 98.5l65 308q14 61 57 99q46 38 98 38t80 -38.5t15 -98.5zM129 122l66 313q7 36 -23 36q-34 0 -41 -36l-66 -313q-8 -35 25 -35q31 0 39 35z" />
    <glyph glyph-name="oacute" unicode="&#xf3;" 
d="M288 433l-66 -308q-13 -60 -57 -98.5t-97 -38.5t-80.5 38.5t-14.5 98.5l65 308q14 61 57 99q46 38 98 38t80 -38.5t15 -98.5zM129 122l66 313q7 36 -23 36q-34 0 -41 -36l-66 -313q-8 -35 25 -35q31 0 39 35zM228 743h99l-125 -133h-52z" />
    <glyph glyph-name="ocircumflex" unicode="&#xf4;" 
d="M226 710l88 -80l-42 -46l-61 56l-84 -56l-22 46zM291 433l-65 -308q-13 -60 -57 -98.5t-97 -38.5q-54 0 -81 38.5t-14 98.5l64 308q13 61 57 99q47 38 98 38q53 0 80.5 -38.5t14.5 -98.5zM132 122l67 313q7 36 -24 36q-33 0 -40 -36l-67 -313q-8 -35 26 -35q30 0 38 35z
" />
    <glyph glyph-name="otilde" unicode="&#xf5;" 
d="M301 687l29 -33l-22 -21q-32 -26 -57 -26q-20 0 -41 15q-19 16 -29 16q-9 0 -19 -9l-18 -16l-30 33l23 21q29 26 55 26q21 0 41 -16q23 -15 30 -15q9 0 19 9zM293 433l-65 -308q-13 -60 -57.5 -98.5t-96.5 -38.5q-54 0 -81 38.5t-14 98.5l64 308q13 61 57 99q47 38 98 38
q52 0 80 -38.5t15 -98.5zM134 122l67 313q7 36 -24 36q-33 0 -40 -36l-67 -313q-8 -35 26 -35q30 0 38 35z" />
    <glyph glyph-name="odieresis" unicode="&#xf6;" 
d="M338 762l-24 -112h-68l24 112h68zM194 762l-24 -112h-68l24 112h68zM286 433l-66 -308q-13 -60 -57 -98.5t-97 -38.5t-80.5 38.5t-14.5 98.5l65 308q14 61 57 99q46 38 98 38t80 -38.5t15 -98.5zM127 122l66 313q7 36 -23 36q-34 0 -41 -36l-66 -313q-8 -35 25 -35
q31 0 39 35z" />
    <glyph glyph-name="divide" unicode="&#xf7;" horiz-adv-x="357" 
d="M266 562l-18 -85h-97l18 85h97zM343 426l-21 -96h-309l21 96h309zM205 279l-18 -85h-97l18 85h97z" />
    <glyph glyph-name="oslash" unicode="&#xf8;" 
d="M302 558h47l-41 -65q5 -28 -2 -60l-65 -308q-13 -60 -57 -98.5t-97 -38.5q-50 0 -78 34l-13 -22h-46l40 65q-5 28 2 60l64 308q14 61 57 99q47 38 98 38q49 0 77 -34zM111 254l98 159l5 22q8 36 -24 36t-40 -36zM147 122l39 182l-98 -159l-5 -23q-8 -35 26 -35
q30 0 38 35z" />
    <glyph glyph-name="ugrave" unicode="&#xf9;" 
d="M240 733l23 -123h-53l-68 123h98zM315 558l-118 -558h-58l-5 19q-37 -31 -80 -31q-50 0 -72 34.5t-9 95.5l92 440h93l-93 -438q-6 -33 25 -33q33 0 39 33l93 438h93z" />
    <glyph glyph-name="uacute" unicode="&#xfa;" 
d="M227 733h99l-122 -123h-52zM315 558l-118 -558h-58l-5 19q-37 -31 -80 -31q-50 0 -72 34.5t-9 95.5l92 440h93l-93 -438q-6 -33 25 -33q33 0 39 33l93 438h93z" />
    <glyph glyph-name="ucircumflex" unicode="&#xfb;" 
d="M225 710l87 -80l-42 -46l-60 56l-85 -56l-22 46zM318 558l-119 -558h-58l-5 19q-35 -31 -79 -31q-50 0 -72.5 34t-9.5 96l93 440h93l-93 -438q-8 -33 25 -33q31 0 39 33l93 438h93z" />
    <glyph glyph-name="udieresis" unicode="&#xfc;" 
d="M338 762l-24 -112h-68l24 112h68zM194 762l-24 -112h-68l24 112h68zM312 558l-118 -558h-58l-5 19q-37 -31 -80 -31q-50 0 -72 34.5t-9 95.5l92 440h93l-93 -438q-6 -33 25 -33q33 0 39 33l93 438h93z" />
    <glyph glyph-name="yacute" unicode="&#xfd;" horiz-adv-x="273" 
d="M234 558h92l-231 -635q-21 -55 -61.5 -91t-86.5 -36h-34l19 92h30q33 0 45 37l30 85l35 548h91l-39 -350l25 81zM213 733h99l-121 -123h-52z" />
    <glyph glyph-name="thorn" unicode="&#xfe;" 
d="M306 432l-65 -306q-14 -65 -59 -103q-41 -34 -92 -34q-24 0 -33 10l-43 -203h-92l204 966h93l-43 -203q16 11 37 11q51 0 78 -35q29 -36 15 -103zM147 120l68 319q6 32 -25 32q-33 0 -39 -32l-68 -319q-7 -33 26 -33q31 0 38 33z" />
    <glyph glyph-name="ydieresis" unicode="&#xff;" horiz-adv-x="273" 
d="M231 558h92l-231 -635q-21 -55 -61.5 -91t-86.5 -36h-34l19 92h30q33 0 45 37l30 85l35 548h91l-39 -350l25 81zM345 762l-24 -112h-68l24 112h68zM201 762l-24 -112h-68l24 112h68z" />
    <glyph glyph-name="Abreve" unicode="&#x102;" horiz-adv-x="310" 
d="M280 762l-76 -762h-92l15 135h-81l-41 -135h-90l248 762h117zM75 230h65l41 348l-23 -78zM295 891h51q-9 -43 -47 -74q-37 -30 -79 -30q-44 0 -69 30q-24 31 -15 74h51q-4 -22 9 -37.5t35 -15.5t40.5 16t23.5 37z" />
    <glyph glyph-name="abreve" unicode="&#x103;" 
d="M200 0l92 433q13 64 -17 103q-28 34 -78 34q-53 0 -94 -34q-48 -39 -61 -103l-18 -85h93l18 85q8 38 40 38t24 -38l-6 -27q-8 -37 -46 -71l-49 -44q-59 -55 -82 -81q-33 -43 -45 -101q-12 -53 14.5 -87.5t72.5 -34.5q39 0 80 32l4 -19h58zM133 123q-7 -36 -40 -36t-25 30
l4 21q8 35 32 62l40 45q17 20 22 32zM282 708h54q-9 -46 -49 -78t-84 -32q-46 0 -72 32t-16 78h54q-5 -24 8 -40t37 -16q23 0 43.5 16.5t24.5 39.5z" />
    <glyph glyph-name="Dslash" unicode="&#x110;" horiz-adv-x="305" 
d="M333 630l-105 -498q-13 -57 -56 -94.5t-94 -37.5h-128l70 336h-25l20 97h26l69 329h129q52 0 79.5 -38t14.5 -94zM135 136l105 490q9 42 -27 42h-28l-50 -235h27l-21 -97h-27l-52 -242h28q36 0 45 42z" />
    <glyph glyph-name="dslash" unicode="&#x111;" horiz-adv-x="300" 
d="M363 696l-20 -91h-21l-128 -605h-58l-5 19q-37 -31 -80 -31q-50 0 -72 34.5t-9 95.5l66 314q14 67 59 103q41 35 92 35q24 0 33 -11l9 46h-118l20 91h118l14 66h93l-14 -66h21zM126 120l68 319q8 32 -25 32q-31 0 -39 -32l-68 -319q-6 -33 25 -33q33 0 39 33z" />
    <glyph glyph-name="Itilde" unicode="&#x128;" horiz-adv-x="145" 
d="M184 762l-162 -762h-92l161 762h93zM243 887l29 -33l-22 -21q-32 -26 -57 -26q-20 0 -41 15q-19 16 -29 16t-19 -9l-18 -16l-31 33l24 21q28 26 55 26q21 0 41 -16q23 -15 30 -15q9 0 19 9z" />
    <glyph glyph-name="itilde" unicode="&#x129;" horiz-adv-x="143" 
d="M162 558l-118 -558h-92l117 558h93zM221 679l29 -32l-22 -21q-32 -27 -57 -27q-20 0 -41 15q-20 16 -29 16q-10 0 -19 -9l-18 -15l-31 32l24 21q27 27 55 27q21 0 41 -16q22 -16 30 -16q9 0 19 10z" />
    <glyph glyph-name="dotlessi" unicode="&#x131;" horiz-adv-x="141" 
d="M176 558l-119 -558h-92l118 558h93z" />
    <glyph glyph-name="Lslash" unicode="&#x141;" horiz-adv-x="255" 
d="M181 94l-19 -94h-212l66 319l-27 -9l20 97l28 9l73 346h94l-65 -310l29 10l-21 -97l-29 -10l-56 -261h119z" />
    <glyph glyph-name="lslash" unicode="&#x142;" horiz-adv-x="155" 
d="M168 462l-21 -97l-29 -10l-75 -355h-93l66 319l-27 -9l20 97l28 9l73 346h94l-65 -310z" />
    <glyph glyph-name="OE" unicode="&#x152;" horiz-adv-x="418" 
d="M339 94l-19 -94h-252q-53 0 -81 38.5t-15 97.5l104 494q13 59 56.5 95.5t97.5 36.5h251l-19 -94h-127l-50 -234h88l-20 -92h-88l-53 -248h127zM88 94h31l123 574h-31q-34 0 -41 -37l-107 -501q-7 -36 25 -36z" />
    <glyph glyph-name="oe" unicode="&#x153;" horiz-adv-x="455" 
d="M415 207l-17 -82q-13 -60 -57 -98.5t-97 -38.5q-48 0 -72 32q-40 -32 -85 -32q-54 0 -81 38.5t-14 98.5l64 308q14 61 57 99q47 38 98 38q46 0 72 -32q35 32 84 32q53 0 81 -38.5t15 -98.5l-38 -178h-157l-28 -133q-8 -35 26 -35q30 0 38 35l18 85h93zM286 340h64l21 96
q8 35 -24 35t-40 -35zM147 122l67 313q8 36 -24 36t-40 -36l-67 -313q-8 -35 26 -35q30 0 38 35z" />
    <glyph glyph-name="Scaron" unicode="&#x160;" 
d="M312 637l-23 -107h-93l22 105q8 38 -24 38q-33 0 -42 -42q-10 -49 3 -107l49 -247q15 -73 0 -141q-15 -71 -62 -112q-42 -36 -92 -36q-51 0 -79 34q-31 38 -17 103l22 107h92l-22 -105q-8 -38 25 -38q32 0 41 41q10 46 -4 110l-50 247q-14 66 1 139q15 71 62 112
q42 36 94 36q51 0 78 -34q33 -38 19 -103zM322 928l23 -46l-123 -81l-86 81l41 46l60 -57z" />
    <glyph glyph-name="scaron" unicode="&#x161;" 
d="M222 118q-14 -64 -60 -98q-41 -32 -91 -32q-53 0 -80 32q-31 37 -18 96l15 71h92l-13 -62q-9 -39 24 -39q31 0 40 38q3 21 -17 64l-56 128q-29 70 -18 122q13 64 61 100q41 32 91 32q52 0 80 -34q32 -38 18 -101l-14 -63h-93l14 64q7 39 -25 39t-40 -39q-4 -22 17 -69
l57 -130q28 -66 16 -119zM298 730l23 -46l-122 -81l-87 81l41 46l61 -57z" />
    <glyph glyph-name="Utilde" unicode="&#x168;" horiz-adv-x="300" 
d="M342 762l-136 -637q-13 -60 -57 -98.5t-97 -38.5t-80.5 38.5t-14.5 98.5l135 637h93l-136 -640q-8 -35 25 -35q31 0 39 35l136 640h93zM313 887l29 -33l-22 -21q-32 -26 -56 -26q-20 0 -41 15q-20 16 -29 16q-10 0 -20 -9l-17 -16l-30 33l22 21q31 26 57 26q21 0 40 -16
q21 -15 30 -15q8 0 19 9z" />
    <glyph glyph-name="utilde" unicode="&#x169;" 
d="M320 558l-119 -558h-58l-5 19q-35 -31 -79 -31q-50 0 -72.5 34t-9.5 96l93 440h93l-93 -438q-8 -33 25 -33q31 0 39 33l93 438h93zM287 686l29 -33l-22 -21q-31 -26 -56 -26q-20 0 -42 15q-19 16 -28 16q-10 0 -19 -9l-19 -16l-30 33l23 21q29 26 56 26q21 0 41 -16
q21 -15 30 -15q7 0 19 9z" />
    <glyph glyph-name="Ydieresis" unicode="&#x178;" horiz-adv-x="294" 
d="M258 762h88l-179 -402l-76 -360h-82l76 361l-11 401h89l-3 -189l-4 -72l25 72zM350 922l-23 -112h-68l23 112h68zM206 922l-23 -112h-68l23 112h68z" />
    <glyph glyph-name="Zcaron" unicode="&#x17d;" horiz-adv-x="266" 
d="M81 762h236l-271 -668h126l-20 -94h-239l273 668h-125zM307 927l22 -46l-122 -81l-88 81l43 46l60 -57z" />
    <glyph glyph-name="zcaron" unicode="&#x17e;" horiz-adv-x="267" 
d="M58 558h237l-228 -467h125l-20 -91h-239l231 467h-125zM295 736l25 -50l-135 -90l-97 90l47 50l67 -62z" />
    <glyph glyph-name="Ohorn" unicode="&#x1a0;" horiz-adv-x="308" 
d="M410 777l-12 -58q-18 -90 -79 -124l-100 -470q-13 -60 -57 -98.5t-97 -38.5t-80.5 38.5t-14.5 98.5l108 512q12 61 57 99q46 38 98 38q51 0 80 -38q23 -32 17 -83q14 16 17 36l18 88h45zM125 122l110 517q7 36 -23 36q-34 0 -41 -36l-110 -517q-8 -35 26 -35q30 0 38 35z
" />
    <glyph glyph-name="ohorn" unicode="&#x1a1;" horiz-adv-x="300" 
d="M383 570l-10 -49q-16 -85 -74 -120l-58 -276q-13 -60 -57 -98.5t-97 -38.5q-54 0 -81 38.5t-14 98.5l64 308q14 61 57 99q47 38 98 38q53 0 80 -38q23 -29 18 -71q10 12 12 29l17 80h45zM147 122l67 313q8 36 -24 36t-40 -36l-67 -313q-8 -35 26 -35q30 0 38 35z" />
    <glyph glyph-name="Uhorn" unicode="&#x1af;" horiz-adv-x="317" 
d="M418 762l-11 -49q-18 -97 -89 -128l-98 -460q-13 -60 -57 -98.5t-97 -38.5t-80.5 38.5t-14.5 98.5l135 637h93l-136 -640q-8 -35 25 -35q31 0 39 35l136 640h93l-26 -123q21 14 26 44l17 79h45z" />
    <glyph glyph-name="uhorn" unicode="&#x1b0;" horiz-adv-x="312" 
d="M396 558l-10 -48q-20 -98 -90 -129l-81 -381h-58l-4 19q-37 -31 -80 -31q-51 0 -72.5 34t-8.5 96l92 440h93l-93 -438q-8 -33 25 -33q31 0 39 33l93 438h93l-26 -123q21 15 26 44l17 79h45z" />
    <glyph glyph-name="circumflex" unicode="&#x2c6;" horiz-adv-x="292" 
d="M162 774l97 -89l-46 -51l-67 62l-93 -62l-27 51z" />
    <glyph glyph-name="caron" unicode="&#x2c7;" horiz-adv-x="292" 
d="M242 774l26 -50l-135 -90l-98 90l47 50l67 -62z" />
    <glyph glyph-name="breve" unicode="&#x2d8;" horiz-adv-x="294" 
d="M219 755h57q-10 -47 -53 -82q-40 -34 -88 -34q-49 0 -77 34q-27 34 -16 82h58q-5 -25 8.5 -42t38.5 -17q24 0 45.5 17.5t26.5 41.5z" />
    <glyph glyph-name="dotaccent" unicode="&#x2d9;" horiz-adv-x="292" 
d="M192 762l-23 -112h-68l23 112h68z" />
    <glyph glyph-name="ring" unicode="&#x2da;" horiz-adv-x="292" 
d="M236 726q-8 -37 -39.5 -63t-68.5 -26t-58 26t-13 63q8 36 39.5 62t68.5 26q36 0 57 -26t14 -62zM195 726q4 20 -7 34t-31 14t-37.5 -14t-21.5 -34q-4 -21 7 -35t31 -14t37.5 14t21.5 35z" />
    <glyph glyph-name="ogonek" unicode="&#x2db;" horiz-adv-x="293" 
d="M188 -8l53 -152h-96l-13 152h56z" />
    <glyph glyph-name="tilde" unicode="&#x2dc;" horiz-adv-x="292" 
d="M234 767l33 -37l-25 -22q-34 -30 -63 -30q-20 0 -45 17q-24 18 -32 18q-12 0 -22 -10l-19 -17l-33 36l25 23q32 29 62 29q21 0 44 -18q25 -17 33 -17q9 0 23 11z" />
    <glyph glyph-name="hungarumlaut" unicode="&#x2dd;" horiz-adv-x="293" 
d="M210 762h68l-66 -112h-68zM79 762h67l-66 -112h-67z" />
    <glyph glyph-name="uni1EA0" unicode="&#x1ea0;" horiz-adv-x="309" 
d="M310 762l-75 -762h-92l14 135h-81l-40 -135h-90l247 762h117zM105 230h65l41 348l-22 -78zM115 -49l-23 -111h-69l23 111h69z" />
    <glyph glyph-name="uni1EA1" unicode="&#x1ea1;" horiz-adv-x="295" 
d="M306 433l-92 -433h-58l-4 19q-40 -32 -80 -32q-47 0 -72.5 34t-15.5 88q12 59 47 101q16 20 82 81l48 44q38 34 46 71l6 27q8 38 -24 38t-40 -38l-18 -85h-93l18 85q13 64 61 103q43 34 94 34t78 -34q30 -39 17 -103zM147 123l33 154q-7 -16 -22 -32l-40 -45
q-24 -27 -32 -62l-4 -21q-6 -30 25 -30q33 0 40 36zM120 -49l-24 -111h-69l24 111h69z" />
    <glyph glyph-name="uni1EA2" unicode="&#x1ea2;" horiz-adv-x="312" 
d="M271 762l-76 -762h-92l15 135h-81l-40 -135h-91l248 762h117zM66 230h65l41 348l-23 -78zM180 884l5 23q6 30 29 48q22 17 44 17q25 0 38 -16q12 -10 9 -33q2 -13 -4 -29q-5 -17 -28 -43q-24 -27 -27 -55h-48q3 33 25 55q23 23 29 51q3 13 -6 13q-6 0 -8 -9l-5 -22h-53z
" />
    <glyph glyph-name="uni1EA3" unicode="&#x1ea3;" horiz-adv-x="300" 
d="M285 433l-92 -433h-58l-4 19q-41 -32 -80 -32q-46 0 -72.5 34.5t-14.5 87.5q12 58 45 101q23 26 82 81l49 44q38 34 46 71l6 27q8 38 -24 38t-40 -38l-18 -85h-93l18 85q13 64 61 103q41 34 94 34q50 0 78 -34q30 -39 17 -103zM126 123l33 154q-5 -12 -22 -32l-40 -45
q-24 -27 -32 -62l-5 -21q-6 -30 26 -30q33 0 40 36zM151 686l5 23q8 31 30 48q20 17 43 17q24 0 39 -16q9 -10 9 -33q0 -14 -4 -29q-6 -18 -29 -43q-23 -27 -27 -55h-47q0 32 23 55q23 21 29 51q3 13 -5 13q-7 0 -9 -9l-5 -22h-52z" />
    <glyph glyph-name="uni1EA4" unicode="&#x1ea4;" horiz-adv-x="313" 
d="M270 762l-76 -762h-92l14 135h-81l-39 -135h-91l248 762h117zM64 230h65l41 348l-22 -78zM243 909l88 -81l-42 -46l-61 56l-84 -56l-23 46zM324 863l74 124h98l-120 -124h-52z" />
    <glyph glyph-name="uni1EA5" unicode="&#x1ea5;" horiz-adv-x="300" 
d="M285 433l-92 -433h-58l-4 19q-41 -32 -80 -32q-46 0 -72.5 34.5t-14.5 87.5q12 58 45 101q23 26 82 81l49 44q38 34 46 71l6 27q8 38 -24 38t-40 -38l-19 -85h-93l19 85q13 64 60 103q43 34 95 34q50 0 77 -34q31 -39 18 -103zM126 123l32 154q-6 -15 -21 -32l-40 -45
q-24 -27 -32 -62l-5 -21q-6 -30 26 -30q33 0 40 36zM219 707l87 -81l-42 -46l-60 56l-85 -56l-22 46zM289 661l73 114h98l-119 -114h-52z" />
    <glyph glyph-name="uni1EA6" unicode="&#x1ea6;" horiz-adv-x="312" 
d="M270 762l-76 -762h-92l14 135h-81l-39 -135h-91l248 762h117zM64 230h65l41 348l-22 -78zM364 987l23 -124h-53l-68 124h98zM243 909l88 -81l-42 -46l-61 56l-84 -56l-23 46z" />
    <glyph glyph-name="uni1EA7" unicode="&#x1ea7;" horiz-adv-x="300" 
d="M283 433l-92 -433h-58l-4 19q-40 -32 -79 -32q-46 0 -72.5 34.5t-14.5 87.5q12 58 45 101q16 20 82 81l49 44q39 36 46 71l5 27q9 38 -24 38q-31 0 -40 -38l-18 -85h-93l18 85q15 64 61 103q43 34 95 34q50 0 77 -34q32 -39 17 -103zM124 123l33 154q-7 -16 -22 -32
l-39 -45q-26 -29 -32 -62l-5 -21q-6 -30 26 -30q31 0 39 36zM337 786l23 -124h-52l-69 124h98zM218 707l86 -81l-41 -46l-60 56l-85 -56l-23 46z" />
    <glyph glyph-name="uni1EA8" unicode="&#x1ea8;" horiz-adv-x="312" 
d="M263 762l-76 -762h-92l15 135h-81l-40 -135h-91l248 762h117zM58 230h65l41 348l-22 -78zM237 909l87 -81l-41 -46l-62 56l-83 -56l-24 46zM287 957l5 23q6 30 29 49q20 17 44 17q25 0 38 -16q11 -9 9 -34q1 -9 -4 -28q-5 -18 -28 -44q-24 -27 -27 -54h-48q3 33 25 55
q23 23 29 50q2 14 -6 14q-6 0 -9 -10l-4 -22h-53z" />
    <glyph glyph-name="uni1EA9" unicode="&#x1ea9;" horiz-adv-x="300" 
d="M277 433l-92 -433h-58l-4 19q-40 -32 -80 -32q-46 0 -72 34.5t-15 87.5q12 56 46 101q16 20 82 81l48 44q38 34 46 71l6 27q9 38 -24 38q-31 0 -40 -38l-18 -85h-93l18 85q13 63 61 103q43 34 94 34t78 -34q31 -38 17 -103zM118 123l33 154q-7 -16 -22 -32l-39 -45
q-26 -29 -32 -62l-5 -21q-6 -30 26 -30q31 0 39 36zM211 707l87 -81l-42 -46l-60 56l-85 -56l-22 46zM262 755l5 23q6 32 29 49q20 17 44 17t37 -16q10 -9 10 -34q0 -13 -4 -28q-5 -17 -29 -44t-27 -54h-47q2 33 24 55q24 24 28 50q3 14 -5 14q-6 0 -9 -10l-4 -22h-52z" />
    <glyph glyph-name="uni1EAA" unicode="&#x1eaa;" horiz-adv-x="310" 
d="M269 762l-76 -762h-92l14 135h-81l-39 -135h-91l248 762h117zM63 230h65l41 348l-22 -78zM242 909l88 -81l-42 -46l-61 56l-84 -56l-23 46zM369 990l29 -32l-22 -21q-32 -27 -57 -27q-21 0 -41 16q-19 16 -29 16q-9 0 -19 -10l-18 -15l-30 33l23 20q30 27 55 27
q21 0 41 -16q23 -15 30 -15q9 0 20 9z" />
    <glyph glyph-name="uni1EAB" unicode="&#x1eab;" horiz-adv-x="301" 
d="M282 433l-92 -433h-58l-4 19q-40 -32 -79 -32q-46 0 -72.5 34.5t-15.5 87.5q14 59 46 101q16 20 82 81l48 44q38 33 47 71l5 27q9 38 -24 38q-31 0 -40 -38l-18 -85h-93l18 85q13 63 61 103q43 34 94 34t78 -34q31 -38 17 -103zM123 123l33 154q-7 -16 -22 -32l-39 -45
q-26 -29 -32 -62l-5 -21q-6 -30 26 -30t39 36zM217 707l86 -81l-41 -46l-61 56l-84 -56l-23 46zM343 790l29 -33l-22 -21q-32 -26 -56 -26q-20 0 -42 15q-19 16 -28 16q-10 0 -20 -10l-18 -15l-30 33l23 21q31 26 56 26q21 0 41 -16q21 -15 30 -15q8 0 19 9z" />
    <glyph glyph-name="uni1EAC" unicode="&#x1eac;" horiz-adv-x="310" 
d="M295 762l-76 -762h-92l15 135h-81l-41 -135h-90l248 762h117zM90 230h65l41 348l-23 -78zM268 909l88 -81l-42 -46l-61 56l-84 -56l-23 46zM99 -49l-23 -111h-69l23 111h69z" />
    <glyph glyph-name="uni1EAD" unicode="&#x1ead;" horiz-adv-x="300" 
d="M307 433l-92 -433h-58l-4 19q-40 -32 -79 -32q-47 0 -73 34.5t-14 87.5q13 60 45 101q16 20 82 81l49 44q39 36 46 71l5 27q9 38 -24 38q-31 0 -40 -38l-18 -85h-93l18 85q15 64 61 103q43 34 95 34q50 0 77 -34q32 -39 17 -103zM149 123l32 154q-7 -16 -22 -32l-39 -45
q-26 -29 -32 -62l-5 -21q-6 -30 26 -30q31 0 40 36zM242 707l86 -81l-41 -46l-60 56l-85 -56l-23 46zM121 -49l-24 -111h-69l24 111h69z" />
    <glyph glyph-name="uni1EAE" unicode="&#x1eae;" horiz-adv-x="313" 
d="M267 762l-76 -762h-92l15 135h-81l-40 -135h-91l248 762h117zM62 230h65l41 348l-23 -78zM283 891h51q-10 -43 -47 -74q-38 -30 -80 -30q-43 0 -68 30q-25 31 -15 74h51q-5 -22 8 -37.5t35 -15.5t41 16t24 37zM201 886l76 124h98l-122 -124h-52z" />
    <glyph glyph-name="uni1EAF" unicode="&#x1eaf;" horiz-adv-x="300" 
d="M280 433l-92 -433h-58l-4 19q-40 -32 -79 -32q-46 0 -72.5 34.5t-14.5 87.5q12 58 45 101q16 20 82 81l49 44q39 36 46 71l5 27q9 38 -24 38q-31 0 -40 -38l-18 -85h-93l18 85q15 64 61 103q43 34 95 34q50 0 77 -34q32 -39 17 -103zM122 123l32 154q-7 -16 -22 -32
l-39 -45q-26 -29 -32 -62l-5 -21q-6 -30 26 -30q31 0 40 36zM264 698h51q-9 -43 -47 -75q-37 -30 -80 -30q-44 0 -68.5 30.5t-14.5 74.5h51q-5 -23 8 -38t35 -15t41.5 15.5t23.5 37.5zM182 690l75 124h98l-121 -124h-52z" />
    <glyph glyph-name="uni1EB0" unicode="&#x1eb0;" horiz-adv-x="312" 
d="M267 762l-76 -762h-92l15 135h-81l-40 -135h-91l248 762h117zM62 230h65l41 348l-23 -78zM283 891h51q-10 -43 -47 -74q-38 -30 -80 -30q-43 0 -68 30q-25 31 -15 74h51q-5 -22 8 -37.5t35 -15.5t41 16t24 37zM229 1010l21 -124h-52l-67 124h98z" />
    <glyph glyph-name="uni1EB1" unicode="&#x1eb1;" 
d="M280 433l-92 -433h-58l-4 19q-40 -32 -79 -32q-46 0 -72.5 34.5t-14.5 87.5q12 58 45 101q16 20 82 81l49 44q39 36 46 71l5 27q9 38 -24 38q-31 0 -40 -38l-18 -85h-93l18 85q15 64 61 103q43 34 95 34q50 0 77 -34q32 -39 17 -103zM122 123l32 154q-7 -16 -22 -32
l-39 -45q-26 -29 -32 -62l-5 -21q-6 -30 26 -30q31 0 40 36zM264 698h51q-9 -43 -47 -75q-37 -30 -80 -30q-44 0 -68.5 30.5t-14.5 74.5h51q-5 -23 8 -38t35 -15t41.5 15.5t23.5 37.5zM216 814l22 -124h-52l-69 124h99z" />
    <glyph glyph-name="uni1EB2" unicode="&#x1eb2;" horiz-adv-x="310" 
d="M262 762l-76 -762h-92l15 135h-81l-40 -135h-91l248 762h117zM57 230h65l41 348l-23 -78zM277 891h51q-9 -43 -46 -74q-39 -30 -80 -30q-44 0 -68 30q-25 31 -16 74h51q-4 -22 9 -37.5t35 -15.5t40.5 16t23.5 37zM180 971l5 23q8 32 30 49q20 17 43 17q24 0 39 -16
q9 -10 9 -34q0 -13 -4 -28q-6 -17 -29 -44q-22 -25 -27 -54h-47q0 32 23 55q23 21 29 51q3 13 -5 13t-9 -10l-5 -22h-52z" />
    <glyph glyph-name="uni1EB3" unicode="&#x1eb3;" 
d="M275 433l-92 -433h-58l-4 19q-41 -32 -80 -32q-46 0 -72.5 34.5t-14.5 87.5q12 59 46 101q16 20 82 81l48 44q38 34 46 71l6 27q8 38 -24 38t-40 -38l-18 -85h-93l18 85q13 64 61 103q43 34 94 34t78 -34q30 -39 17 -103zM116 123l33 154q-5 -12 -22 -32l-40 -45
q-24 -27 -32 -62l-4 -21q-7 -30 25 -30q33 0 40 36zM258 698h51q-9 -44 -47 -75q-38 -30 -79 -30q-44 0 -68.5 30.5t-15.5 74.5h51q-4 -23 9 -38t35 -15t41 15.5t23 37.5zM164 777l5 23q6 29 29 49q22 17 44 17q23 0 38 -16q9 -9 9 -34q2 -12 -4 -28q-5 -19 -29 -44
q-25 -28 -26 -54h-47q0 32 23 55t29 50q3 14 -5 14t-9 -10l-5 -22h-52z" />
    <glyph glyph-name="uni1EB4" unicode="&#x1eb4;" horiz-adv-x="312" 
d="M269 762l-76 -762h-92l14 135h-81l-39 -135h-91l248 762h117zM63 230h65l41 348l-22 -78zM284 891h51q-9 -43 -47 -74q-37 -30 -79 -30q-43 0 -69 30q-24 31 -15 74h51q-4 -22 9 -37.5t35 -15.5t40.5 16t23.5 37zM340 990l29 -32l-22 -21q-30 -27 -56 -27q-20 0 -42 16
q-19 16 -28 16q-10 0 -19 -10l-19 -15l-30 33l23 20q30 27 56 27q21 0 41 -16q21 -15 30 -15t19 9z" />
    <glyph glyph-name="uni1EB5" unicode="&#x1eb5;" 
d="M282 433l-92 -433h-58l-4 19q-40 -32 -79 -32q-46 0 -72.5 34.5t-15.5 87.5q14 59 46 101q16 20 82 81l48 44q38 33 47 71l5 27q9 38 -24 38q-31 0 -40 -38l-18 -85h-93l18 85q13 63 61 103q43 34 94 34t78 -34q31 -38 17 -103zM123 123l33 154q-7 -16 -22 -32l-39 -45
q-26 -29 -32 -62l-5 -21q-6 -30 26 -30t39 36zM266 698h51q-11 -45 -47 -75q-39 -30 -80 -30q-44 0 -68.5 30.5t-14.5 74.5h51q-5 -23 8 -38t35 -15t41 15.5t24 37.5zM322 790l29 -33l-22 -21q-32 -26 -56 -26q-19 0 -42 15q-19 16 -28 16q-10 0 -20 -10l-18 -15l-30 33
l23 21q31 26 56 26q21 0 41 -16q21 -15 30 -15t19 9z" />
    <glyph glyph-name="uni1EB6" unicode="&#x1eb6;" horiz-adv-x="312" 
d="M297 762l-76 -762h-92l15 135h-81l-41 -135h-90l248 762h117zM92 230h65l41 348l-23 -78zM312 891h51q-9 -43 -47 -74q-38 -30 -79 -30q-43 0 -69 30q-24 31 -15 74h51q-4 -22 9 -37.5t35 -15.5t40.5 16t23.5 37zM101 -49l-23 -111h-69l23 111h69z" />
    <glyph glyph-name="uni1EB7" unicode="&#x1eb7;" horiz-adv-x="300" 
d="M308 433l-92 -433h-58l-4 19q-40 -32 -79 -32q-47 0 -73 34t-15 88q15 61 46 101q16 20 82 81l49 44q39 36 46 71l5 27q9 38 -24 38q-31 0 -40 -38l-18 -85h-93l18 85q13 63 61 103q43 34 94 34t78 -34q31 -38 17 -103zM149 123l33 154q-7 -16 -22 -32l-39 -45
q-26 -29 -32 -62l-5 -21q-6 -30 26 -30t39 36zM292 698h51q-9 -43 -47 -75q-39 -30 -80 -30q-44 0 -68.5 30.5t-14.5 74.5h51q-5 -23 8 -38t35 -15t41.5 15.5t23.5 37.5zM122 -49l-24 -111h-69l24 111h69z" />
    <glyph glyph-name="uni1EB8" unicode="&#x1eb8;" horiz-adv-x="264" 
d="M200 94l-20 -94h-219l160 762h220l-19 -94h-127l-50 -234h88l-20 -92h-88l-52 -248h127zM89 -49l-23 -111h-68l22 111h69z" />
    <glyph glyph-name="uni1EB9" unicode="&#x1eb9;" horiz-adv-x="300" 
d="M274 207l-18 -82q-13 -60 -57 -98.5t-97 -38.5q-54 0 -81 38.5t-15 98.5l66 308q13 60 56.5 98.5t97.5 38.5q53 0 81 -38.5t15 -98.5l-38 -178h-157l-28 -133q-8 -35 25 -35q31 0 39 35l18 85h93zM145 340h64l21 96q6 35 -24 35q-34 0 -40 -35zM136 -49l-24 -111h-69
l24 111h69z" />
    <glyph glyph-name="uni1EBA" unicode="&#x1eba;" horiz-adv-x="265" 
d="M160 94l-20 -94h-219l161 762h220l-20 -94h-127l-50 -234h88l-19 -92h-88l-53 -248h127zM159 884l5 23q6 30 29 48q22 17 44 17q25 0 38 -16q12 -10 9 -33q2 -13 -4 -29q-5 -17 -28 -43q-24 -27 -27 -55h-48q3 33 25 55q23 23 29 51q3 13 -6 13q-7 0 -8 -9l-5 -22h-53z
" />
    <glyph glyph-name="uni1EBB" unicode="&#x1ebb;" horiz-adv-x="300" 
d="M237 207l-18 -82q-13 -60 -57 -98.5t-97 -38.5t-80.5 38.5t-14.5 98.5l65 308q13 60 56.5 98.5t97.5 38.5q53 0 81 -38.5t15 -98.5l-38 -178h-157l-29 -133q-6 -35 26 -35t38 35l19 85h93zM108 340h64l20 96q8 35 -23 35q-33 0 -41 -35zM151 686l5 23q6 30 29 48
q22 17 44 17q24 0 39 -16q9 -10 9 -33q0 -15 -5 -29q-5 -17 -28 -43q-22 -25 -27 -55h-47q0 32 23 55q23 21 29 51q3 13 -5 13q-7 0 -9 -9l-5 -22h-52z" />
    <glyph glyph-name="uni1EBC" unicode="&#x1ebc;" horiz-adv-x="267" 
d="M169 94l-20 -94h-219l161 762h220l-20 -94h-127l-50 -234h88l-20 -92h-88l-52 -248h127zM294 887l29 -33l-22 -21q-32 -26 -56 -26q-19 0 -42 15q-19 16 -29 16q-8 0 -19 -9l-18 -16l-30 33l23 21q29 26 55 26q21 0 41 -16q22 -15 31 -15q7 0 19 9z" />
    <glyph glyph-name="uni1EBD" unicode="&#x1ebd;" 
d="M245 207l-17 -82q-13 -60 -57 -98.5t-97 -38.5q-54 0 -81 38.5t-14 98.5l64 308q13 60 56.5 98.5t97.5 38.5q53 0 81 -38.5t15 -98.5l-38 -178h-157l-28 -133q-8 -35 26 -35q30 0 38 35l18 85h93zM117 340h64l20 96q8 35 -24 35t-40 -35zM311 686l29 -33l-22 -21
q-32 -26 -56 -26q-20 0 -42 15q-19 16 -28 16q-10 0 -20 -9l-18 -16l-30 33l23 21q29 26 56 26q21 0 41 -16q21 -15 30 -15q7 0 19 9z" />
    <glyph glyph-name="uni1EBE" unicode="&#x1ebe;" horiz-adv-x="265" 
d="M159 94l-20 -94h-219l161 762h220l-20 -94h-127l-50 -234h88l-20 -92h-88l-52 -248h127zM219 909l88 -81l-42 -46l-61 56l-84 -56l-22 46zM300 863l74 124h99l-121 -124h-52z" />
    <glyph glyph-name="uni1EBF" unicode="&#x1ebf;" 
d="M236 207l-17 -82q-13 -60 -57 -98.5t-97 -38.5t-80.5 38.5t-14.5 98.5l64 308q13 60 57 98.5t98 38.5q53 0 80.5 -38.5t14.5 -98.5l-37 -178h-157l-29 -133q-8 -35 26 -35q30 0 38 35l18 85h93zM108 340h64l20 96q8 35 -23 35q-33 0 -41 -35zM219 707l86 -81l-41 -46
l-60 56l-85 -56l-23 46zM289 661l73 114h98l-119 -114h-52z" />
    <glyph glyph-name="uni1EC0" unicode="&#x1ec0;" horiz-adv-x="267" 
d="M159 94l-20 -94h-219l161 762h220l-20 -94h-127l-50 -234h88l-20 -92h-88l-52 -248h127zM344 987l23 -124h-53l-68 124h98zM223 909l88 -81l-42 -46l-61 56l-84 -56l-23 46z" />
    <glyph glyph-name="uni1EC1" unicode="&#x1ec1;" horiz-adv-x="300" 
d="M235 207l-17 -82q-13 -60 -57 -98.5t-97 -38.5t-80.5 38.5t-14.5 98.5l64 308q13 60 56.5 98.5t97.5 38.5q53 0 81 -38.5t15 -98.5l-38 -178h-157l-28 -133q-8 -35 26 -35q30 0 38 35l18 85h93zM107 340h64l20 96q8 35 -24 35t-40 -35zM337 786l23 -124h-52l-69 124h98z
M218 707l86 -81l-41 -46l-61 56l-84 -56l-23 46z" />
    <glyph glyph-name="uni1EC2" unicode="&#x1ec2;" horiz-adv-x="265" 
d="M152 94l-20 -94h-219l161 762h220l-20 -94h-127l-49 -234h88l-20 -92h-88l-53 -248h127zM215 909l87 -81l-41 -46l-62 56l-83 -56l-23 46zM265 957l5 23q6 30 29 49q22 17 44 17q25 0 38 -16q11 -9 9 -34q1 -9 -4 -28q-5 -18 -28 -44q-24 -27 -27 -54h-48q3 33 25 55
q23 23 29 50q2 14 -6 14q-6 0 -9 -10l-4 -22h-53z" />
    <glyph glyph-name="uni1EC3" unicode="&#x1ec3;" 
d="M229 207l-17 -82q-13 -60 -57.5 -98.5t-96.5 -38.5q-53 0 -80.5 38.5t-14.5 98.5l64 308q13 60 56.5 98.5t97.5 38.5q53 0 81 -38.5t15 -98.5l-38 -178h-157l-28 -133q-8 -35 26 -35q30 0 38 35l18 85h93zM100 340h64l21 96q8 35 -24 35t-40 -35zM211 707l87 -81l-42 -46
l-60 56l-85 -56l-22 46zM262 755l4 23q8 32 30 49q20 17 43 17t38 -16q10 -9 10 -34q0 -13 -4 -28q-5 -17 -29 -44t-27 -54h-47q2 33 24 55q24 24 28 50q3 14 -5 14q-6 0 -9 -10l-4 -22h-52z" />
    <glyph glyph-name="uni1EC4" unicode="&#x1ec4;" horiz-adv-x="265" 
d="M158 94l-20 -94h-219l161 762h220l-20 -94h-127l-50 -234h88l-20 -92h-88l-52 -248h127zM220 909l88 -81l-42 -46l-61 56l-84 -56l-22 46zM347 990l29 -32l-22 -21q-32 -27 -57 -27q-21 0 -41 16q-19 16 -29 16q-9 0 -19 -10l-18 -15l-30 33l23 20q30 27 55 27
q21 0 41 -16q23 -15 30 -15q9 0 20 9z" />
    <glyph glyph-name="uni1EC5" unicode="&#x1ec5;" horiz-adv-x="300" 
d="M234 207l-17 -82q-13 -60 -57 -98.5t-97 -38.5t-80.5 38.5t-14.5 98.5l64 308q13 60 56.5 98.5t97.5 38.5q53 0 81 -38.5t15 -98.5l-38 -178h-157l-28 -133q-8 -35 26 -35q30 0 38 35l18 85h93zM105 340h64l21 96q8 35 -24 35t-40 -35zM216 707l87 -81l-42 -46l-60 56
l-85 -56l-22 46zM343 790l29 -33l-22 -21q-32 -26 -56 -26q-20 0 -42 15q-19 16 -28 16q-10 0 -20 -10l-18 -15l-30 33l23 21q29 26 56 26q21 0 41 -16q21 -15 30 -15q7 0 19 9z" />
    <glyph glyph-name="uni1EC6" unicode="&#x1ec6;" horiz-adv-x="267" 
d="M184 94l-20 -94h-219l161 762h220l-20 -94h-127l-50 -234h88l-19 -92h-88l-53 -248h127zM247 909l88 -81l-42 -46l-61 56l-84 -56l-22 46zM78 -49l-23 -111h-68l22 111h69z" />
    <glyph glyph-name="uni1EC7" unicode="&#x1ec7;" horiz-adv-x="301" 
d="M259 207l-17 -82q-13 -60 -57 -98.5t-97 -38.5q-54 0 -81 38.5t-14 98.5l64 308q13 60 57 98.5t98 38.5q53 0 80.5 -38.5t14.5 -98.5l-37 -178h-157l-29 -133q-8 -35 26 -35q30 0 38 35l18 85h93zM131 340h64l20 96q8 35 -24 35t-40 -35zM240 707l86 -81l-41 -46l-60 56
l-85 -56l-23 46zM119 -49l-24 -111h-69l24 111h69z" />
    <glyph glyph-name="uni1EC8" unicode="&#x1ec8;" horiz-adv-x="141" 
d="M175 762l-162 -762h-92l161 762h93zM95 884l5 23q6 30 29 48q23 17 44 17q25 0 38 -16q12 -10 10 -33q0 -15 -5 -29q-3 -17 -28 -43q-24 -27 -27 -55h-47q1 32 24 55t29 51q3 13 -6 13q-7 0 -8 -9l-5 -22h-53z" />
    <glyph glyph-name="uni1EC9" unicode="&#x1ec9;" horiz-adv-x="141" 
d="M153 558l-119 -558h-92l118 558h93zM75 686l5 23q6 30 29 48q22 17 44 17q25 0 38 -16q12 -10 10 -33q0 -15 -5 -29q-5 -17 -28 -43q-24 -27 -27 -55h-47q2 33 24 55q23 23 29 51q3 13 -6 13q-7 0 -8 -9l-5 -22h-53z" />
    <glyph glyph-name="uni1ECA" unicode="&#x1eca;" horiz-adv-x="138" 
d="M214 762l-161 -762h-92l160 762h93zM31 -49l-23 -111h-68l23 111h68z" />
    <glyph glyph-name="uni1ECB" unicode="&#x1ecb;" horiz-adv-x="141" 
d="M211 733l-26 -122h-93l26 122h93zM174 558l-118 -558h-92l117 558h93zM34 -49l-23 -111h-68l23 111h68z" />
    <glyph glyph-name="uni1ECC" unicode="&#x1ecc;" horiz-adv-x="300" 
d="M344 637l-109 -512q-13 -60 -57 -98.5t-97 -38.5q-54 0 -81 38.5t-14 98.5l108 512q12 61 57 99q46 38 98 38t80 -38.5t15 -98.5zM141 122l110 517q7 36 -23 36q-34 0 -41 -36l-110 -517q-8 -35 26 -35q30 0 38 35zM108 -49l-24 -111h-69l24 111h69z" />
    <glyph glyph-name="uni1ECD" unicode="&#x1ecd;" 
d="M322 433l-66 -308q-13 -60 -57 -98.5t-97 -38.5q-54 0 -81 38.5t-15 98.5l66 308q14 61 57 99q46 38 98 38t80 -38.5t15 -98.5zM163 122l66 313q7 36 -23 36q-34 0 -41 -36l-66 -313q-8 -35 25 -35q31 0 39 35zM125 -49l-24 -111h-69l24 111h69z" />
    <glyph glyph-name="uni1ECE" unicode="&#x1ece;" horiz-adv-x="300" 
d="M307 637l-109 -512q-13 -60 -57 -98.5t-97 -38.5t-80.5 38.5t-14.5 98.5l108 512q13 61 57 99q46 38 98 38t80 -38.5t15 -98.5zM104 122l110 517q8 36 -23 36q-33 0 -41 -36l-110 -517q-6 -35 26 -35t38 35zM172 884l5 23q8 31 29 48q22 17 44 17q24 0 39 -16
q9 -10 9 -33q0 -15 -5 -29q-5 -17 -28 -43q-23 -27 -27 -55h-47q0 32 23 55q23 21 29 51q3 13 -5 13t-9 -9l-5 -22h-52z" />
    <glyph glyph-name="uni1ECF" unicode="&#x1ecf;" 
d="M285 433l-66 -308q-13 -60 -57 -98.5t-97 -38.5t-80.5 38.5t-14.5 98.5l65 308q12 61 57 99q46 38 98 38t80 -38.5t15 -98.5zM125 122l67 313q8 36 -23 36q-33 0 -41 -36l-67 -313q-6 -35 26 -35t38 35zM149 686l5 23q6 30 29 48q22 17 44 17q24 0 39 -16q9 -10 9 -33
q0 -15 -5 -29q-5 -17 -28 -43t-26 -55h-48q0 32 23 55q23 21 29 51q3 13 -5 13q-7 0 -9 -9l-5 -22h-52z" />
    <glyph glyph-name="uni1ED0" unicode="&#x1ed0;" horiz-adv-x="300" 
d="M305 637l-109 -512q-13 -60 -57 -98.5t-97 -38.5t-80.5 38.5t-14.5 98.5l108 512q13 61 57 99q47 38 98 38q52 0 80 -38.5t15 -98.5zM103 122l110 517q7 36 -24 36q-33 0 -40 -36l-110 -517q-8 -35 25 -35q31 0 39 35zM243 909l88 -81l-42 -46l-61 56l-84 -56l-22 46z
M324 863l75 124h98l-121 -124h-52z" />
    <glyph glyph-name="uni1ED1" unicode="&#x1ed1;" 
d="M284 433l-65 -308q-13 -60 -57 -98.5t-97 -38.5t-80.5 38.5t-14.5 98.5l64 308q14 61 57 99q47 38 99 38q53 0 80 -38.5t14 -98.5zM125 122l67 313q8 36 -23 36q-33 0 -41 -36l-67 -313q-8 -35 26 -35q30 0 38 35zM219 707l86 -81l-41 -46l-60 56l-85 -56l-23 46z
M289 661l73 114h98l-119 -114h-52z" />
    <glyph glyph-name="uni1ED2" unicode="&#x1ed2;" horiz-adv-x="300" 
d="M305 637l-109 -512q-13 -60 -57 -98.5t-97 -38.5t-80.5 38.5t-14.5 98.5l108 512q13 61 57 99q47 38 98 38q52 0 80 -38.5t15 -98.5zM103 122l110 517q7 36 -24 36q-33 0 -40 -36l-110 -517q-8 -35 25 -35q31 0 39 35zM362 987l22 -124h-53l-67 124h98zM240 909l88 -81
l-42 -46l-61 56l-84 -56l-22 46z" />
    <glyph glyph-name="uni1ED3" unicode="&#x1ed3;" horiz-adv-x="300" 
d="M283 433l-65 -308q-13 -60 -57 -98.5t-97 -38.5t-80.5 38.5t-14.5 98.5l64 308q13 61 57 99q47 38 98 38q52 0 80 -38.5t15 -98.5zM124 122l67 313q7 36 -24 36q-33 0 -40 -36l-67 -313q-8 -35 26 -35q30 0 38 35zM337 786l23 -124h-52l-69 124h98zM218 707l86 -81
l-41 -46l-61 56l-84 -56l-23 46z" />
    <glyph glyph-name="uni1ED4" unicode="&#x1ed4;" 
d="M299 637l-109 -512q-13 -60 -57 -98.5t-97 -38.5t-80.5 38.5t-14.5 98.5l108 512q13 61 57 99q46 38 98 38t80 -38.5t15 -98.5zM97 122l109 517q9 36 -23 36t-41 -36l-109 -517q-8 -35 25 -35q31 0 39 35zM232 909l87 -81l-42 -46l-60 56l-85 -56l-22 46zM282 957l5 23
q6 29 29 49q22 17 44 17q23 0 39 -16q10 -11 8 -34q2 -12 -4 -28q-5 -19 -29 -44q-25 -28 -26 -54h-47q0 32 23 55t29 50q3 14 -5 14t-9 -10l-5 -22h-52z" />
    <glyph glyph-name="uni1ED5" unicode="&#x1ed5;" horiz-adv-x="300" 
d="M277 433l-65 -308q-13 -60 -57.5 -98.5t-96.5 -38.5q-53 0 -80.5 38.5t-14.5 98.5l64 308q13 61 57 99q46 38 98 38t80 -38.5t15 -98.5zM118 122l67 313q7 36 -24 36q-33 0 -40 -36l-67 -313q-8 -35 26 -35q30 0 38 35zM211 707l87 -81l-42 -46l-60 56l-85 -56l-22 46z
M262 755l4 23q8 32 30 49q20 17 43 17t38 -16q10 -9 10 -34q0 -13 -4 -28q-5 -17 -29 -44t-27 -54h-47q2 33 24 55q24 24 28 50q3 14 -5 14q-6 0 -9 -10l-4 -22h-52z" />
    <glyph glyph-name="uni1ED6" unicode="&#x1ed6;" horiz-adv-x="300" 
d="M304 637l-109 -512q-13 -60 -57 -98.5t-97 -38.5t-80.5 38.5t-14.5 98.5l108 512q14 61 57 99q47 38 98 38q52 0 80 -38.5t15 -98.5zM102 122l110 517q8 36 -24 36t-40 -36l-110 -517q-8 -35 25 -35q31 0 39 35zM234 909l87 -81l-42 -46l-60 56l-85 -56l-22 46zM360 990
l29 -32l-22 -21q-30 -27 -56 -27q-21 0 -41 16t-29 16q-10 0 -19 -10l-18 -15l-30 33l22 20q30 27 57 27q21 0 40 -16q21 -15 30 -15t19 9z" />
    <glyph glyph-name="uni1ED7" unicode="&#x1ed7;" horiz-adv-x="300" 
d="M282 433l-65 -308q-13 -60 -57 -98.5t-97 -38.5t-80.5 38.5t-14.5 98.5l64 308q14 61 57 99q47 38 98 38q52 0 80 -38.5t15 -98.5zM123 122l67 313q8 36 -24 36t-40 -36l-67 -313q-8 -35 26 -35q30 0 38 35zM216 707l87 -81l-42 -46l-60 56l-85 -56l-22 46zM343 790
l29 -33l-22 -21q-32 -26 -56 -26q-20 0 -42 15q-19 16 -28 16q-10 0 -20 -10l-18 -15l-30 33l23 21q29 26 56 26q21 0 41 -16q21 -15 30 -15q7 0 19 9z" />
    <glyph glyph-name="uni1ED8" unicode="&#x1ed8;" 
d="M329 637l-109 -512q-13 -60 -57 -98.5t-97 -38.5t-80.5 38.5t-14.5 98.5l108 512q13 61 57 99q47 38 98 38q53 0 80.5 -38.5t14.5 -98.5zM127 122l110 517q7 36 -24 36q-33 0 -40 -36l-110 -517q-8 -35 25 -35q31 0 39 35zM259 909l87 -81l-42 -46l-60 56l-85 -56l-22 46
zM89 -49l-23 -111h-68l22 111h69z" />
    <glyph glyph-name="uni1ED9" unicode="&#x1ed9;" 
d="M307 433l-65 -308q-13 -60 -57 -98.5t-97 -38.5q-54 0 -81 38.5t-14 98.5l64 308q13 61 57 99q47 38 99 38q53 0 80 -38.5t14 -98.5zM148 122l67 313q7 36 -24 36q-33 0 -40 -36l-67 -313q-8 -35 26 -35q30 0 38 35zM240 707l86 -81l-41 -46l-60 56l-85 -56l-23 46z
M119 -49l-24 -111h-69l24 111h69z" />
    <glyph glyph-name="uni1EDA" unicode="&#x1eda;" horiz-adv-x="308" 
d="M394 777l-13 -58q-17 -89 -79 -124l-100 -470q-13 -60 -57 -98.5t-97 -38.5t-80.5 38.5t-14.5 98.5l108 512q13 61 57 99q46 38 98 38q51 0 80 -38q23 -32 17 -83q14 16 17 36l19 88h45zM108 122l110 517q8 36 -23 36q-33 0 -41 -36l-110 -517q-6 -35 26 -35t38 35z
M270 934h100l-122 -124h-52z" />
    <glyph glyph-name="uni1EDB" unicode="&#x1edb;" horiz-adv-x="303" 
d="M366 570l-10 -49q-18 -86 -74 -120l-59 -276q-13 -60 -57 -98.5t-97 -38.5t-80.5 38.5t-14.5 98.5l65 308q13 61 57 99q46 38 98 38q51 0 80 -38q23 -29 18 -71q10 12 12 29l17 80h45zM130 122l66 313q8 36 -23 36q-33 0 -41 -36l-66 -313q-8 -35 25 -35q31 0 39 35z
M178 610l74 123h98l-120 -123h-52z" />
    <glyph glyph-name="uni1EDC" unicode="&#x1edc;" horiz-adv-x="306" 
d="M394 777l-13 -58q-17 -89 -79 -124l-100 -470q-13 -60 -57 -98.5t-97 -38.5t-80.5 38.5t-14.5 98.5l108 512q13 61 57 99q46 38 98 38q51 0 80 -38q23 -32 17 -83q14 16 17 36l19 88h45zM108 122l110 517q8 36 -23 36q-33 0 -41 -36l-110 -517q-6 -35 26 -35t38 35z
M130 934h99l22 -124h-52z" />
    <glyph glyph-name="uni1EDD" unicode="&#x1edd;" horiz-adv-x="303" 
d="M366 570l-10 -49q-18 -86 -74 -120l-59 -276q-13 -60 -57 -98.5t-97 -38.5t-80.5 38.5t-14.5 98.5l65 308q13 61 57 99q46 38 98 38q51 0 80 -38q23 -29 18 -71q10 12 12 29l17 80h45zM130 122l66 313q8 36 -23 36q-33 0 -41 -36l-66 -313q-8 -35 25 -35q31 0 39 35z
M207 733l22 -123h-52l-68 123h98z" />
    <glyph glyph-name="uni1EDE" unicode="&#x1ede;" horiz-adv-x="306" 
d="M390 777l-13 -58q-17 -89 -79 -124l-100 -470q-13 -60 -57 -98.5t-97 -38.5t-80.5 38.5t-14.5 98.5l108 512q13 61 57 99q46 38 98 38q51 0 80 -38q23 -32 17 -83q14 16 17 36l19 88h45zM104 122l110 517q8 36 -23 36q-33 0 -41 -36l-110 -517q-6 -35 26 -35t38 35z
M172 884l5 23q8 31 29 48q22 17 44 17q24 0 39 -16q9 -10 9 -33q0 -15 -5 -29q-5 -17 -28 -43q-23 -27 -27 -55h-47q0 32 23 55q23 21 29 51q3 13 -5 13t-9 -9l-5 -22h-52z" />
    <glyph glyph-name="uni1EDF" unicode="&#x1edf;" horiz-adv-x="301" 
d="M362 570l-11 -49q-17 -86 -73 -120l-59 -276q-13 -60 -57 -98.5t-97 -38.5t-80.5 38.5t-14.5 98.5l65 308q12 61 57 99q46 38 98 38q51 0 80 -38q21 -27 18 -71q9 12 12 29l17 80h45zM125 122l67 313q8 36 -23 36q-33 0 -41 -36l-67 -313q-6 -35 26 -35t38 35zM154 686
l5 23q6 30 29 48q22 17 44 17q23 0 38 -16q10 -10 10 -33q0 -15 -5 -29q-5 -17 -29 -43q-23 -26 -26 -55h-47q0 32 23 55q23 21 29 51q3 13 -5 13t-9 -9l-5 -22h-52z" />
    <glyph glyph-name="uni1EE0" unicode="&#x1ee0;" horiz-adv-x="306" 
d="M399 777l-12 -58q-18 -89 -80 -124l-100 -470q-13 -60 -57 -98.5t-97 -38.5t-80.5 38.5t-14.5 98.5l108 512q14 61 57 99q46 38 98 38q51 0 80 -38q24 -33 18 -83q13 14 16 36l19 88h45zM114 122l110 517q8 36 -24 36t-40 -36l-110 -517q-8 -35 25 -35q31 0 39 35z
M329 878l30 -32l-23 -21q-30 -27 -56 -27q-21 0 -41 16t-29 16t-19 -10l-18 -15l-30 32l22 21q30 27 57 27q21 0 40 -16q20 -16 30 -16q9 0 19 10z" />
    <glyph glyph-name="uni1EE1" unicode="&#x1ee1;" horiz-adv-x="300" 
d="M370 570l-10 -49q-16 -85 -74 -120l-58 -276q-13 -60 -57 -98.5t-97 -38.5q-54 0 -81 38.5t-14 98.5l64 308q13 61 57 99q47 38 98 38q53 0 80 -38q23 -29 18 -71q10 12 12 29l17 80h45zM134 122l67 313q7 36 -24 36q-33 0 -40 -36l-67 -313q-8 -35 26 -35q30 0 38 35z
M326 686l30 -33l-23 -21q-31 -26 -56 -26q-19 0 -42 15q-19 16 -28 16q-10 0 -19 -9l-19 -16l-30 33l23 21q29 26 56 26q21 0 41 -16q21 -15 30 -15t19 9z" />
    <glyph glyph-name="uni1EE2" unicode="&#x1ee2;" horiz-adv-x="306" 
d="M426 777l-12 -58q-18 -89 -80 -124l-100 -470q-13 -60 -57 -98.5t-97 -38.5q-54 0 -81 38.5t-14 98.5l108 512q13 61 57 99q47 38 98 38q53 0 80 -38q24 -31 18 -83q13 14 16 36l19 88h45zM141 122l110 517q7 36 -24 36q-33 0 -40 -36l-110 -517q-8 -35 25 -35
q31 0 39 35zM104 -49l-24 -111h-69l24 111h69z" />
    <glyph glyph-name="uni1EE3" unicode="&#x1ee3;" horiz-adv-x="301" 
d="M399 570l-10 -49q-16 -85 -74 -120l-59 -276q-13 -60 -57 -98.5t-97 -38.5q-54 0 -81 38.5t-15 98.5l66 308q14 61 57 99q46 38 98 38q51 0 80 -38q23 -29 18 -71q10 12 12 29l17 80h45zM163 122l66 313q7 36 -23 36q-34 0 -41 -36l-66 -313q-8 -35 25 -35q31 0 39 35z
M126 -49l-24 -111h-69l24 111h69z" />
    <glyph glyph-name="uni1EE4" unicode="&#x1ee4;" 
d="M371 762l-135 -637q-13 -60 -57 -98.5t-97 -38.5q-54 0 -81 38.5t-14 98.5l134 637h93l-136 -640q-6 -35 26 -35t38 35l136 640h93zM105 -49l-23 -111h-69l23 111h69z" />
    <glyph glyph-name="uni1EE5" unicode="&#x1ee5;" horiz-adv-x="296" 
d="M350 558l-119 -558h-58l-5 19q-35 -31 -79 -31q-51 0 -73 34t-10 96l94 440h93l-93 -438q-8 -33 25 -33q31 0 39 33l93 438h93zM127 -49l-24 -111h-69l24 111h69z" />
    <glyph glyph-name="uni1EE6" unicode="&#x1ee6;" horiz-adv-x="299" 
d="M333 762l-135 -637q-13 -60 -57 -98.5t-97 -38.5t-80.5 38.5t-14.5 98.5l134 637h93l-136 -640q-6 -35 26 -35t38 35l136 640h93zM172 884l5 23q8 31 29 48q22 17 44 17q24 0 39 -16q9 -10 9 -33q0 -15 -5 -29q-5 -17 -28 -43q-23 -27 -27 -55h-47q0 32 23 55
q23 21 29 51q3 13 -5 13t-9 -9l-5 -22h-52z" />
    <glyph glyph-name="uni1EE7" unicode="&#x1ee7;" 
d="M311 558l-118 -558h-58l-5 19q-37 -31 -80 -31q-50 0 -72 34.5t-9 95.5l92 440h93l-93 -438q-8 -33 25 -33q32 0 39 33l93 438h93zM154 686l5 23q6 30 29 48q22 17 44 17q23 0 38 -16q10 -10 10 -33q0 -15 -5 -29q-5 -17 -29 -43q-23 -26 -26 -55h-47q0 32 23 55
q23 21 29 51q3 13 -5 13t-9 -9l-5 -22h-52z" />
    <glyph glyph-name="uni1EE8" unicode="&#x1ee8;" horiz-adv-x="317" 
d="M399 762l-10 -49q-19 -97 -89 -128l-98 -460q-13 -60 -57 -98.5t-97 -38.5t-80.5 38.5t-14.5 98.5l134 637h93l-136 -640q-6 -35 26 -35t38 35l136 640h93l-26 -123q21 13 27 44l16 79h45zM270 934h100l-122 -124h-52z" />
    <glyph glyph-name="uni1EE9" unicode="&#x1ee9;" horiz-adv-x="315" 
d="M377 558l-10 -48q-20 -98 -89 -129l-81 -381h-58l-5 19q-37 -31 -80 -31q-50 0 -72 34.5t-9 95.5l92 440h93l-93 -438q-6 -33 25 -33q33 0 39 33l93 438h93l-26 -123q23 16 27 44l16 79h45zM178 610l74 123h98l-120 -123h-52z" />
    <glyph glyph-name="uni1EEA" unicode="&#x1eea;" horiz-adv-x="315" 
d="M399 762l-10 -49q-19 -97 -89 -128l-98 -460q-13 -60 -57 -98.5t-97 -38.5t-80.5 38.5t-14.5 98.5l134 637h93l-136 -640q-6 -35 26 -35t38 35l136 640h93l-26 -123q21 13 27 44l16 79h45zM129 934h99l22 -124h-52z" />
    <glyph glyph-name="uni1EEB" unicode="&#x1eeb;" horiz-adv-x="315" 
d="M377 558l-10 -48q-20 -98 -89 -129l-81 -381h-58l-5 19q-37 -31 -80 -31q-50 0 -72 34.5t-9 95.5l92 440h93l-93 -438q-6 -33 25 -33q33 0 39 33l93 438h93l-26 -123q23 16 27 44l16 79h45zM207 733l22 -123h-52l-68 123h98z" />
    <glyph glyph-name="uni1EEC" unicode="&#x1eec;" horiz-adv-x="313" 
d="M395 762l-10 -49q-19 -97 -89 -128l-98 -460q-13 -60 -57 -98.5t-97 -38.5t-80.5 38.5t-14.5 98.5l134 637h93l-136 -640q-6 -35 26 -35t38 35l136 640h93l-26 -123q21 13 27 44l16 79h45zM172 884l5 23q8 31 29 48q22 17 44 17q24 0 39 -16q9 -10 9 -33q0 -15 -5 -29
q-5 -17 -28 -43q-23 -27 -27 -55h-47q0 32 23 55q23 21 29 51q3 13 -5 13t-9 -9l-5 -22h-52z" />
    <glyph glyph-name="uni1EED" unicode="&#x1eed;" horiz-adv-x="317" 
d="M373 558l-10 -48q-20 -98 -89 -129l-81 -381h-58l-5 19q-37 -31 -80 -31q-50 0 -72 34.5t-9 95.5l92 440h93l-93 -438q-8 -33 25 -33q32 0 39 33l93 438h93l-26 -123q21 15 26 44l17 79h45zM154 686l5 23q6 30 29 48q22 17 44 17q23 0 38 -16q10 -10 10 -33q0 -15 -5 -29
q-5 -17 -29 -43q-23 -26 -26 -55h-47q0 32 23 55q23 21 29 51q3 13 -5 13t-9 -9l-5 -22h-52z" />
    <glyph glyph-name="uni1EEE" unicode="&#x1eee;" horiz-adv-x="315" 
d="M405 762l-11 -49q-20 -98 -89 -128l-98 -460q-13 -60 -57 -98.5t-97 -38.5t-80.5 38.5t-14.5 98.5l135 637h93l-136 -640q-8 -35 25 -35q31 0 39 35l136 640h93l-26 -123q22 15 26 44l17 79h45zM329 878l30 -32l-23 -21q-30 -27 -56 -27q-21 0 -41 16t-29 16t-19 -10
l-18 -15l-30 32l22 21q30 27 57 27q21 0 40 -16q20 -16 30 -16q9 0 19 10z" />
    <glyph glyph-name="uni1EEF" unicode="&#x1eef;" horiz-adv-x="315" 
d="M382 558l-10 -48q-20 -98 -90 -129l-81 -381h-58l-5 19q-35 -31 -79 -31q-50 0 -72.5 34t-9.5 96l93 440h93l-93 -438q-8 -33 25 -33q31 0 39 33l93 438h93l-26 -123q21 15 26 44l17 79h45zM309 686l29 -33l-22 -21q-31 -26 -56 -26q-20 0 -42 15q-19 16 -28 16
q-10 0 -19 -9l-19 -16l-30 33l23 21q29 26 56 26q21 0 41 -16q21 -15 30 -15q7 0 19 9z" />
    <glyph glyph-name="uni1EF0" unicode="&#x1ef0;" horiz-adv-x="317" 
d="M433 762l-10 -49q-19 -97 -89 -128l-98 -460q-13 -60 -57 -98.5t-97 -38.5q-54 0 -81 38.5t-14 98.5l134 637h93l-136 -640q-6 -35 26 -35t38 35l136 640h93l-26 -123q21 13 27 44l16 79h45zM105 -49l-23 -111h-69l23 111h69z" />
    <glyph glyph-name="uni1EF1" unicode="&#x1ef1;" horiz-adv-x="315" 
d="M412 558l-10 -48q-20 -98 -90 -129l-81 -381h-58l-5 19q-35 -31 -79 -31q-51 0 -73 34t-10 96l94 440h93l-93 -438q-8 -33 25 -33q31 0 39 33l93 438h93l-26 -123q21 15 26 44l17 79h45zM127 -49l-24 -111h-69l24 111h69z" />
    <glyph glyph-name="Ygrave" unicode="&#x1ef2;" horiz-adv-x="295" 
d="M257 762h88l-179 -402l-77 -360h-82l77 361l-11 401h89l-3 -189l-4 -72l25 72zM128 934h99l21 -124h-52z" />
    <glyph glyph-name="ygrave" unicode="&#x1ef3;" horiz-adv-x="274" 
d="M234 558h92l-231 -635q-21 -55 -61.5 -91t-86.5 -36h-34l19 92h30q33 0 45 37l30 85l35 548h91l-39 -350l25 81zM208 733l22 -123h-52l-69 123h99z" />
    <glyph glyph-name="uni1EF4" unicode="&#x1ef4;" horiz-adv-x="295" 
d="M292 762h88l-179 -402l-76 -360h-82l76 361l-11 401h89l-3 -189l-4 -72l25 72zM106 -49l-23 -111h-69l23 111h69z" />
    <glyph glyph-name="uni1EF5" unicode="&#x1ef5;" horiz-adv-x="276" 
d="M252 558h92l-230 -635q-22 -55 -62.5 -91t-85.5 -36h-34l19 92h30q32 0 45 37l30 85l34 548h91l-38 -350l24 81zM190 -92l-23 -112h-69l23 112h69z" />
    <glyph glyph-name="uni1EF6" unicode="&#x1ef6;" 
d="M253 762h88l-179 -402l-77 -360h-82l77 361l-11 401h89l-3 -189l-4 -72l25 72zM171 884l5 23q6 30 29 48q22 17 44 17q25 0 38 -16q11 -10 9 -33q2 -13 -4 -29q-5 -17 -28 -43t-28 -55h-47q1 32 24 55t29 51q3 13 -5 13q-7 0 -9 -9l-5 -22h-52z" />
    <glyph glyph-name="uni1EF7" unicode="&#x1ef7;" horiz-adv-x="276" 
d="M230 558h92l-231 -635q-22 -55 -62.5 -91t-85.5 -36h-34l19 92h30q33 0 45 37l30 85l35 548h91l-39 -350l24 81zM165 686l5 23q6 31 29 48q20 17 43 17q24 0 39 -16q9 -9 9 -33q0 -14 -4 -29q-5 -17 -28 -43q-24 -27 -27 -55h-48q0 31 24 55q24 23 30 51q1 13 -7 13
q-6 0 -9 -9l-4 -22h-52z" />
    <glyph glyph-name="uni1EF8" unicode="&#x1ef8;" horiz-adv-x="295" 
d="M262 762h88l-179 -402l-77 -360h-82l77 361l-11 401h89l-3 -189l-4 -72l25 72zM319 878l29 -32l-22 -21q-32 -27 -57 -27q-21 0 -41 16q-19 16 -29 16q-9 0 -19 -10l-17 -15l-31 32l23 21q28 27 56 27q20 0 40 -16q22 -16 30 -16q9 0 19 10z" />
    <glyph glyph-name="uni1EF9" unicode="&#x1ef9;" horiz-adv-x="278" 
d="M238 558h92l-231 -635q-21 -55 -61.5 -91t-86.5 -36h-34l20 92h30q30 0 45 37l30 85l34 548h91l-38 -350l24 81zM301 686l29 -33l-22 -21q-32 -26 -57 -26q-19 0 -40 15q-20 16 -30 16q-9 0 -19 -9l-17 -16l-30 33l22 21q29 26 56 26q21 0 40 -16q23 -15 30 -15
q10 0 19 9z" />
    <glyph glyph-name="endash" unicode="&#x2013;" horiz-adv-x="476" 
d="M486 428l-21 -96h-475l20 96h476z" />
    <glyph glyph-name="emdash" unicode="&#x2014;" horiz-adv-x="952" 
d="M962 428l-21 -96h-951l20 96h952z" />
    <glyph glyph-name="quoteleft" unicode="&#x2018;" horiz-adv-x="164" 
d="M131 762h52l-101 -266h-101z" />
    <glyph glyph-name="quoteright" unicode="&#x2019;" horiz-adv-x="164" 
d="M90 762h103l-152 -266h-51z" />
    <glyph glyph-name="quotesinglbase" unicode="&#x201a;" horiz-adv-x="145" 
d="M61 166h103l-152 -266h-50z" />
    <glyph glyph-name="quotedblleft" unicode="&#x201c;" horiz-adv-x="312" 
d="M273 763h52l-102 -266h-102zM138 763h53l-102 -266h-102z" />
    <glyph glyph-name="quotedblright" unicode="&#x201d;" horiz-adv-x="312" 
d="M222 762h103l-152 -266h-52zM88 762h103l-152 -266h-52z" />
    <glyph glyph-name="quotedblbase" unicode="&#x201e;" horiz-adv-x="293" 
d="M203 140h103l-152 -266h-53zM69 140h103l-152 -266h-52z" />
    <glyph glyph-name="dagger" unicode="&#x2020;" horiz-adv-x="248" 
d="M283 558l-20 -91h-62l-113 -534h-92l112 534h-62l20 91h62l30 143h93l-30 -143h62z" />
    <glyph glyph-name="daggerdbl" unicode="&#x2021;" horiz-adv-x="248" 
d="M200 168l-20 -92h-62l-30 -143h-92l29 143h-61l20 92h61l63 299h-62l20 91h62l30 143h93l-30 -143h62l-20 -91h-62l-63 -299h62z" />
    <glyph glyph-name="bullet" unicode="&#x2022;" 
d="M274 381q-12 -52 -56 -89t-95 -37q-54 0 -82 37q-29 38 -17 89q10 50 54 88q46 37 98 37t79 -37q30 -37 19 -88z" />
    <glyph glyph-name="perthousand" unicode="&#x2030;" horiz-adv-x="683" 
d="M328 637l-14 -68q-13 -60 -58 -99t-97 -39t-81 38q-27 39 -14 100l14 68q14 61 57 99q46 38 98 38t80 -38.5t15 -98.5zM618 192l-14 -68q-14 -62 -58 -99q-44 -38 -97 -38q-52 0 -80 38.5t-15 98.5l14 68q13 60 58 99t97 39q53 0 80 -39q29 -37 15 -99zM375 478l14 -82
l-360 -111l-12 82zM332 192l-14 -68q-13 -60 -57 -98.5t-97 -38.5q-54 0 -81.5 38.5t-14.5 98.5l14 68q14 62 57 99q47 39 99 39t79.5 -39t14.5 -99zM220 566l15 73q9 36 -23 36t-41 -36l-15 -73q-8 -36 25 -36q31 0 39 36zM510 121l16 73q8 36 -24 36t-40 -36l-16 -73
q-8 -35 25 -35q31 0 39 35zM224 121l16 73q7 36 -23 36q-33 0 -41 -36l-16 -73q-8 -35 26 -35q30 0 38 35z" />
    <glyph glyph-name="guilsinglleft" unicode="&#x2039;" horiz-adv-x="267" 
d="M149 373l82 -104l-82 -69l-138 173l211 174l54 -69z" />
    <glyph glyph-name="guilsinglright" unicode="&#x203a;" horiz-adv-x="267" 
d="M117 547l136 -174l-209 -173l-54 69l126 104l-82 105z" />
    <glyph glyph-name="trademark" unicode="&#x2122;" horiz-adv-x="608" 
d="M610 762l-81 -383h-80l32 151l20 86h-2l-30 -87l-58 -150h-66l6 150l5 87h-1l-16 -86l-32 -151h-80l81 383h102l-4 -184l-4 -85l32 85l75 184h101zM285 762l-17 -81h-64l-64 -302h-80l64 302h-64l17 81h208z" />
    <glyph glyph-name="minus" unicode="&#x2212;" horiz-adv-x="357" 
d="M343 426l-21 -96h-309l21 96h309z" />
    <glyph glyph-name="fi" unicode="&#xfb01;" horiz-adv-x="331" 
d="M345 558l-118 -558h-94l99 467h-47l-99 -467h-93l98 467h-61l19 91h61l18 84q12 55 52 87.5t92 32.5h116l-19 -92h-107q-34 0 -41 -34l-17 -78h141z" />
    <glyph glyph-name="fl" unicode="&#xfb02;" horiz-adv-x="331" 
d="M388 762l-161 -762h-94l142 670h-13q-34 0 -41 -34l-135 -636h-93l98 467h-61l19 91h61l18 84q12 55 52 87.5t92 32.5h116z" />
    </font>
</defs>
</svg>
