<?xml version="1.0" encoding="utf-8"?>
<!-- Generator: Adobe Illustrator 19.1.0, SVG Export Plug-In . SVG Version: 6.00 Build 0)  -->
<svg version="1.1" id="Layer_1" xmlns="http://www.w3.org/2000/svg" xmlns:xlink="http://www.w3.org/1999/xlink" x="0px" y="0px"
	 viewBox="222.1 312.1 167.8 167.8" enable-background="new 222.1 312.1 167.8 167.8" xml:space="preserve">
<path opacity="0.4" d="M306,462.2c-36.5,0-66.1-29.6-66.1-66.1c0-36.5,29.6-66.1,66.1-66.1s66.1,29.6,66.1,66.1
	C372.1,432.6,342.5,462.2,306,462.2z"/>
<g>
	<path fill="#FFFFFF" d="M306,312.1c-46.3,0-83.9,37.6-83.9,84c0,46.3,37.6,83.9,83.9,83.9s83.9-37.7,83.9-84S352.3,312.1,306,312.1
		z M306,462.2c-36.5,0-66.1-29.6-66.1-66.1c0-36.5,29.6-66.1,66.1-66.1s66.1,29.6,66.1,66.1C372.1,432.6,342.5,462.2,306,462.2z"/>
</g>
<polygon fill="#FFFFFF" points="349.9,396.6 279.4,435.2 279.4,435.2 279.4,357 "/>
</svg>
