<svg xmlns="http://www.w3.org/2000/svg">
<defs>
<font id="utmbebas" horiz-adv-x="702" ><font-face
    font-family="UTM Bebas"
    units-per-em="2048"
    panose-1="2 4 6 3 5 5 6 2 2 4"
    ascent="2196"
    descent="-372"
    alphabetic="0" />
<missing-glyph horiz-adv-x="5040" d="M3351 2045H3361Q3398 2035 3398 1993Q3398 1981 3366 1936H3338Q3338 1960 3366 1990L3368 2000Q3363 2013 3358 2015H3349Q3341 2015 3339 1996H3309Q3315 2045 3351 2045ZM2019 2016L2048 1985Q2048 1969 2008 1955H1989L1930
1967L1919 1955L1891 1980Q1902 2009 1934 2009H1945L1987 1998H1989Q1999 1998 2019 2016ZM468 1980H610V1920H516V1845H605V1786H516V1657L511 1652H462V1975L468 1980ZM1155 1980H1198L1204 1975V1897H1234V1845H1204V1657L1198 1652H1149V1845H1124V1897H1149V1975L1155
1980ZM1621 1980H1663L1667 1975V1881H1670Q1693 1905 1724 1905H1726Q1784 1905 1809 1834L1811 1795V1652H1759V1767Q1759 1847 1717 1847H1710Q1667 1847 1667 1761V1652H1616V1975L1621 1980ZM2200 1980H2249L2254 1975V1753Q2264 1702 2299 1702Q2343 1709
2343 1761V1975L2348 1980H2397V1764Q2397 1679 2331 1652Q2316 1644 2296 1644Q2249 1644 2214 1699Q2200 1723 2200 1756V1980ZM2435 1980H2594V1920H2538V1652H2485V1920H2430V1975L2435 1980ZM2621 1980H2692Q2699 1976 2775 1729H2777L2857 1980H2930V1652H2876V1894H2874L2800
1652H2756Q2752 1652 2698 1834L2679 1894H2676V1652H2621V1980ZM3760 1980H3812V1652H3767L3762 1657V1668L3765 1670L3762 1684Q3733 1644 3684 1644Q3617 1644 3584 1735L3579 1774V1777Q3579 1871 3671 1902L3694 1905Q3729 1905 3757 1873H3760V1980ZM2057
1928H2093L2097 1922V1873H2052V1652H2004V1675Q1981 1644 1945 1644Q1856 1658 1856 1741V1897H1907V1793Q1907 1714 1933 1707L1951 1702H1957Q1983 1702 1996 1738L1999 1764V1897H2052V1922L2057 1928ZM3476 1928V1873H3445V1652H3398V1677H3396Q3381 1644
3339 1644Q3271 1644 3253 1722L3250 1751V1897H3302V1777Q3302 1727 3321 1709L3342 1702H3351Q3393 1702 3393 1771V1897H3420Q3424 1897 3424 1925L3427 1928H3476ZM758 1905Q826 1905 861 1828Q870 1810 873 1774Q873 1686 783 1647L751 1644Q688 1644 650

<glyph unicode=" " glyph-name="space" horiz-adv-x="317" />
<glyph unicode="!" glyph-name="exclam" horiz-adv-x="389" d="M110 317L81 836V1434H306V836L278 317H110ZM302 217V0H85V217H302Z" />
<glyph unicode="&quot;" glyph-name="quotedbl" horiz-adv-x="665" d="M81 1434H298L265 1012H112L81 1434ZM366 1434H583L550 1012H396L366 1434Z" />
<glyph unicode="#" glyph-name="numbersign" horiz-adv-x="839" d="M448 410H315L272 0H87L130 410H30L46 569H147L186 944H83L100 1104H202L237 1434H421L386 1104H519L554 1434H739L704 1104H808L792 944H687L648 569H753L737 410H632L589 0H405L448 410ZM331
569H464L503 944H370L331 569Z" />
<glyph unicode="$" glyph-name="dollar" horiz-adv-x="811" d="M75 1367T313 1419V1526H497V1419Q739 1370 739 1069V1014H526V1083Q526 1225 413 1225Q300 1225 300 1083Q300 986 369 904Q396 873 440 834L500 784Q512 774 521 767Q571 725 601 694Q644 651 672
608Q741 502 741 365Q741 62 497 12V-92H313V12Q69 62 69 365V483H282V350Q282 211 399 211Q515 211 515 350Q515 447 447 529Q420 561 376 599L295 667Q245 708 214 739Q172 782 144 825Q75 931 75 1069Q75 1367 313 1419Z" />
<glyph unicode="%" glyph-name="percent" horiz-adv-x="1284" d="M212 733Q212 643 286 643Q360 643 360 733V1225Q360 1315 286 1315Q212 1315 212 1225V733ZM69 1214Q69 1444 286 1444Q503 1444 503 1214V743Q503 514 286 514Q69 514 69 743V1214ZM851 1434H984L419
0H286L851 1434ZM923 203Q923 113 997 113Q1070 113 1070 203V694Q1070 784 997 784Q923 784 923 694V203ZM780 684Q780 913 997 913Q1214 913 1214 684V213Q1214 -16 997 -16Q780 -16 780 213V684Z" />
<glyph unicode="&amp;" glyph-name="ampersand" horiz-adv-x="847" d="M83 457Q83 689 239 758Q83 824 83 1053V1079Q83 1434 419 1434H677V1229H423Q308 1229 308 1090V1001Q308 850 443 850H542V1010H767V850H826V645H767V174Q767 58 792 0H562L550 43Q545 69
542 113Q482 -16 333 -16Q83 -16 83 311V457ZM308 330Q308 188 425 188Q536 188 542 313V645H456Q308 645 308 463V330Z" />
<glyph unicode="&apos;" glyph-name="quotesingle" horiz-adv-x="368" d="M75 1434H292L259 1012H106L75 1434Z" />
<glyph unicode="(" glyph-name="parenleft" horiz-adv-x="514" d="M481 1434V1249H426Q321 1249 321 1120V313Q321 184 426 184H481V0H411Q96 0 96 313V1120Q96 1434 411 1434H481Z" />
<glyph unicode=")" glyph-name="parenright" horiz-adv-x="514" d="M102 1434Q417 1434 417 1120V313Q417 0 102 0H32V184H87Q192 184 192 313V1120Q192 1249 87 1249H32V1434H102Z" />
<glyph unicode="*" glyph-name="asterisk" horiz-adv-x="811" d="M366 1096L313 1434H498L444 1096L749 1249L807 1075L471 1018L711 778L563 670L405 973L248 670L100 778L340 1018L4 1075L61 1249L366 1096Z" />
<glyph unicode="+" glyph-name="plus" horiz-adv-x="811" d="M739 516V356H71V516H325V680H71V840H325V1073H485V840H739V680H485V516H739Z" />
<glyph unicode="," glyph-name="comma" horiz-adv-x="380" d="M81 0V217H298V23L200 -205H108L167 0H81Z" />
<glyph unicode="-" glyph-name="hyphen" horiz-adv-x="552" d="M71 819H481V614H71V819Z" />
<glyph unicode="." glyph-name="period" horiz-adv-x="380" d="M298 217V0H81V217H298Z" />
<glyph unicode="/" glyph-name="slash" horiz-adv-x="780" d="M575 1434H770L205 0H10L575 1434Z" />
<glyph unicode="0" glyph-name="zero" horiz-adv-x="811" d="M288 330Q288 188 405 188Q522 188 522 330V1104Q522 1245 405 1245Q288 1245 288 1104V330ZM63 1090Q63 1450 405 1450Q747 1450 747 1090V344Q747 -16 405 -16Q63 -16 63 344V1090Z" />
<glyph unicode="1" glyph-name="one" horiz-adv-x="811" d="M221 1253Q339 1253 397 1307Q436 1343 469 1434H620V0H395V1094H221V1253Z" />
<glyph unicode="2" glyph-name="two" horiz-adv-x="811" d="M527 1245T411 1245Q294 1245 294 1104V950H81V1090Q81 1450 417 1450Q753 1450 753 1090Q753 931 677 788Q646 730 600 669Q566 623 513 565L429 471Q383 420 358 383Q292 287 306 205H732V0H81V176Q81
317 151 437Q179 486 222 539Q249 571 304 632L346 678Q369 703 386 724Q430 777 458 825Q527 944 527 1081Q527 1245 411 1245Z" />
<glyph unicode="3" glyph-name="three" horiz-adv-x="811" d="M515 1081Q515 1245 399 1245Q282 1245 282 1104V1012H69V1090Q69 1450 405 1450Q741 1450 741 1090V1053Q741 823 583 758Q741 689 741 457V344Q741 -16 405 -16Q69 -16 69 344V463H282V330Q282 188
399 188Q515 188 515 350V463Q515 645 368 645H292V850H380Q515 850 515 1001V1081Z" />
<glyph unicode="4" glyph-name="four" horiz-adv-x="811" d="M28 465L438 1434H683V465H790V260H683V0H458V260H28V465ZM458 465V995L235 465H458Z" />
<glyph unicode="5" glyph-name="five" horiz-adv-x="811" d="M284 463V330Q284 190 401 190Q517 190 517 330V645Q517 786 401 786Q284 786 284 645V602H71L112 1434H706V1229H315L296 887Q360 991 493 991Q743 991 743 664V344Q743 -16 407 -16Q71 -16 71 344V463H284Z" />
<glyph unicode="6" glyph-name="six" horiz-adv-x="811" d="M67 1077Q67 1450 411 1450Q747 1450 747 1090V1053H534V1104Q534 1245 417 1245Q292 1245 292 1069V807Q353 934 501 934Q751 934 751 606V344Q751 -16 409 -16Q67 -16 67 344V1077ZM292 729T292 588V330Q292
190 409 190Q526 190 526 330V588Q526 729 409 729Q292 729 292 588Z" />
<glyph unicode="7" glyph-name="seven" horiz-adv-x="811" d="M743 1434V1237L411 0H186L516 1229H67V1434H743Z" />
<glyph unicode="8" glyph-name="eight" horiz-adv-x="811" d="M758 344Q758 -16 405 -16Q53 -16 53 344V457Q53 677 192 756Q53 831 53 1044V1090Q53 1450 405 1450Q758 1450 758 1090V1044Q758 833 618 756Q758 677 758 457V344ZM278 350Q278 188 405 188Q530
188 532 350V483Q532 645 405 645Q278 645 278 483V350ZM278 1001Q278 850 405 850Q532 850 532 1001V1081Q532 1245 405 1245Q278 1245 278 1081V1001Z" />
<glyph unicode="9" glyph-name="nine" horiz-adv-x="811" d="M743 356Q743 -16 399 -16Q63 -16 63 344V381H276V330Q276 188 393 188Q518 188 518 365V627Q457 500 309 500Q59 500 59 827V1090Q59 1450 401 1450Q743 1450 743 1090V356ZM518 705T518 846V1104Q518
1243 401 1243Q284 1243 284 1104V846Q284 705 401 705Q518 705 518 846Z" />
<glyph unicode=":" glyph-name="colon" horiz-adv-x="380" d="M298 217V0H81V217H298ZM298 997V780H81V997H298Z" />
<glyph unicode=";" glyph-name="semicolon" horiz-adv-x="380" d="M81 0V217H298V23L200 -205H108L167 0H81ZM298 997V780H81V997H298Z" />
<glyph unicode="&lt;" glyph-name="less" horiz-adv-x="811" d="M61 637V797L729 1042V881L270 717L729 553V391L61 637Z" />
<glyph unicode="=" glyph-name="equal" horiz-adv-x="811" d="M739 631V471H71V631H739ZM739 963V803H71V963H739Z" />
<glyph unicode="&gt;" glyph-name="greater" horiz-adv-x="811" d="M81 391V553L540 717L81 881V1042L749 797V637L81 391Z" />
<glyph unicode="?" glyph-name="question" horiz-adv-x="737" d="M245 317Q233 354 233 406Q233 510 271 597Q286 631 310 670L401 809Q424 850 440 888Q478 985 478 1104Q478 1245 366 1245Q253 1245 253 1104V948H40V1090Q40 1450 372 1450Q704 1450 704 1090Q704
964 662 861Q645 819 619 776Q601 744 570 702Q565 695 558 685L522 633Q495 595 479 564Q437 484 437 397Q437 353 446 317H245ZM452 217V0H235V217H452Z" />
<glyph unicode="@" glyph-name="at" horiz-adv-x="1411" d="M806 260T794 395Q732 266 596 272Q380 279 411 588L434 795Q466 1107 684 1098Q810 1095 852 971L864 1090H1061L999 498Q993 446 1040 446Q1120 446 1165 600Q1204 731 1204 909Q1204 1110 1107 1221Q1002
1341 797 1341Q527 1341 382 1138Q242 940 242 584Q242 330 358 193Q480 49 719 49Q841 49 934 77Q1041 110 1143 188L1126 -8Q1030 -72 922 -99Q829 -123 706 -123Q374 -123 205 77Q49 261 49 594Q49 994 237 1244Q441 1516 805 1516Q1108 1516 1251 1339Q1374
1187 1374 913Q1374 735 1334 599Q1298 479 1234 398Q1177 327 1104 291Q1040 260 975 260Q806 260 794 395ZM610 598Q596 466 698 463Q799 460 813 592L833 786Q845 901 745 901Q643 904 629 772L610 598Z" />
<glyph unicode="A" glyph-name="A" horiz-adv-x="833" d="M810 0H583L544 260H268L229 0H22L251 1434H581L810 0ZM296 455H514L405 1180L296 455Z" />
<glyph unicode="B" glyph-name="B" horiz-adv-x="831" d="M421 1434Q755 1434 755 1104V1053Q755 832 609 764Q777 698 777 457V340Q777 0 435 0H81V1434H421ZM306 645V205H435Q552 205 552 346V471Q552 645 407 645H306ZM306 1229V850H394Q530 850 530 1001V1081Q530
1229 415 1229H306Z" />
<glyph unicode="C" glyph-name="C" horiz-adv-x="790" d="M735 535V344Q735 -16 399 -16Q63 -16 63 344V1090Q63 1450 399 1450Q735 1450 735 1090V950H522V1104Q522 1245 405 1245Q288 1245 288 1104V330Q288 190 405 190Q522 190 522 330V535H735Z" />
<glyph unicode="D" glyph-name="D" horiz-adv-x="835" d="M81 1434H437Q773 1434 773 1079V354Q773 0 437 0H81V1434ZM306 1229V205H433Q548 205 548 344V1090Q548 1229 433 1229H306Z" />
<glyph unicode="E" glyph-name="E" horiz-adv-x="753" d="M306 829H616V625H306V205H695V0H81V1434H695V1229H306V829Z" />
<glyph unicode="F" glyph-name="F" horiz-adv-x="704" d="M306 797H597V592H306V0H81V1434H677V1229H306V797Z" />
<glyph unicode="G" glyph-name="G" horiz-adv-x="798" d="M419 799H735V344Q735 -16 399 -16Q63 -16 63 344V1090Q63 1450 399 1450Q735 1450 735 1090V950H522V1104Q522 1245 405 1245Q288 1245 288 1104V330Q288 190 405 190Q522 190 522 330V594H419V799Z" />
<glyph unicode="H" glyph-name="H" horiz-adv-x="874" d="M306 0H81V1434H306V819H562V1434H792V0H562V614H306V0Z" />
<glyph unicode="I" glyph-name="I" horiz-adv-x="389" d="M81 1434H306V0H81V1434Z" />
<glyph unicode="J" glyph-name="J" horiz-adv-x="524" d="M20 205Q36 203 59 203H98Q227 203 227 340V1434H452V356Q452 158 354 69Q274 -4 129 -4Q57 -4 20 0V205Z" />
<glyph unicode="K" glyph-name="K" horiz-adv-x="847" d="M374 580L306 461V0H81V1434H306V782L620 1434H826L515 797L826 0H595L374 580Z" />
<glyph unicode="L" glyph-name="L" horiz-adv-x="698" d="M81 1434H306V205H677V0H81V1434Z" />
<glyph unicode="M" glyph-name="M" horiz-adv-x="1107" d="M558 416L712 1434H1025V0H812V1028L657 0H444L276 1014V0H79V1434H392L558 416Z" />
<glyph unicode="N" glyph-name="N" horiz-adv-x="874" d="M282 1038V0H79V1434H362L593 575V1434H794V0H562L282 1038Z" />
<glyph unicode="O" glyph-name="O" horiz-adv-x="811" d="M288 330Q288 188 405 188Q522 188 522 330V1104Q522 1245 405 1245Q288 1245 288 1104V330ZM63 1090Q63 1450 405 1450Q747 1450 747 1090V344Q747 -16 405 -16Q63 -16 63 344V1090Z" />
<glyph unicode="P" glyph-name="P" horiz-adv-x="772" d="M413 1434Q749 1434 749 1079V893Q749 539 413 539H306V0H81V1434H413ZM306 1229V743H413Q523 743 523 879V1094Q523 1229 413 1229H306Z" />
<glyph unicode="Q" glyph-name="Q" horiz-adv-x="811" d="M63 1090Q63 1450 405 1450Q747 1450 747 1090V344Q747 223 704 143Q716 113 768 113H788V-88H757Q612 -88 563 10Q489 -16 405 -16Q63 -16 63 344V1090ZM288 330Q288 188 405 188Q522 188 522 330V1104Q522
1245 405 1245Q288 1245 288 1104V330Z" />
<glyph unicode="R" glyph-name="R" horiz-adv-x="823" d="M552 0Q541 34 537 58Q532 97 532 176V401Q532 584 384 584H306V0H81V1434H421Q755 1434 755 1104V991Q755 770 607 700Q757 638 757 395V174Q757 58 781 0H552ZM306 1229V788H394Q530 788 530 940V1081Q530
1229 415 1229H306Z" />
<glyph unicode="S" glyph-name="S" horiz-adv-x="765" d="M53 1450T385 1450Q717 1450 717 1090V1014H504V1104Q504 1245 391 1245Q278 1245 278 1104Q278 1007 347 918Q374 884 418 842L478 786Q490 775 499 767Q549 721 579 687Q622 640 650 594Q719 482 719
344Q719 -16 383 -16Q47 -16 47 344V483H260V330Q260 190 377 190Q493 190 493 330Q493 427 425 515Q398 549 354 592L273 667Q223 713 192 747Q150 794 122 839Q53 952 53 1090Q53 1450 385 1450Z" />
<glyph unicode="T" glyph-name="T" horiz-adv-x="737" d="M20 1434H716V1229H481V0H256V1229H20V1434Z" />
<glyph unicode="U" glyph-name="U" horiz-adv-x="815" d="M296 1434V328Q296 188 413 188Q530 188 530 328V1434H743V342Q743 -18 407 -18Q71 -18 71 342V1434H296Z" />
<glyph unicode="V" glyph-name="V" horiz-adv-x="823" d="M421 264L593 1434H800L579 0H243L22 1434H249L421 264Z" />
<glyph unicode="W" glyph-name="W" horiz-adv-x="1153" d="M581 764L499 0H190L30 1434H249L370 303L479 1434H696L808 295L925 1434H1122L962 0H663L581 764Z" />
<glyph unicode="X" glyph-name="X" horiz-adv-x="880" d="M833 1434L597 737L849 0H612L427 567L241 0H30L282 737L46 1434H280L450 905L624 1434H833Z" />
<glyph unicode="Y" glyph-name="Y" horiz-adv-x="811" d="M293 475L8 1434H244L416 780L588 1434H803L518 475V0H293V475Z" />
<glyph unicode="Z" glyph-name="Z" horiz-adv-x="757" d="M706 1434V1233L278 205H706V0H47V201L475 1229H67V1434H706Z" />
<glyph unicode="[" glyph-name="bracketleft" horiz-adv-x="514" d="M96 1434H469V1249H321V184H469V0H96V1434Z" />
<glyph unicode="\" glyph-name="backslash" horiz-adv-x="780" d="M770 0H575L10 1434H205L770 0Z" />
<glyph unicode="]" glyph-name="bracketright" horiz-adv-x="514" d="M418 0H45V184H192V1249H45V1434H418V0Z" />
<glyph unicode="^" glyph-name="asciicircum" horiz-adv-x="811" d="M325 1434H484L769 799H589L405 1229L220 799H40L325 1434Z" />
<glyph unicode="_" glyph-name="underscore" horiz-adv-x="1024" d="M0 -20H1024V-184H0V-20Z" />
<glyph unicode="`" glyph-name="grave" horiz-adv-x="512" d="M303 1743L450 1503H280L59 1743H303Z" />
<glyph unicode="a" glyph-name="a" horiz-adv-x="833" d="M810 0H583L544 260H268L229 0H22L251 1434H581L810 0ZM296 455H514L405 1180L296 455Z" />
<glyph unicode="b" glyph-name="b" horiz-adv-x="831" d="M421 1434Q755 1434 755 1104V1053Q755 832 609 764Q777 698 777 457V340Q777 0 435 0H81V1434H421ZM306 645V205H435Q552 205 552 346V471Q552 645 407 645H306ZM306 1229V850H394Q530 850 530 1001V1081Q530
1229 415 1229H306Z" />
<glyph unicode="c" glyph-name="c" horiz-adv-x="790" d="M735 535V344Q735 -16 399 -16Q63 -16 63 344V1090Q63 1450 399 1450Q735 1450 735 1090V950H522V1104Q522 1245 405 1245Q288 1245 288 1104V330Q288 190 405 190Q522 190 522 330V535H735Z" />
<glyph unicode="d" glyph-name="d" horiz-adv-x="835" d="M81 1434H437Q773 1434 773 1079V354Q773 0 437 0H81V1434ZM306 1229V205H433Q548 205 548 344V1090Q548 1229 433 1229H306Z" />
<glyph unicode="e" glyph-name="e" horiz-adv-x="753" d="M306 829H616V625H306V205H695V0H81V1434H695V1229H306V829Z" />
<glyph unicode="f" glyph-name="f" horiz-adv-x="704" d="M306 797H597V592H306V0H81V1434H677V1229H306V797Z" />
<glyph unicode="g" glyph-name="g" horiz-adv-x="798" d="M419 799H735V344Q735 -16 399 -16Q63 -16 63 344V1090Q63 1450 399 1450Q735 1450 735 1090V950H522V1104Q522 1245 405 1245Q288 1245 288 1104V330Q288 190 405 190Q522 190 522 330V594H419V799Z" />
<glyph unicode="h" glyph-name="h" horiz-adv-x="874" d="M306 0H81V1434H306V819H562V1434H792V0H562V614H306V0Z" />
<glyph unicode="i" glyph-name="i" horiz-adv-x="389" d="M81 1434H306V0H81V1434Z" />
<glyph unicode="j" glyph-name="j" horiz-adv-x="524" d="M20 205Q36 203 59 203H98Q227 203 227 340V1434H452V356Q452 158 354 69Q274 -4 129 -4Q57 -4 20 0V205Z" />
<glyph unicode="k" glyph-name="k" horiz-adv-x="847" d="M374 580L306 461V0H81V1434H306V782L620 1434H826L515 797L826 0H595L374 580Z" />
<glyph unicode="l" glyph-name="l" horiz-adv-x="698" d="M81 1434H306V205H677V0H81V1434Z" />
<glyph unicode="m" glyph-name="m" horiz-adv-x="1107" d="M558 416L712 1434H1025V0H812V1028L657 0H444L276 1014V0H79V1434H392L558 416Z" />
<glyph unicode="n" glyph-name="n" horiz-adv-x="874" d="M282 1038V0H79V1434H362L593 575V1434H794V0H562L282 1038Z" />
<glyph unicode="o" glyph-name="o" horiz-adv-x="811" d="M288 330Q288 188 405 188Q522 188 522 330V1104Q522 1245 405 1245Q288 1245 288 1104V330ZM63 1090Q63 1450 405 1450Q747 1450 747 1090V344Q747 -16 405 -16Q63 -16 63 344V1090Z" />
<glyph unicode="p" glyph-name="p" horiz-adv-x="772" d="M413 1434Q749 1434 749 1079V893Q749 539 413 539H306V0H81V1434H413ZM306 1229V743H413Q523 743 523 879V1094Q523 1229 413 1229H306Z" />
<glyph unicode="q" glyph-name="q" horiz-adv-x="811" d="M63 1090Q63 1450 405 1450Q747 1450 747 1090V344Q747 223 704 143Q716 113 768 113H788V-88H757Q612 -88 563 10Q489 -16 405 -16Q63 -16 63 344V1090ZM288 330Q288 188 405 188Q522 188 522 330V1104Q522
1245 405 1245Q288 1245 288 1104V330Z" />
<glyph unicode="r" glyph-name="r" horiz-adv-x="823" d="M552 0Q541 34 537 58Q532 97 532 176V401Q532 584 384 584H306V0H81V1434H421Q755 1434 755 1104V991Q755 770 607 700Q757 638 757 395V174Q757 58 781 0H552ZM306 1229V788H394Q530 788 530 940V1081Q530
1229 415 1229H306Z" />
<glyph unicode="s" glyph-name="s" horiz-adv-x="765" d="M53 1450T385 1450Q717 1450 717 1090V1014H504V1104Q504 1245 391 1245Q278 1245 278 1104Q278 1007 347 918Q374 884 418 842L478 786Q490 775 499 767Q549 721 579 687Q622 640 650 594Q719 482 719
344Q719 -16 383 -16Q47 -16 47 344V483H260V330Q260 190 377 190Q493 190 493 330Q493 427 425 515Q398 549 354 592L273 667Q223 713 192 747Q150 794 122 839Q53 952 53 1090Q53 1450 385 1450Z" />
<glyph unicode="t" glyph-name="t" horiz-adv-x="737" d="M20 1434H716V1229H481V0H256V1229H20V1434Z" />
<glyph unicode="u" glyph-name="u" horiz-adv-x="815" d="M296 1434V328Q296 188 413 188Q530 188 530 328V1434H743V342Q743 -18 407 -18Q71 -18 71 342V1434H296Z" />
<glyph unicode="v" glyph-name="v" horiz-adv-x="823" d="M421 264L593 1434H800L579 0H243L22 1434H249L421 264Z" />
<glyph unicode="w" glyph-name="w" horiz-adv-x="1153" d="M581 764L499 0H190L30 1434H249L370 303L479 1434H696L808 295L925 1434H1122L962 0H663L581 764Z" />
<glyph unicode="x" glyph-name="x" horiz-adv-x="880" d="M833 1434L597 737L849 0H612L427 567L241 0H30L282 737L46 1434H280L450 905L624 1434H833Z" />
<glyph unicode="y" glyph-name="y" horiz-adv-x="811" d="M293 475L8 1434H244L416 780L588 1434H803L518 475V0H293V475Z" />
<glyph unicode="z" glyph-name="z" horiz-adv-x="757" d="M706 1434V1233L278 205H706V0H47V201L475 1229H67V1434H706Z" />
<glyph unicode="{" glyph-name="braceleft" horiz-adv-x="526" d="M280 699T313 644Q338 602 341 535L352 330Q360 184 460 184H493V0H378Q166 0 151 227L135 502Q127 625 22 625V809Q127 809 135 932L151 1206Q166 1434 378 1434H493V1249H460Q360 1249 352 1104L341
899Q338 832 313 790Q280 735 208 717Q280 699 313 644Z" />
<glyph unicode="|" glyph-name="bar" horiz-adv-x="1024" d="M430 1567H614V-133H430V1567Z" />
<glyph unicode="}" glyph-name="braceright" horiz-adv-x="526" d="M245 735T212 790Q187 832 184 899L173 1104Q165 1249 65 1249H32V1434H147Q359 1434 374 1206L390 932Q398 809 503 809V625Q398 625 390 502L374 227Q359 0 147 0H32V184H65Q165 184 173 330L184
535Q187 602 212 644Q245 699 317 717Q245 735 212 790Z" />
<glyph unicode="~" glyph-name="asciitilde" horiz-adv-x="811" d="M16 680Q87 784 146 827Q198 864 260 864Q297 864 340 845Q369 832 415 802L451 779Q471 766 486 759Q524 739 553 739Q604 739 688 856L794 745Q725 643 665 603Q614 569 551 569Q513 569 470
589Q442 602 395 632Q392 634 386 638L359 655Q339 667 324 675Q286 694 258 694Q204 694 122 578L16 680Z" />
</font>
</defs>
</svg>
