<?xml version="1.0" standalone="no"?>
<!DOCTYPE svg PUBLIC "-//W3C//DTD SVG 1.1//EN" "http://www.w3.org/Graphics/SVG/1.1/DTD/svg11.dtd" >
<svg xmlns="http://www.w3.org/2000/svg">
<metadata></metadata>
<defs>
<font id="utm_swiss_condensedbold" horiz-adv-x="1024" >
<font-face units-per-em="2048" ascent="1638" descent="-410" />
<missing-glyph horiz-adv-x="512" />
<glyph horiz-adv-x="2048" />
<glyph horiz-adv-x="2048" />
<glyph unicode="&#xd;" horiz-adv-x="508" />
<glyph unicode=" "  horiz-adv-x="512" />
<glyph unicode="&#x09;" horiz-adv-x="512" />
<glyph unicode="&#xa0;" horiz-adv-x="512" />
<glyph unicode="!" horiz-adv-x="598" d="M160 1042v498h276v-498l-53 -639h-172zM166 0v279h262v-279h-262z" />
<glyph unicode="&#x22;" horiz-adv-x="678" d="M80 879v559h192v-559h-192zM406 879v559h192v-559h-192z" />
<glyph unicode="#" horiz-adv-x="1575" d="M45 406l76 200h282l86 242h-299l74 201h297l148 415h221l-146 -415h242l148 415h221l-148 -415h283l-74 -201h-280l-84 -242h290l-71 -200h-291l-148 -416h-221l148 416h-244l-149 -416h-220l146 416h-287zM621 604h251l86 244h-249z" />
<glyph unicode="$" d="M74 444v39h243l-1 -24l-1 -23q0 -105 33.5 -162.5t106.5 -70.5v454q-196 108 -280.5 218.5t-84.5 259.5q0 173 94 276q49 53 114.5 82t147.5 29v137h113v-139q169 0 262 -96q90 -93 90 -273v-29h-237v21q0 83 -33 133.5t-90 50.5v-409q226 -116 310.5 -224t84.5 -268 q0 -197 -100 -307q-52 -57 -123.5 -89t-163.5 -32v-199h-113v199q-90 0 -159.5 32t-119.5 91q-93 111 -93 323zM334 1165q0 -56 29.5 -103.5t91.5 -88.5l-1 356q-27 0 -49.5 -12.5t-39.5 -35.5q-31 -43 -31 -116zM551 203q66 12 101.5 58.5t35.5 123.5q0 74 -30 123 t-107 100v-405z" />
<glyph unicode="%" horiz-adv-x="1579" d="M90 1176q0 199 72.5 286.5t240.5 87.5q173 0 247.5 -86t74.5 -286q0 -207 -77 -300.5t-245 -93.5q-166 0 -239.5 90.5t-73.5 301.5zM291 1169q0 -135 24.5 -182t90.5 -47q65 0 90.5 46t25.5 183q0 127 -26.5 176.5t-94.5 49.5q-59 0 -84.5 -48.5t-25.5 -177.5zM360 -29 l705 1579h149l-706 -1579h-148zM852 360q0 201 73.5 289t239.5 88q171 0 247.5 -87.5t76.5 -287.5q0 -203 -77.5 -297t-246.5 -94q-167 0 -240 90t-73 299zM1055 356q0 -134 24 -182.5t90 -48.5q65 0 92 45q25 47 25 184q0 128 -27 178t-94 50q-59 0 -84.5 -48.5 t-25.5 -177.5z" />
<glyph unicode="&#x26;" horiz-adv-x="1348" d="M121 434q0 138 64 243t229 230q-65 100 -93 176t-28 146q0 139 90.5 225t239.5 86q160 0 247.5 -75.5t87.5 -217.5q0 -119 -55 -215.5t-164 -169.5l185 -317q18 50 27 110q4 26 7 62.5t3 70.5v25h235q0 -157 -35 -286q-31 -123 -96 -218l182 -309h-305l-51 98 q-62 -62 -144 -93.5t-188 -31.5q-203 0 -320.5 123.5t-117.5 337.5zM389 451q0 -104 60 -177t145 -73q48 0 92.5 19t95.5 65l-252 417q-69 -47 -105 -111t-36 -140zM532 1247q0 -12 6 -30l7.5 -17.5t9.5 -19.5l68 -125q53 43 81.5 89t28.5 97q0 55 -24.5 84t-73.5 29 t-77 -28q-26 -28 -26 -79z" />
<glyph unicode="'" horiz-adv-x="352" d="M80 879v559h192v-559h-192z" />
<glyph unicode="(" horiz-adv-x="674" d="M141 637q0 258 76.5 498.5t222.5 441.5h166q-96 -165 -146 -419t-50 -572q0 -160 12 -296.5t38 -258.5q50 -238 154 -420h-168q-156 225 -230.5 475t-74.5 551z" />
<glyph unicode=")" horiz-adv-x="674" d="M66 -389q103 180 153.5 420.5t50.5 554.5q0 163 -12 304.5t-38 269.5q-48 253 -146 417h166q144 -200 221.5 -442.5t77.5 -497.5q0 -306 -74 -553.5t-232 -472.5h-167z" />
<glyph unicode="*" d="M127 1192l57 178l236 -78v248h184v-248l236 78l57 -178l-233 -76l143 -201l-150 -108l-145 201l-145 -201l-150 108l143 201z" />
<glyph unicode="+" horiz-adv-x="1706" d="M254 512v199h498v510h202v-510h498v-199h-498v-512h-202v512h-498z" />
<glyph unicode="," horiz-adv-x="512" d="M127 0v276h258v-278q0 -127 -69 -207t-189 -92v104q63 6 101 55.5t38 125.5v16h-139z" />
<glyph unicode="-" horiz-adv-x="672" d="M92 459v239h488v-239h-488z" />
<glyph unicode="." horiz-adv-x="512" d="M127 0v276h258v-276h-258z" />
<glyph unicode="/" horiz-adv-x="629" d="M-61 -190l577 1767h152l-578 -1767h-151z" />
<glyph unicode="0" d="M88 772q0 136 4 237.5t13 169.5q18 136 59 201q54 90 137 130t211 40q68 0 117 -9t94 -31q80 -39 137 -130q40 -65 58 -199t18 -409q0 -140 -4 -243.5t-13 -171.5q-15 -133 -55 -201q-56 -97 -139.5 -141t-212.5 -44q-131 0 -213.5 43.5t-138.5 141.5q-38 64 -56 195 q-8 68 -12 168t-4 253zM375 471q0 -184 29 -236.5t108 -52.5q77 0 107 54.5t30 248.5v148v416q0 181 -29.5 234.5t-107.5 53.5t-107.5 -54.5t-29.5 -246.5v-147v-418z" />
<glyph unicode="1" d="M92 1085v182q93 0 166 19.5t129 57.5q104 71 125 206h190v-1550h-270v1085h-340z" />
<glyph unicode="2" d="M86 49q0 177 72 339t223 319l80 78q100 95 133 143q29 43 44 96.5t15 120.5q0 98 -35 145t-108 47q-76 0 -112 -58t-36 -185l1 -37l1 -23h-268l-1 27l-1 24q0 240 102.5 352.5t321.5 112.5q207 0 315.5 -101t108.5 -292q0 -91 -19 -164t-61 -143q-32 -54 -143 -167 l-89 -92q-220 -244 -251 -345h545v-246h-836l-1 24z" />
<glyph unicode="3" d="M82 457l1 30l1 31h268v-18q0 -173 35 -241.5t121 -68.5q83 0 118.5 60.5t35.5 216.5t-42.5 206t-164.5 50l-45 -1l-35 -1v201h20q136 0 188 46t52 171q0 115 -30.5 159.5t-104.5 44.5q-72 0 -104 -50q-15 -24 -23 -64.5t-8 -98.5v-36h-267q0 13 -2 21v36q0 198 105 298.5 t311 100.5q191 0 295 -103t104 -294q0 -129 -45 -210.5t-133 -111.5q107 -27 160 -116.5t53 -247.5q0 -248 -110.5 -372t-335.5 -124q-213 0 -315.5 119t-102.5 367z" />
<glyph unicode="4" d="M70 305v246l456 971h293v-987h129v-230h-129v-305h-262v305h-487zM276 528h287v627z" />
<glyph unicode="5" d="M80 455v39h266v-41q0 -134 39 -203.5t117 -69.5q79 0 115 81t36 263q0 165 -39.5 240.5t-128.5 75.5q-59 0 -97 -34t-44 -91h-250l41 807h729v-246h-516l-16 -309q40 43 91.5 64.5t119.5 21.5q195 0 293 -127.5t98 -382.5q0 -299 -105 -436.5t-335 -137.5 q-212 0 -313 119t-101 367z" />
<glyph unicode="6" d="M90 754q0 134 4 235t13 170q18 138 57 207q54 95 143.5 139.5t224.5 44.5q179 0 276 -85t97 -240v-23h-266v15q0 62 -29.5 94t-91.5 32q-81 0 -115 -71q-16 -34 -25 -97.5t-9 -150.5l1 -43l1 -45q33 51 87.5 77.5t129.5 26.5q177 0 262.5 -119t85.5 -368q0 -318 -98 -450 t-328 -132q-124 0 -204.5 40.5t-137.5 131.5q-42 69 -60 206.5t-18 404.5zM371 506q0 -179 32 -246t111 -67q78 0 108.5 59t30.5 250t-30 250t-111 59q-77 0 -109 -67.5t-32 -237.5z" />
<glyph unicode="7" d="M84 1268v254h852v-222q-155 -289 -250 -618q-34 -119 -58 -221q-30 -126 -44 -227q-17 -121 -17 -234h-295q0 93 15.5 190t43.5 206q21 81 61 210q98 317 270 662h-578z" />
<glyph unicode="8" d="M92 430q0 183 53.5 278.5t171.5 125.5q-96 29 -145 113q-23 41 -36 97t-13 123q0 185 100 283t291 98t291 -100t100 -289q0 -134 -49.5 -213t-153.5 -112q122 -24 177 -115.5t55 -267.5q0 -247 -103 -362.5t-321 -115.5q-213 0 -315.5 111.5t-102.5 345.5zM373 438 q0 -141 31 -193t108 -52q79 0 110 55.5t31 212.5q0 152 -32 211t-109 59q-78 0 -108.5 -58t-30.5 -235zM387 1139q0 -114 28.5 -159.5t96.5 -45.5t97.5 47t29.5 158t-30.5 157.5t-100.5 46.5q-65 0 -93 -47t-28 -157z" />
<glyph unicode="9" d="M84 969q0 316 95 448.5t317 132.5q134 0 217.5 -40t138.5 -132q42 -66 60 -204t18 -406q0 -137 -4 -240t-13 -171q-15 -136 -55 -201q-53 -93 -140 -139t-212 -46q-195 0 -293 84.5t-98 253.5v10h268v-16q0 -59 31.5 -91t89.5 -32q81 0 114 69t33 257v80 q-33 -52 -88 -77.5t-133 -25.5q-177 0 -261.5 119t-84.5 367zM369 1020q0 -196 29.5 -252.5t111.5 -56.5q78 0 108.5 64t30.5 245q0 180 -30.5 244.5t-110.5 64.5q-78 0 -108.5 -59t-30.5 -250z" />
<glyph unicode=":" horiz-adv-x="559" d="M152 0v276h256v-276h-256zM152 862v277h256v-277h-256z" />
<glyph unicode=";" horiz-adv-x="559" d="M152 0v276h256v-294q0 -110 -75 -194q-38 -43 -82.5 -66t-98.5 -23v104q63 6 100 55t37 126v16h-137zM152 862v277h256v-277h-256z" />
<glyph unicode="&#x3c;" horiz-adv-x="1706" d="M264 512v199l1178 483v-219l-893 -365l893 -364v-219z" />
<glyph unicode="=" horiz-adv-x="1706" d="M254 297v199h1198v-199h-1198zM254 727v199h1198v-199h-1198z" />
<glyph unicode="&#x3e;" horiz-adv-x="1706" d="M264 27v219l895 364l-895 365v219l1178 -483v-199z" />
<glyph unicode="?" horiz-adv-x="1006" d="M109 1126v39q0 198 101.5 305t291.5 107q182 0 288.5 -104.5t106.5 -286.5q0 -70 -15.5 -129t-45.5 -109q-37 -62 -113 -149t-100 -121q-35 -46 -52.5 -102.5t-17.5 -124.5l1 -19l1 -18h-241l-3 28v43q0 55 6 100.5t20 86.5q26 78 93 164l52 62q134 155 134 300 q0 80 -32 122t-92 42q-67 0 -100.5 -48.5t-33.5 -150.5v-37h-249zM309 0v266h256v-266h-256z" />
<glyph unicode="@" horiz-adv-x="2048" d="M90 520q0 168 52.5 320t154.5 274q147 180 355 273.5t464 93.5q85 0 162 -11t155 -35q150 -45 259 -128q135 -105 201.5 -240.5t66.5 -302.5q0 -164 -65.5 -303.5t-188.5 -239.5q-67 -54 -153 -86q-82 -29 -171 -29q-104 0 -159.5 43t-55.5 123q-54 -84 -126.5 -123.5 t-170.5 -39.5q-158 0 -240.5 86.5t-82.5 253.5q0 238 139.5 400.5t343.5 162.5q79 0 138.5 -33t97.5 -98l53 98h178l-147 -598l-5 -23l-2 -18q0 -33 24 -53q25 -17 71 -17q22 0 40 4t41 16q42 20 80 56q85 79 130 186.5t45 235.5q0 239 -185.5 394t-478.5 155 q-142 0 -263.5 -33.5t-219.5 -101.5q-169 -113 -261 -285.5t-92 -374.5q0 -305 207 -489.5t553 -184.5q163 0 317.5 48.5t286.5 142.5l82 -117q-151 -112 -325 -171.5t-357 -59.5q-193 0 -353 49q-81 24 -151.5 59t-134.5 84q-154 119 -231.5 278.5t-77.5 358.5zM760 444 q0 -91 40.5 -139.5t117.5 -48.5q82 0 151 63t94 164l54 217q-12 82 -57.5 124t-117.5 42q-114 0 -198 -123.5t-84 -298.5z" />
<glyph unicode="A" horiz-adv-x="1120" d="M18 0l347 1540h385l350 -1540h-309l-76 387h-330l-74 -387h-293zM430 618h244l-123 646z" />
<glyph unicode="B" horiz-adv-x="1116" d="M131 0v1540h461q199 0 295 -92t96 -283q0 -153 -47 -236.5t-143 -101.5q108 -15 168.5 -108t60.5 -244q0 -245 -103 -360t-319 -115h-469zM410 219h118q111 0 156 54t45 190q0 140 -48.5 193t-184.5 53h-86v-490zM410 915h96q108 0 149 47t41 173q0 112 -41.5 154 t-156.5 42h-88v-416z" />
<glyph unicode="C" horiz-adv-x="1122" d="M100 788q0 241 18.5 381t59.5 207q62 105 154 153t235 48q234 0 341 -122.5t107 -391.5h-278v37q0 126 -40 187t-124 61q-102 0 -140 -85.5t-38 -469.5q0 -414 36 -505t140 -91q95 0 133.5 70.5t38.5 260.5v21h279l1 -30l1 -30q0 -268 -112 -397t-345 -129 q-112 0 -189.5 28t-135.5 89q-77 78 -109.5 220t-32.5 488z" />
<glyph unicode="D" horiz-adv-x="1204" d="M131 0v1540h461q140 0 224 -24t138 -78q81 -78 114 -200q16 -59 25 -154t9 -220q0 -332 -22.5 -465t-76.5 -228t-150 -133t-327 -38h-395zM412 227h127q98 0 136 13.5t62 48.5q39 60 56.5 166t17.5 333t-20 328t-68 152q-24 26 -65 36.5t-123 10.5h-123v-1088z" />
<glyph unicode="E" horiz-adv-x="1014" d="M131 0v1540h791v-256h-506v-356h471v-244h-471v-424h518v-260h-803z" />
<glyph unicode="F" horiz-adv-x="1001" d="M131 0v1540h805v-252h-518v-364h489v-246h-489v-678h-287z" />
<glyph unicode="G" horiz-adv-x="1206" d="M100 817q0 233 23.5 369t73.5 209q60 91 159.5 135.5t245.5 44.5q246 0 364.5 -117.5t118.5 -363.5v-39h-268v16q0 138 -51.5 208.5t-153.5 70.5q-124 0 -170.5 -97t-46.5 -508q0 -327 44 -436.5t159 -109.5q114 0 162.5 79t48.5 263v53h-199v246h475v-840h-194l-21 170 q-44 -111 -120 -159t-211 -48q-240 0 -339.5 183.5t-99.5 670.5z" />
<glyph unicode="H" horiz-adv-x="1225" d="M131 0v1540h285v-604h393v604h285v-1540h-285v698h-393v-698h-285z" />
<glyph unicode="I" horiz-adv-x="549" d="M131 0v1540h287v-1540h-287z" />
<glyph unicode="J" horiz-adv-x="903" d="M25 330v157h262v-182q0 -59 24 -90t76 -31q54 0 75 34.5t21 160.5v70v1091h281v-1083q0 -164 -6.5 -220.5t-22.5 -91.5q-41 -90 -128 -136t-222 -46q-179 0 -269.5 92.5t-90.5 274.5z" />
<glyph unicode="K" horiz-adv-x="1118" d="M131 0v1540h281v-643l350 643h319l-389 -639l414 -901h-315l-277 637l-102 -170v-467h-281z" />
<glyph unicode="L" horiz-adv-x="999" d="M131 0v1540h287v-1278h518v-262h-805z" />
<glyph unicode="M" horiz-adv-x="1548" d="M131 0v1540h432l211 -997l211 997h432v-1540h-274l6 1366l-287 -1366h-176l-287 1366l7 -1366h-275z" />
<glyph unicode="N" horiz-adv-x="1221" d="M131 0v1540h295l401 -1077l-8 1077h271v-1540h-293l-404 1079l8 -1079h-270z" />
<glyph unicode="O" horiz-adv-x="1202" d="M100 770q0 250 22.5 393.5t72.5 218.5q66 105 159.5 150t245.5 45q150 0 243.5 -44.5t162.5 -150.5q47 -73 71 -222q11 -70 17 -169t6 -221q0 -249 -23 -393.5t-71 -218.5q-68 -106 -161 -150.5t-245 -44.5q-150 0 -243.5 45t-161.5 150q-48 74 -72 220q-11 71 -17 170 t-6 222zM393 770q0 -381 44.5 -479t164.5 -98q116 0 160.5 96.5t44.5 480.5q0 385 -44 482.5t-163 97.5q-118 0 -163 -98q-22 -49 -33 -168t-11 -314z" />
<glyph unicode="P" horiz-adv-x="1116" d="M131 0v1540h498q227 0 328 -102q50 -51 75 -133.5t25 -200.5q0 -229 -106 -340t-326 -111h-209v-653h-285zM408 866h120q133 0 187.5 52.5t54.5 179.5q0 128 -49 177.5t-189 49.5h-124v-459z" />
<glyph unicode="Q" horiz-adv-x="1202" d="M100 770q0 249 23 392.5t72 219.5q66 105 159.5 150t245.5 45q150 0 243.5 -44.5t162.5 -150.5q47 -73 71 -223q11 -71 17 -168.5t6 -220.5q0 -259 -23 -404.5t-71 -207.5l172 -172l-146 -148l-176 176q-24 -12 -52 -21.5t-63 -16.5q-67 -13 -141 -13q-150 0 -243.5 45 t-161.5 150q-48 75 -71.5 223.5t-23.5 388.5zM393 770q0 -375 41.5 -476t153.5 -101l30 2q15 0 50 8l-84 86l143 145l61 -63q12 85 14 105.5t2 54.5q0 35 2.5 100.5t2.5 83.5q0 431 -44 533t-165 102q-118 0 -163 -98q-22 -49 -33 -168t-11 -314z" />
<glyph unicode="R" horiz-adv-x="1182" d="M131 0v1540h514q233 0 335 -95q51 -47 77 -123.5t26 -184.5q0 -151 -54 -236t-163 -102q103 -27 158 -114.5t55 -230.5v-20l8 -204q0 -41 5.5 -75.5t16.5 -64.5q19 -53 56 -90h-340q-12 39 -18 91q-2 22 -5 67t-3 82l-4 161v41q0 133 -57.5 183.5t-231.5 50.5h-98v-676 h-277zM408 889h165q124 0 173 50.5t49 178.5q0 114 -53.5 160.5t-192.5 46.5h-141v-436z" />
<glyph unicode="S" horiz-adv-x="1122" d="M98 449l4 86v6h287v-99q0 -141 35.5 -193t122.5 -52q91 0 138.5 45.5t47.5 136.5q0 68 -33 117.5t-143 128.5l-147 104q-188 132 -240.5 218t-52.5 216q0 193 115 303.5t317 110.5q212 0 327 -117t115 -336l-1 -34l-1 -21h-272v41q0 125 -41 179t-135 54 q-69 0 -108.5 -40t-39.5 -113q0 -95 177 -215l3 -2l158 -107q168 -111 228.5 -211t60.5 -254q0 -210 -120 -324t-343 -114q-230 0 -344.5 120.5t-114.5 365.5z" />
<glyph unicode="T" horiz-adv-x="987" d="M20 1286v254h947v-254h-330v-1286h-287v1286h-330z" />
<glyph unicode="U" horiz-adv-x="1223" d="M131 477v1063h287v-1038q0 -177 43.5 -241t154.5 -64q109 0 152 64.5t43 244.5v1034h283v-1063q0 -153 -17 -225t-59 -127q-61 -80 -164 -122q-52 -20 -111 -30t-131 -10q-263 0 -372 114t-109 400z" />
<glyph unicode="V" horiz-adv-x="1120" d="M27 1540h307l229 -1229l207 1229h303l-323 -1540h-377z" />
<glyph unicode="W" horiz-adv-x="1677" d="M37 1540h297l188 -1167l201 1167h238l221 -1190l164 1190h294l-280 -1540h-340l-178 973l-164 -973h-342z" />
<glyph unicode="X" horiz-adv-x="1122" d="M18 0l377 786l-358 754h323l205 -485l209 485h320l-371 -754l381 -786h-324l-223 514l-227 -514h-312z" />
<glyph unicode="Y" horiz-adv-x="1126" d="M18 1540h318l233 -579l230 579h309l-397 -887v-653h-289v653z" />
<glyph unicode="Z" horiz-adv-x="991" d="M61 0v260l541 1040h-514v240h819v-237l-534 -1043h557v-260h-869z" />
<glyph unicode="[" horiz-adv-x="672" d="M160 -418v1958h411v-170h-159v-1618h159v-170h-411z" />
<glyph unicode="\" horiz-adv-x="629" d="M-61 1577h151l578 -1767h-152z" />
<glyph unicode="]" horiz-adv-x="672" d="M78 -248h162v1618h-162v170h411v-1958h-411v170z" />
<glyph unicode="^" horiz-adv-x="2048" d="M416 899l481 561h252l481 -561h-235l-371 371l-373 -371h-235z" />
<glyph unicode="_" d="M0 -279h1024v-204h-1024v204z" />
<glyph unicode="`" d="M223 1565h256l174 -285h-125z" />
<glyph unicode="a" horiz-adv-x="993" d="M92 305q0 142 64 226t256 171l54 24q157 66 157 157q0 54 -30.5 84t-88.5 30q-72 0 -107 -39.5t-35 -121.5v-23h-260q0 195 96 284t306 89t295.5 -82t85.5 -285v-653q0 -47 9 -87t30 -79h-260q-8 11 -16 39l-13 73q-41 -68 -108 -105.5t-156 -37.5q-132 0 -205.5 89.5 t-73.5 246.5zM369 328q0 -77 28.5 -113.5t89.5 -36.5q69 0 104.5 61t35.5 183v184q-150 -75 -204 -136t-54 -142z" />
<glyph unicode="b" horiz-adv-x="995" d="M117 0v1540h268v-481q33 65 89 97t138 32q165 0 232 -133.5t67 -481.5q0 -337 -68.5 -470.5t-236.5 -133.5q-86 0 -144 38.5t-91 113.5v-121h-254zM377 530q0 -217 29.5 -278.5t109.5 -61.5q70 0 96.5 68.5t26.5 316.5q0 131 -6 209.5t-20 112.5q-26 66 -97 66 q-79 0 -109 -76t-30 -357z" />
<glyph unicode="c" horiz-adv-x="930" d="M82 578q0 351 87 480.5t304 129.5q191 0 282 -95.5t91 -293.5v-41h-256v26q0 104 -27 151q-13 22 -35 34t-53 12q-61 0 -89 -45t-28 -150v-399q0 -60 6 -101t20 -65q26 -47 89 -47q67 0 94 54t27 202v25l252 -1l1 -26l1 -39q0 -216 -91 -318t-284 -102 q-216 0 -303.5 129.5t-87.5 479.5z" />
<glyph unicode="d" horiz-adv-x="995" d="M84 573q0 349 67 482t232 133q83 0 137.5 -31.5t89.5 -97.5v481h269v-1540h-254v121q-33 -76 -92 -114t-144 -38q-166 0 -235.5 132.5t-69.5 471.5zM356 596q0 -136 6 -218.5t20 -118.5q26 -69 97 -69q79 0 109 61.5t30 252.5q0 305 -29.5 382t-109.5 77q-68 0 -95.5 -66 t-27.5 -301z" />
<glyph unicode="e" horiz-adv-x="975" d="M84 616q0 213 20 302.5t69 149t129 89.5q41 15 88.5 23t103.5 8q106 0 184.5 -32.5t128.5 -98.5q42 -56 61 -146q9 -43 14 -114t5 -168v-88h-526l-3 -28v-46q0 -165 30 -231t104 -66q71 0 103 54t32 173h252l1 -23l1 -22q0 -199 -94.5 -291t-299.5 -92q-107 0 -180 27 t-121 84q-55 65 -79 169q-11 50 -17 142t-6 225zM356 774l1 -17l1 -32h260v49q0 119 -29 164t-102 45q-70 0 -100.5 -46t-30.5 -163z" />
<glyph unicode="f" horiz-adv-x="563" d="M37 958v199h104v115q0 148 57 211t191 63h26.5t32.5 -2h41q20 -3 29 -4v-201l-14 1l-12 1q-43 0 -62.5 -18.5t-19.5 -58.5v-107h108v-199h-108v-958h-269v958h-104z" />
<glyph unicode="g" horiz-adv-x="995" d="M84 584q0 337 69 471q34 65 93.5 99t142.5 34q86 0 143.5 -37.5t92.5 -114.5v121h254v-1065q0 -152 -14.5 -223t-49.5 -121q-45 -66 -135 -101.5t-215 -35.5q-171 0 -263 67q-46 34 -69.5 82t-23.5 113h265q3 -32 28 -53q27 -19 71 -19q75 0 106 47t31 170v80 q-33 -65 -88.5 -97t-130.5 -32q-170 0 -238.5 129.5t-68.5 485.5zM356 559q0 -120 6 -193t20 -107q27 -64 97 -64q79 0 109 75t30 383q0 191 -29.5 252.5t-109.5 61.5q-70 0 -96.5 -70t-26.5 -338z" />
<glyph unicode="h" horiz-adv-x="993" d="M117 0v1540h266v-493q34 65 97 103t141 38q125 0 192.5 -72.5t67.5 -206.5v-909h-258v776q0 107 -23.5 144.5t-81.5 37.5q-71 0 -104 -49q-15 -24 -23 -66.5t-8 -105.5v-737h-266z" />
<glyph unicode="i" horiz-adv-x="496" d="M115 0v1157h266v-1157h-266zM115 1300v240h266v-240h-266z" />
<glyph unicode="j" horiz-adv-x="514" d="M37 -166q62 0 80 18.5t18 104.5v1200h262v-1204q0 -226 -54 -285t-218 -59h-15h-13q-10 2 -14 2h-26q-14 3 -20 4v219zM133 1300v240h264v-240h-264z" />
<glyph unicode="k" horiz-adv-x="885" d="M117 0v1540h260v-805l239 422h281l-289 -442l293 -715h-291l-168 463l-65 -103v-360h-260z" />
<glyph unicode="l" horiz-adv-x="496" d="M115 0v1540h266v-1540h-266z" />
<glyph unicode="m" horiz-adv-x="1538" d="M119 0v1157h248v-133q45 90 109.5 127t170.5 37q83 0 147 -38.5t91 -107.5q52 78 115 112t151 34q136 0 206 -76t70 -223v-889h-262v739q0 137 -28 177t-103 40q-69 0 -99 -46t-30 -165v-745h-264v752q0 117 -28 160.5t-95 43.5q-71 0 -103 -46.5t-32 -153.5v-756h-264z " />
<glyph unicode="n" horiz-adv-x="993" d="M117 0v1157h262v-117q41 71 102.5 109.5t139.5 38.5q125 0 192.5 -72.5t67.5 -206.5v-909h-258v776q0 103 -26 144t-87 41q-66 0 -95.5 -51.5t-29.5 -172.5v-737h-268z" />
<glyph unicode="o" horiz-adv-x="979" d="M82 578q0 349 90.5 479.5t316.5 130.5q228 0 318 -129.5t90 -480.5q0 -349 -90 -479t-318 -130q-225 0 -316 129t-91 480zM356 563q0 -267 27 -328t104 -61q80 0 108 56q14 29 21 101t7 193v47v66q0 228 -29 285q-27 59 -105 59q-75 0 -104 -54t-29 -257v-80v-27z" />
<glyph unicode="p" horiz-adv-x="995" d="M117 -389v1546h254v-121q32 75 92 113.5t143 38.5q167 0 236 -132.5t69 -471.5q0 -350 -66.5 -482.5t-232.5 -132.5q-83 0 -137 31.5t-90 97.5v-487h-268zM377 627q0 -283 29.5 -357.5t109.5 -74.5q70 0 96.5 65.5t26.5 321.5q0 127 -6 204.5t-20 112.5q-26 68 -97 68 q-79 0 -110 -62q-15 -31 -22 -98t-7 -180z" />
<glyph unicode="q" horiz-adv-x="995" d="M84 584q0 337 69 471q34 65 93.5 99t142.5 34q86 0 143.5 -37.5t92.5 -114.5v121h254v-1546h-269v487q-33 -65 -89 -97t-138 -32q-164 0 -231.5 133t-67.5 482zM356 559q0 -120 6 -193t20 -107q27 -64 97 -64q79 0 109 75t30 383q0 191 -29.5 252.5t-109.5 61.5 q-70 0 -96.5 -70t-26.5 -338z" />
<glyph unicode="r" horiz-adv-x="692" d="M119 0v1157h256v-188q53 115 117.5 166.5t152.5 51.5v-325l-30 3l-37 1q-84 0 -135.5 -51.5t-51.5 -136.5v-678h-272z" />
<glyph unicode="s" horiz-adv-x="901" d="M74 340l1 22l1 23h241v-33q0 -98 30 -141t102 -43q55 0 87.5 30t32.5 83q0 65 -129 152l-51 34l-13 9q-294 201 -294 396q0 153 95.5 234.5t277.5 81.5q175 0 264 -90q44 -45 66 -111.5t22 -159.5v-24h-236v24q0 85 -32 123.5t-101 38.5q-49 0 -79.5 -27.5t-30.5 -72.5 q0 -43 27 -77t118 -95l61 -41q291 -192 291 -385q0 -152 -98.5 -237t-280.5 -85q-190 0 -281 90t-91 281z" />
<glyph unicode="t" horiz-adv-x="557" d="M27 958v199h104v316h268v-316h111v-199h-111v-530v-78q0 -94 18 -118.5t64 -24.5h17l12 1v-208l-91 -8l-52 -2q-136 0 -186 54t-50 220v694h-104z" />
<glyph unicode="u" horiz-adv-x="991" d="M113 248v909h258v-756q0 -116 26 -159t88 -43q66 0 94.5 49t28.5 170v739h269v-1157h-263v115q-40 -72 -103 -109q-29 -17 -65 -27t-75 -10q-127 0 -192.5 71.5t-65.5 207.5z" />
<glyph unicode="v" horiz-adv-x="909" d="M23 1157h284l154 -885l147 885h277l-267 -1157h-327z" />
<glyph unicode="w" horiz-adv-x="1341" d="M27 1157h280l123 -856l131 856h219l156 -868l111 868h266l-223 -1157h-287l-131 688l-105 -688h-293z" />
<glyph unicode="x" horiz-adv-x="895" d="M14 0l305 592l-292 565h305l125 -289l125 289h292l-286 -565l293 -592h-297l-133 309l-134 -309h-303z" />
<glyph unicode="y" horiz-adv-x="909" d="M20 1157h283l160 -835l155 835h271l-301 -1266q-39 -165 -106 -221.5t-212 -56.5h-16q-9 0 -16.5 0.5t-13.5 1.5l-48 6v200h17l26 -1q57 0 83 18.5t26 59.5l-3 31l-3 18t-5 17z" />
<glyph unicode="z" horiz-adv-x="784" d="M43 0v213l391 719h-387v225h688v-194l-403 -736h407v-227h-696z" />
<glyph unicode="{" d="M158 426v209l21 -1l20 -1q120 0 171 58q26 29 39 77t13 119v250q0 145 23 201t81 92q45 23 112.5 36t168.5 13l37 -1l39 -1v-209l-25 1l-22 1q-99 0 -135.5 -38.5t-36.5 -162.5v-240q0 -147 -44.5 -208.5t-162.5 -90.5q117 -27 162 -87.5t45 -209.5v-241q0 -123 35 -161 t137 -38l22 1l25 1v-209l-39 -1l-37 -1q-98 0 -166 12t-115 37q-58 33 -81 91.5t-23 199.5v252q0 135 -51.5 193.5t-171.5 58.5l-20 -1z" />
<glyph unicode="|" d="M410 -483v2048h206v-2048h-206z" />
<glyph unicode="}" d="M143 -205l25 -1l22 -1q100 0 136 38.5t36 160.5v239q0 149 45 210.5t162 88.5q-118 27 -162.5 89t-44.5 210v242q0 121 -35.5 160t-136.5 39l-22 -1l-25 -1v209h68q109 0 177 -12t112 -38q56 -31 80 -91t24 -199v-252q0 -136 51 -194t172 -58l20 1l21 1v-209h-37 q-124 0 -175.5 -56t-51.5 -194v-252q0 -142 -23.5 -200.5t-80.5 -90.5q-45 -23 -112.5 -36t-168.5 -13l-37 1l-39 1v209z" />
<glyph unicode="~" horiz-adv-x="1706" d="M178 418v221q103 70 201.5 106.5t185.5 36.5q118 0 291 -58l4 -1l55 -19q157 -55 240 -55q41 0 85 9t90 28q88 35 200 117v-221q-105 -71 -197 -104.5t-182 -33.5q-36 0 -50 1.5t-40.5 6t-47 9.5t-46.5 14l-71 25q-219 75 -333 75q-43 0 -86.5 -9t-91.5 -29 q-94 -37 -207 -119z" />
<glyph unicode="&#xa3;" d="M72 164q95 66 151 158t56 186q0 27 -1 37.5t-4 32.5q0 20 -5 43t-7 32h-190v142h127q-45 72 -70 160t-25 182q0 188 117.5 300.5t315.5 112.5q207 0 313 -103t106 -304l-1 -40l-1 -26h-256v37q0 116 -39.5 171.5t-121.5 55.5q-76 0 -118 -56t-42 -159q0 -69 24 -156 t70 -175h291v-142h-242l9 -43l3 -43q0 -92 -56 -189t-169 -190q55 30 103 45t96 15q27 0 53 -4t75 -16q87 -19 126 -19q37 0 77 14.5t91 48.5l59 -223q-49 -35 -112 -54.5t-132 -19.5t-194.5 30t-179.5 30q-49 0 -102 -15t-120 -49z" />
<glyph unicode="&#xa4;" horiz-adv-x="1014" />
<glyph unicode="&#xa5;" horiz-adv-x="1262" />
<glyph unicode="&#xa6;" horiz-adv-x="1014" />
<glyph unicode="&#xa7;" d="M78 758q0 97 48 163t142 93q-58 40 -87 99t-29 138q0 156 101 241t286 85q174 0 267 -81t93 -234l-1 -16l-1 -17h-250v14q0 69 -29 101q-27 32 -90 32t-90.5 -23t-27.5 -73q0 -83 135 -179l22 -16l150 -106q139 -97 184 -167t45 -167q0 -99 -46.5 -160t-141.5 -88 q64 -37 96.5 -109.5t32.5 -181.5q0 -158 -100 -239q-50 -40 -123 -60t-175 -20q-188 0 -280 82t-92 252l1 20l1 23h254l-1 -15l-1 -16q0 -65 33 -101q34 -34 102 -34q66 0 97.5 27.5t31.5 87.5q0 36 -21 66t-100 89l-248 187q-111 81 -149.5 148t-38.5 155zM315 803 q0 -77 234 -242l86 -61q35 21 55 51q19 32 19 67q0 31 -17.5 57.5t-70.5 65.5l-224 164q-39 -20 -60.5 -46.5t-21.5 -55.5z" />
<glyph unicode="&#xa9;" horiz-adv-x="1706" d="M111 733q0 150 55.5 284t163.5 245q104 104 237.5 160.5t284.5 56.5q153 0 288 -56t241 -162t161 -243t55 -285q0 -152 -54.5 -283.5t-163 -238t-245.5 -164t-282 -57.5q-148 0 -280 56.5t-242 164.5q-106 104 -162.5 240t-56.5 282zM233 735q0 -127 47 -238t135 -199 t202 -135.5t237 -47.5q125 0 237 47q57 23 108 57t97 80q87 85 133 197.5t46 238.5q0 65 -11 122.5t-36 115.5q-46 114 -134 201.5t-200.5 134.5t-239.5 47q-129 0 -240 -46q-58 -24 -105 -55.5t-93 -78.5q-88 -89 -135.5 -203.5t-47.5 -237.5zM453 729q0 206 109.5 328.5 t293.5 122.5q151 0 250 -78q51 -40 78.5 -91t27.5 -114h-188q-8 70 -53 108.5t-119 38.5q-89 0 -142 -82.5t-53 -226.5q0 -147 51.5 -224t151.5 -77q72 0 116 41.5t54 119.5l193 1q0 -66 -28.5 -122.5t-80.5 -100.5q-101 -84 -260 -84q-186 0 -293.5 118t-107.5 322z" />
<glyph unicode="&#xad;" horiz-adv-x="672" d="M92 459v239h488v-239h-488z" />
<glyph unicode="&#xae;" horiz-adv-x="1706" d="M111 733q0 102 27 198t81 189q101 170 267 264.5t366 94.5q153 0 289.5 -57.5t244.5 -166.5q101 -103 156 -237.5t55 -284.5q0 -154 -55.5 -288.5t-162 -238t-244 -160t-283.5 -56.5q-150 0 -286 58t-241 165t-159.5 240.5t-54.5 279.5zM233 735q0 -123 45.5 -235.5 t133.5 -200t202.5 -137t237.5 -49.5q62 0 118 11t115 36q114 47 207 135q87 84 135 195.5t48 232.5q0 131 -44 243.5t-133 203.5t-202 138.5t-242 47.5q-125 0 -236 -45q-55 -22 -103 -54t-93 -77q-88 -88 -138.5 -205.5t-50.5 -239.5zM545 336v825h323q175 0 264 -59.5 t89 -177.5q0 -80 -48 -138.5t-133 -80.5l185 -369h-224l-157 338h-99v-338h-200zM745 795h99q88 0 129 27.5t41 88.5q0 64 -44 93.5t-136 29.5h-89v-239z" />
<glyph unicode="&#xb6;" d="M93 1086q0 157 109.5 255t293.5 98h453v-78h-127v-1365h-102v1365h-146v-1365h-104v738q-170 8 -273.5 104.5t-103.5 247.5z" />
<glyph unicode="&#xb7;" horiz-adv-x="508" d="M129 709q0 15 17 32l82 84q18 17 38 17q19 0 40 -19l81 -87q12 -16 12 -29q0 -15 -15 -31l-80 -89q-23 -23 -38 -23q-22 0 -38 18l-89 101q-10 13 -10 26z" />
<glyph unicode="&#xb9;" horiz-adv-x="421" d="M0 1464l180 178h57v-827h-122v599l-33 -33z" />
<glyph unicode="&#xba;" horiz-adv-x="718" />
<glyph unicode="&#xbb;" horiz-adv-x="944" />
<glyph unicode="&#xbc;" horiz-adv-x="1632" d="M57 1278v102q58 0 105 11t81 31q68 39 81 116h118v-868h-170v608h-215zM303 -29l868 1579h156l-870 -1579h-154zM1030 170v139l289 543h184v-553h82v-129h-82v-170h-166v170h-307zM1161 295h180v352z" />
<glyph unicode="&#xbd;" horiz-adv-x="1632" d="M57 1278v102q58 0 105 11t81 31q68 39 81 116h118v-868h-170v608h-215zM303 -29l868 1579h156l-870 -1579h-154zM1040 27q0 99 46 190t141 178l52 46q61 50 83 79q17 23 28 54q9 30 9 67q0 55 -23 82q-21 27 -67 27q-47 0 -70 -33q-22 -35 -22 -105v-32h-168l-1 14l-1 14 q0 134 63 197t203 63q129 0 198 -57q34 -28 52 -69t18 -95q0 -50 -13 -90q-6 -20 -15.5 -40.5t-22.5 -41.5q-19 -29 -89 -91l-57 -52l-11 -12q-128 -126 -146 -183h342v-137h-527l-1 13z" />
<glyph unicode="&#xbe;" horiz-adv-x="1632" d="M51 926l1 16l1 19h168v-11q0 -96 22 -136q23 -38 76 -38q54 0 75.5 34t21.5 122q0 86 -26.5 114.5t-102.5 28.5l-29 -1l-22 -1v113h14q84 0 116.5 26t32.5 95q0 63 -19 88.5t-65 25.5q-45 0 -65.5 -28t-20.5 -90v-21h-168v33q0 110 66.5 166.5t196.5 56.5 q120 0 184.5 -57.5t64.5 -165.5q0 -72 -27.5 -118t-82.5 -62q65 -15 99 -65.5t34 -137.5q0 -141 -69.5 -210t-211.5 -69q-133 0 -198.5 67t-65.5 206zM303 -29l868 1579h156l-870 -1579h-154zM1030 170v139l289 543h184v-553h82v-129h-82v-170h-166v170h-307zM1161 295h180 v352z" />
<glyph unicode="&#xc0;" horiz-adv-x="1120" d="M18 0l347 1540h385l350 -1540h-309l-76 387h-330l-74 -387h-293zM272 1954h256l174 -285h-125zM430 618h244l-123 646z" />
<glyph unicode="&#xc1;" horiz-adv-x="1120" d="M18 0l347 1540h385l350 -1540h-309l-76 387h-330l-74 -387h-293zM420 1669l174 285h256l-305 -285h-125zM430 618h244l-123 646z" />
<glyph unicode="&#xc2;" horiz-adv-x="1120" d="M18 0l347 1540h385l350 -1540h-309l-76 387h-330l-74 -387h-293zM285 1669l174 285h204l174 -285h-124l-152 150l-152 -150h-124zM430 618h244l-123 646z" />
<glyph unicode="&#xc3;" horiz-adv-x="1120" d="M18 0l347 1540h385l350 -1540h-309l-76 387h-330l-74 -387h-293zM280 1681q20 117 65.5 174.5t113.5 57.5q20 0 30 -2l31 -6l110 -33l23 -5l25 -1q30 0 48.5 18.5t27.5 56.5h88q-16 -110 -65 -173.5t-122 -63.5q-17 0 -26 2l-25 6l-121 35l-16 4l-17 2q-31 0 -52 -18 t-30 -54h-88zM430 618h244l-123 646z" />
<glyph unicode="&#xc8;" horiz-adv-x="1014" d="M131 0v1540h791v-256h-506v-356h471v-244h-471v-424h518v-260h-803zM229 1954h256l174 -285h-125z" />
<glyph unicode="&#xc9;" horiz-adv-x="1014" d="M131 0v1540h791v-256h-506v-356h471v-244h-471v-424h518v-260h-803zM377 1669l174 285h256l-305 -285h-125z" />
<glyph unicode="&#xca;" horiz-adv-x="1014" d="M131 0v1540h791v-256h-506v-356h471v-244h-471v-424h518v-260h-803zM242 1669l174 285h204l174 -285h-124l-152 150l-152 -150h-124z" />
<glyph unicode="&#xcc;" horiz-adv-x="549" d="M-15 1954h256l174 -285h-125zM131 0v1540h287v-1540h-287z" />
<glyph unicode="&#xcd;" horiz-adv-x="549" d="M131 0v1540h287v-1540h-287zM133 1669l174 285h256l-305 -285h-125z" />
<glyph unicode="&#xd2;" horiz-adv-x="1202" d="M100 770q0 250 22.5 393.5t72.5 218.5q66 105 159.5 150t245.5 45q150 0 243.5 -44.5t162.5 -150.5q47 -73 71 -222q11 -70 17 -169t6 -221q0 -249 -23 -393.5t-71 -218.5q-68 -106 -161 -150.5t-245 -44.5q-150 0 -243.5 45t-161.5 150q-48 74 -72 220q-11 71 -17 170 t-6 222zM313 1954h256l174 -285h-125zM393 770q0 -381 44.5 -479t164.5 -98q116 0 160.5 96.5t44.5 480.5q0 385 -44 482.5t-163 97.5q-118 0 -163 -98q-22 -49 -33 -168t-11 -314z" />
<glyph unicode="&#xd3;" horiz-adv-x="1202" d="M100 770q0 250 22.5 393.5t72.5 218.5q66 105 159.5 150t245.5 45q150 0 243.5 -44.5t162.5 -150.5q47 -73 71 -222q11 -70 17 -169t6 -221q0 -249 -23 -393.5t-71 -218.5q-68 -106 -161 -150.5t-245 -44.5q-150 0 -243.5 45t-161.5 150q-48 74 -72 220q-11 71 -17 170 t-6 222zM393 770q0 -381 44.5 -479t164.5 -98q116 0 160.5 96.5t44.5 480.5q0 385 -44 482.5t-163 97.5q-118 0 -163 -98q-22 -49 -33 -168t-11 -314zM461 1669l174 285h256l-305 -285h-125z" />
<glyph unicode="&#xd4;" horiz-adv-x="1202" d="M100 770q0 250 22.5 393.5t72.5 218.5q66 105 159.5 150t245.5 45q150 0 243.5 -44.5t162.5 -150.5q47 -73 71 -222q11 -70 17 -169t6 -221q0 -249 -23 -393.5t-71 -218.5q-68 -106 -161 -150.5t-245 -44.5q-150 0 -243.5 45t-161.5 150q-48 74 -72 220q-11 71 -17 170 t-6 222zM326 1669l174 285h204l174 -285h-124l-152 150l-152 -150h-124zM393 770q0 -381 44.5 -479t164.5 -98q116 0 160.5 96.5t44.5 480.5q0 385 -44 482.5t-163 97.5q-118 0 -163 -98q-22 -49 -33 -168t-11 -314z" />
<glyph unicode="&#xd5;" horiz-adv-x="1202" d="M100 770q0 250 22.5 393.5t72.5 218.5q66 105 159.5 150t245.5 45q150 0 243.5 -44.5t162.5 -150.5q47 -73 71 -222q11 -70 17 -169t6 -221q0 -249 -23 -393.5t-71 -218.5q-68 -106 -161 -150.5t-245 -44.5q-150 0 -243.5 45t-161.5 150q-48 74 -72 220q-11 71 -17 170 t-6 222zM321 1681q20 117 65.5 174.5t113.5 57.5q20 0 30 -2l31 -6l110 -33l23 -5l25 -1q30 0 48.5 18.5t27.5 56.5h88q-16 -110 -65 -173.5t-122 -63.5q-17 0 -26 2l-25 6l-121 35l-16 4l-17 2q-31 0 -52 -18t-30 -54h-88zM393 770q0 -381 44.5 -479t164.5 -98 q116 0 160.5 96.5t44.5 480.5q0 385 -44 482.5t-163 97.5q-118 0 -163 -98q-22 -49 -33 -168t-11 -314z" />
<glyph unicode="&#xd9;" horiz-adv-x="1223" d="M131 477v1063h287v-1038q0 -177 43.5 -241t154.5 -64q109 0 152 64.5t43 244.5v1034h283v-1063q0 -153 -17 -225t-59 -127q-61 -80 -164 -122q-52 -20 -111 -30t-131 -10q-263 0 -372 114t-109 400zM323 1954h256l174 -285h-125z" />
<glyph unicode="&#xda;" horiz-adv-x="1223" d="M131 477v1063h287v-1038q0 -177 43.5 -241t154.5 -64q109 0 152 64.5t43 244.5v1034h283v-1063q0 -153 -17 -225t-59 -127q-61 -80 -164 -122q-52 -20 -111 -30t-131 -10q-263 0 -372 114t-109 400zM471 1669l174 285h256l-305 -285h-125z" />
<glyph unicode="&#xdd;" horiz-adv-x="1126" d="M18 1540h318l233 -579l230 579h309l-397 -887v-653h-289v653zM471 1669l174 285h256l-305 -285h-125z" />
<glyph unicode="&#xe0;" horiz-adv-x="993" d="M92 305q0 142 64 226t256 171l54 24q157 66 157 157q0 54 -30.5 84t-88.5 30q-72 0 -107 -39.5t-35 -121.5v-23h-260q0 195 96 284t306 89t295.5 -82t85.5 -285v-653q0 -47 9 -87t30 -79h-260q-8 11 -16 39l-13 73q-41 -68 -108 -105.5t-156 -37.5q-132 0 -205.5 89.5 t-73.5 246.5zM209 1565h256l174 -285h-125zM369 328q0 -77 28.5 -113.5t89.5 -36.5q69 0 104.5 61t35.5 183v184q-150 -75 -204 -136t-54 -142z" />
<glyph unicode="&#xe1;" horiz-adv-x="993" d="M92 305q0 142 64 226t256 171l54 24q157 66 157 157q0 54 -30.5 84t-88.5 30q-72 0 -107 -39.5t-35 -121.5v-23h-260q0 195 96 284t306 89t295.5 -82t85.5 -285v-653q0 -47 9 -87t30 -79h-260q-8 11 -16 39l-13 73q-41 -68 -108 -105.5t-156 -37.5q-132 0 -205.5 89.5 t-73.5 246.5zM357 1280l174 285h256l-305 -285h-125zM369 328q0 -77 28.5 -113.5t89.5 -36.5q69 0 104.5 61t35.5 183v184q-150 -75 -204 -136t-54 -142z" />
<glyph unicode="&#xe2;" horiz-adv-x="993" d="M92 305q0 142 64 226t256 171l54 24q157 66 157 157q0 54 -30.5 84t-88.5 30q-72 0 -107 -39.5t-35 -121.5v-23h-260q0 195 96 284t306 89t295.5 -82t85.5 -285v-653q0 -47 9 -87t30 -79h-260q-8 11 -16 39l-13 73q-41 -68 -108 -105.5t-156 -37.5q-132 0 -205.5 89.5 t-73.5 246.5zM222 1280l174 285h204l174 -285h-124l-152 150l-152 -150h-124zM369 328q0 -77 28.5 -113.5t89.5 -36.5q69 0 104.5 61t35.5 183v184q-150 -75 -204 -136t-54 -142z" />
<glyph unicode="&#xe3;" horiz-adv-x="993" d="M92 305q0 142 64 226t256 171l54 24q157 66 157 157q0 54 -30.5 84t-88.5 30q-72 0 -107 -39.5t-35 -121.5v-23h-260q0 195 96 284t306 89t295.5 -82t85.5 -285v-653q0 -47 9 -87t30 -79h-260q-8 11 -16 39l-13 73q-41 -68 -108 -105.5t-156 -37.5q-132 0 -205.5 89.5 t-73.5 246.5zM217 1292q20 117 65.5 174.5t113.5 57.5q20 0 30 -2l31 -6l110 -33l23 -5l25 -1q30 0 48.5 18.5t27.5 56.5h88q-16 -110 -65 -173.5t-122 -63.5q-17 0 -26 2l-25 6l-121 35l-16 4l-17 2q-31 0 -52 -18t-30 -54h-88zM369 328q0 -77 28.5 -113.5t89.5 -36.5 q69 0 104.5 61t35.5 183v184q-150 -75 -204 -136t-54 -142z" />
<glyph unicode="&#xe8;" horiz-adv-x="975" d="M84 616q0 213 20 302.5t69 149t129 89.5q41 15 88.5 23t103.5 8q106 0 184.5 -32.5t128.5 -98.5q42 -56 61 -146q9 -43 14 -114t5 -168v-88h-526l-3 -28v-46q0 -165 30 -231t104 -66q71 0 103 54t32 173h252l1 -23l1 -22q0 -199 -94.5 -291t-299.5 -92q-107 0 -180 27 t-121 84q-55 65 -79 169q-11 50 -17 142t-6 225zM198 1565h256l174 -285h-125zM356 774l1 -17l1 -32h260v49q0 119 -29 164t-102 45q-70 0 -100.5 -46t-30.5 -163z" />
<glyph unicode="&#xe9;" horiz-adv-x="975" d="M84 616q0 213 20 302.5t69 149t129 89.5q41 15 88.5 23t103.5 8q106 0 184.5 -32.5t128.5 -98.5q42 -56 61 -146q9 -43 14 -114t5 -168v-88h-526l-3 -28v-46q0 -165 30 -231t104 -66q71 0 103 54t32 173h252l1 -23l1 -22q0 -199 -94.5 -291t-299.5 -92q-107 0 -180 27 t-121 84q-55 65 -79 169q-11 50 -17 142t-6 225zM346 1280l174 285h256l-305 -285h-125zM356 774l1 -17l1 -32h260v49q0 119 -29 164t-102 45q-70 0 -100.5 -46t-30.5 -163z" />
<glyph unicode="&#xea;" horiz-adv-x="975" d="M84 616q0 213 20 302.5t69 149t129 89.5q41 15 88.5 23t103.5 8q106 0 184.5 -32.5t128.5 -98.5q42 -56 61 -146q9 -43 14 -114t5 -168v-88h-526l-3 -28v-46q0 -165 30 -231t104 -66q71 0 103 54t32 173h252l1 -23l1 -22q0 -199 -94.5 -291t-299.5 -92q-107 0 -180 27 t-121 84q-55 65 -79 169q-11 50 -17 142t-6 225zM211 1280l174 285h204l174 -285h-124l-152 150l-152 -150h-124zM356 774l1 -17l1 -32h260v49q0 119 -29 164t-102 45q-70 0 -100.5 -46t-30.5 -163z" />
<glyph unicode="&#xec;" horiz-adv-x="496" d="M-41 1565h256l174 -285h-125zM115 0v1157h266v-1157h-266z" />
<glyph unicode="&#xed;" horiz-adv-x="496" d="M107 1280l174 285h256l-305 -285h-125zM115 0v1157h266v-1157h-266z" />
<glyph unicode="&#xf2;" horiz-adv-x="979" d="M82 578q0 349 90.5 479.5t316.5 130.5q228 0 318 -129.5t90 -480.5q0 -349 -90 -479t-318 -130q-225 0 -316 129t-91 480zM200 1565h256l174 -285h-125zM356 563q0 -267 27 -328t104 -61q80 0 108 56q14 29 21 101t7 193v47v66q0 228 -29 285q-27 59 -105 59 q-75 0 -104 -54t-29 -257v-80v-27z" />
<glyph unicode="&#xf3;" horiz-adv-x="979" d="M82 578q0 349 90.5 479.5t316.5 130.5q228 0 318 -129.5t90 -480.5q0 -349 -90 -479t-318 -130q-225 0 -316 129t-91 480zM348 1280l174 285h256l-305 -285h-125zM356 563q0 -267 27 -328t104 -61q80 0 108 56q14 29 21 101t7 193v47v66q0 228 -29 285q-27 59 -105 59 q-75 0 -104 -54t-29 -257v-80v-27z" />
<glyph unicode="&#xf4;" horiz-adv-x="979" d="M82 578q0 349 90.5 479.5t316.5 130.5q228 0 318 -129.5t90 -480.5q0 -349 -90 -479t-318 -130q-225 0 -316 129t-91 480zM213 1280l174 285h204l174 -285h-124l-152 150l-152 -150h-124zM356 563q0 -267 27 -328t104 -61q80 0 108 56q14 29 21 101t7 193v47v66 q0 228 -29 285q-27 59 -105 59q-75 0 -104 -54t-29 -257v-80v-27z" />
<glyph unicode="&#xf5;" horiz-adv-x="979" d="M82 578q0 349 90.5 479.5t316.5 130.5q228 0 318 -129.5t90 -480.5q0 -349 -90 -479t-318 -130q-225 0 -316 129t-91 480zM208 1292q20 117 65.5 174.5t113.5 57.5q20 0 30 -2l31 -6l110 -33l23 -5l25 -1q30 0 48.5 18.5t27.5 56.5h88q-16 -110 -65 -173.5t-122 -63.5 q-17 0 -26 2l-25 6l-121 35l-16 4l-17 2q-31 0 -52 -18t-30 -54h-88zM356 563q0 -267 27 -328t104 -61q80 0 108 56q14 29 21 101t7 193v47v66q0 228 -29 285q-27 59 -105 59q-75 0 -104 -54t-29 -257v-80v-27z" />
<glyph unicode="&#xf9;" horiz-adv-x="991" d="M113 248v909h258v-756q0 -116 26 -159t88 -43q66 0 94.5 49t28.5 170v739h269v-1157h-263v115q-40 -72 -103 -109q-29 -17 -65 -27t-75 -10q-127 0 -192.5 71.5t-65.5 207.5zM207 1565h256l174 -285h-125z" />
<glyph unicode="&#xfa;" horiz-adv-x="991" d="M113 248v909h258v-756q0 -116 26 -159t88 -43q66 0 94.5 49t28.5 170v739h269v-1157h-263v115q-40 -72 -103 -109q-29 -17 -65 -27t-75 -10q-127 0 -192.5 71.5t-65.5 207.5zM355 1280l174 285h256l-305 -285h-125z" />
<glyph unicode="&#xfd;" horiz-adv-x="909" d="M20 1157h283l160 -835l155 835h271l-301 -1266q-39 -165 -106 -221.5t-212 -56.5h-16q-9 0 -16.5 0.5t-13.5 1.5l-48 6v200h17l26 -1q57 0 83 18.5t26 59.5l-3 31l-3 18t-5 17zM355 1280l174 285h256l-305 -285h-125z" />
<glyph unicode="&#x2000;" horiz-adv-x="977" />
<glyph unicode="&#x2001;" horiz-adv-x="1954" />
<glyph unicode="&#x2002;" horiz-adv-x="977" />
<glyph unicode="&#x2003;" horiz-adv-x="1954" />
<glyph unicode="&#x2004;" horiz-adv-x="651" />
<glyph unicode="&#x2005;" horiz-adv-x="488" />
<glyph unicode="&#x2006;" horiz-adv-x="325" />
<glyph unicode="&#x2007;" horiz-adv-x="325" />
<glyph unicode="&#x2008;" horiz-adv-x="244" />
<glyph unicode="&#x2009;" horiz-adv-x="390" />
<glyph unicode="&#x200a;" horiz-adv-x="108" />
<glyph unicode="&#x2010;" horiz-adv-x="672" d="M92 459v239h488v-239h-488z" />
<glyph unicode="&#x2011;" horiz-adv-x="672" d="M92 459v239h488v-239h-488z" />
<glyph unicode="&#x2012;" horiz-adv-x="672" d="M92 459v239h488v-239h-488z" />
<glyph unicode="&#x2013;" horiz-adv-x="1208" d="M92 459v239h1024v-239h-1024z" />
<glyph unicode="&#x2014;" horiz-adv-x="2232" d="M92 459v239h2048v-239h-2048z" />
<glyph unicode="&#x2018;" horiz-adv-x="512" d="M121 1038v277q0 104 66.5 175.5t181.5 86.5v-98q-59 -7 -94 -51t-35 -111v-17h127v-262h-246z" />
<glyph unicode="&#x2019;" horiz-adv-x="512" d="M121 1004v98q61 8 94 50.5t33 111.5v16h-127v260h248v-274q0 -105 -66.5 -175t-181.5 -87z" />
<glyph unicode="&#x201c;" horiz-adv-x="907" d="M121 1038v277q0 104 66.5 175.5t181.5 86.5v-98q-59 -7 -94 -51t-35 -111v-17h127v-262h-246zM516 1038v277q0 104 67.5 175.5t180.5 86.5v-98q-59 -7 -94 -51t-35 -111v-17h127v-262h-246z" />
<glyph unicode="&#x201d;" horiz-adv-x="907" d="M121 1004v98q61 8 94 50.5t33 111.5v16h-127v260h248v-274q0 -105 -66.5 -175t-181.5 -87zM516 1004v98q61 8 94 50.5t33 111.5v16h-127v260h248v-274q0 -105 -66.5 -175t-181.5 -87z" />
<glyph unicode="&#x2026;" horiz-adv-x="2048" d="M213 0v276h258v-276h-258zM895 0v276h258v-276h-258zM1579 0v276h258v-276h-258z" />
<glyph unicode="&#x202f;" horiz-adv-x="390" />
<glyph unicode="&#x205f;" horiz-adv-x="488" />
<glyph unicode="&#x25fc;" horiz-adv-x="1155" d="M0 0v1155h1155v-1155h-1155z" />
</font>
</defs>
</svg>
